<?xml version="1.0" encoding="UTF-8"?>
<svg width="250px" height="115px" viewBox="0 0 250 115" version="1.1" xmlns="http://www.w3.org/2000/svg" xmlns:xlink="http://www.w3.org/1999/xlink">
    <!-- Generator: Sketch 47 (45396) - http://www.bohemiancoding.com/sketch -->
    <title>mobile/logo</title>
    <desc>Created with Sketch.</desc>
    <defs>
        <path d="M151.323906,57.6962643 L149.370874,64.8928038 C149.027344,66.1612269 148.428075,66.4833661 147.140474,66.4833661 L141.221579,66.4833661 L144.029619,56.1044436 L149.949786,56.1044436 C151.237387,56.1044436 151.685248,56.3598899 151.323906,57.6962643 L151.323906,57.6962643 Z M136.714975,66.4833661 L131.308831,66.4833661 C130.084846,66.4833661 129.589909,66.1612269 129.934711,64.8928038 L131.88647,57.6962643 C132.250358,56.3598899 132.895431,56.1044436 134.118143,56.1044436 L139.526832,56.1044436 L136.714975,66.4833661 Z M152.3405,52.2840739 C155.815242,52.2840739 156.932351,53.6217066 156.017543,57.0016516 L153.689173,65.5911915 C152.77691,68.9686197 150.935844,70.297444 147.457285,70.297444 L140.1859,70.297444 L137.661591,79.7011404 C140.091748,79.5098702 143.429078,79.0228864 145.913945,78.6390877 C146.401248,78.5119937 146.935628,78.4453008 147.397485,78.3836414 C147.085763,77.1768777 146.763863,75.9675973 146.461048,75.2012584 C146.368167,74.818718 146.328725,74.5003539 146.419061,74.1857648 C146.63663,73.352733 147.345319,72.656862 148.265216,72.3372395 C148.640555,72.148486 149.045157,72.0792764 149.433218,72.0792764 C150.204252,72.0792764 150.742449,72.4655918 150.971469,73.0356272 C152.181458,76.4143138 153.262941,81.4401888 153.607744,84.6880063 C153.701896,85.0680299 153.663726,85.4493118 153.558123,85.8343689 C153.299839,86.7882029 152.549162,87.4236728 151.535113,87.8062131 C151.185221,87.9345655 150.846781,88 150.527425,88 C149.626613,88 148.909017,87.5507668 148.776694,86.5981911 C148.551491,85.0680299 148.367003,83.6083366 148.12017,82.1410932 C139.321986,83.7316555 127.727213,84.8427841 118.960837,85.35116 L118.769987,85.35116 C117.479841,85.35116 116.738071,84.7786079 117.085417,83.2497051 C117.10323,83.1855289 117.122315,83.1226111 117.138855,83.0596933 C117.518011,81.6591427 118.370474,80.8928038 119.691156,80.7644514 C123.908941,80.6386158 128.195432,80.6574912 133.012485,80.208258 L135.678023,70.297444 L128.8545,70.297444 C125.443375,70.297444 124.326266,68.9686197 125.243618,65.5911915 L127.569444,57.0016516 C128.481707,53.6217066 130.327862,52.2840739 133.735171,52.2840739 L140.561238,52.2840739 L142.074043,46.6818718 C138.274856,46.9385765 134.535468,47.1927645 131.252848,47.1927645 C130.158642,47.1927645 129.466492,46.4289422 129.80875,45.156744 C130.153552,43.8807707 131.125615,42.9269367 132.282166,42.9269367 C140.908585,42.9269367 151.269195,41.974361 158.530401,40.1308691 C158.865025,40.0629178 159.143666,40 159.401949,40 C160.368923,40 160.891852,40.4454581 161,41.4609516 C160.977098,41.7818325 160.954196,42.1001966 160.886762,42.3543846 C160.627206,43.3082186 159.872713,43.9411718 158.968084,44.2016516 C155.511154,45.0938262 151.185221,45.8551317 146.690068,46.3005899 L145.069115,52.2840739 L152.3405,52.2840739 Z M165.128103,33 C169.079626,33 170.747402,34.8445605 169.688037,38.8009726 L167.332491,47.6039265 C164.854759,56.8519452 163.226031,63.4207493 162.316564,68.0163905 C161.277352,73.5639409 161.073289,78.604647 161.46756,81.4099424 C161.510388,81.7276657 161.978977,81.9495677 162.174223,81.9495677 C162.363171,81.9495677 162.764999,81.6621037 162.994256,81.2813401 C163.868453,79.6838977 164.862317,77.3904899 165.519854,75.4135447 C165.927981,74.1350865 166.823592,73.6257205 167.845168,73.6257205 L168.230621,73.6257205 C169.340373,73.7543228 169.858089,74.4553314 169.549475,75.6014049 C169.53184,75.6682277 169.53184,75.6682277 169.516724,75.7337896 C168.171418,79.8112392 166.051427,84.1559798 164.208558,86.5149496 C163.130298,87.9131844 161.323959,88.6154539 160.114695,88.6154539 C158.968414,88.6154539 157.993444,87.9774856 157.453054,86.6422911 C156.054843,83.0691643 156.015793,77.0072046 157.345984,69.6756124 C158.198767,64.826549 159.705309,57.9992795 162.097385,49.070245 L164.554962,39.8877882 C165.000878,38.2260447 164.437815,37.4582133 162.845617,37.4582133 L130.921042,37.4582133 C129.326325,37.4582133 128.295931,38.2260447 127.855054,39.8877882 L125.787968,47.6039265 C122.90085,58.3825648 120.176226,66.4202089 117.767775,71.8429395 C115.077162,77.8380764 111.59171,83.7008285 108.756238,87.4050793 C107.976514,88.4238112 106.990208,89 106.099635,89 C105.656238,89 105.304796,88.8713977 104.911785,88.6847983 C104.089234,88.1691282 103.847381,87.4050793 104.089234,86.5149496 C104.21016,86.0648415 104.473427,85.5542147 104.865178,85.0473703 C107.618773,81.6621037 110.806948,76.1826369 113.332547,70.5644813 C115.723363,65.2085735 118.413976,57.0435879 121.399347,45.8791427 L123.29638,38.8009726 C124.355746,34.8445605 127.021165,33 130.973948,33 L165.128103,33 Z M192.120617,84.2246181 C191.271981,84.2246181 190.823811,83.9619029 191.087441,82.9726359 L192.414376,78.0702959 C192.674239,77.0797718 193.247947,76.8811642 194.096583,76.8811642 L214.586874,76.8811642 C215.367719,76.8811642 215.902511,77.0797718 215.641392,78.0702959 L214.316967,82.9726359 C214.050827,83.9619029 213.387987,84.2246181 212.610908,84.2246181 L192.120617,84.2246181 Z M222.234641,55.279443 L221.639591,57.1586734 L206.710628,57.1586734 C203.570926,57.1586734 201.80963,58.3641462 200.983591,61.4777606 L200.065909,65.0476697 L190.530052,65.0476697 L193.147517,55.4064011 C193.504044,54.0689422 194.215844,53.7496616 195.52897,53.7496616 L220.693036,53.7496616 C222.071442,53.7496616 222.553507,54.0689422 222.234641,55.279443 L222.234641,55.279443 Z M219.58077,65.0476697 L204.21368,65.0476697 L204.973184,62.0497003 C205.294561,60.8417134 205.944847,60.5236898 207.074688,60.5236898 L220.752039,60.5236898 L219.58077,65.0476697 Z M226.797942,65.0476697 C230.313003,65.0476697 231.637427,66.4429511 230.715979,69.9412106 L227.273731,83.0807387 C226.197871,87.1484239 223.483743,88.7473409 219.219221,88.7473409 C217.179231,88.7473409 215.554771,88.2495649 214.049572,87.9843357 C213.693044,88.02456 213.312665,88.0471862 212.9009,88.0471862 L189.744185,88.0471862 C186.619548,88.0471862 185.76589,86.8593115 186.549247,83.9003094 L188.330629,77.2746084 C189.11273,74.3118352 190.599098,73.1277316 193.721225,73.1277316 L216.880451,73.1277316 C220.071623,73.1277316 220.927792,74.3118352 220.144435,77.2746084 L218.363053,83.9003094 C218.290241,84.1768517 218.20362,84.4232257 218.116999,84.6695997 C218.538806,84.8040998 218.969401,84.9008896 219.411294,84.9008896 C221.1048,84.9008896 222.323773,84.2271321 222.833456,82.3164765 L225.885282,70.6375943 C226.236788,69.3001354 225.727104,68.8589248 224.472981,68.8589248 L183.556424,68.8589248 C182.303556,68.8589248 181.55535,69.3001354 181.202589,70.6375943 L176.832616,87.2200735 C176.526303,88.3689809 175.355035,89 173.97914,89 C172.595713,89 171.760886,88.3689809 172.060921,87.2200735 L176.61418,69.9412106 C177.539394,66.4429511 179.605747,65.0476697 183.056783,65.0476697 L185.944154,65.0476697 L188.68339,54.9614195 C189.623669,51.4003094 191.693788,50 195.338153,50 L222.751857,50 C226.392455,50 227.715624,51.4003094 226.77409,54.9614195 L224.032343,65.0476697 L226.797942,65.0476697 Z M234.59299,34.8659154 C238.278778,34.8659154 239.599667,36.3389779 238.75379,39.5420031 L237.42401,44.5357358 C237.12046,45.6886224 236.185677,46.3277088 234.662844,46.3277088 C233.197166,46.3277088 232.548152,45.6886224 232.850432,44.5357358 L233.937626,40.4405207 C234.265308,39.2167651 233.726791,38.8383753 232.397012,38.8383753 L217.972651,38.8383753 L216.868947,42.9981319 C216.409176,44.7242979 215.388027,44.9204532 220.149578,44.9204532 C223.45434,44.9204532 224.833653,44.7242979 225.541091,44.2117633 C226.108819,43.7675666 226.521597,42.9310594 226.917863,41.9123177 C227.268407,41.0758105 228.024108,40.6290828 229.036366,40.6290828 L229.421202,40.6290828 C230.719229,40.7569001 231.32887,41.3365072 231.022779,42.4855972 C231.004998,42.5488731 230.968166,42.6766904 230.954195,42.7424973 C230.385197,44.406653 229.485976,45.8771845 228.35433,46.7744365 C227.005499,47.7982403 225.062268,48.1842232 218.959508,48.1842232 C210.646798,48.1842232 211.151022,47.5438713 212.029921,44.2117633 L213.462578,38.8383753 L206.671431,38.8383753 C202.845934,45.8101121 195.855383,49.4029167 186.565978,50.9367241 C186.411028,51 186.29291,51 186.160821,51 C185.205717,51 184.679901,50.3621791 184.81453,49.1447511 C184.846282,49.0156683 184.880575,48.887851 184.916137,48.7600337 C185.184125,47.7324334 185.991899,47.093347 186.997807,46.9047849 C193.680997,45.8771845 199.092831,43.7004942 202.033079,38.8383753 L190.280978,38.8383753 C188.885154,38.8383753 188.149775,39.2167651 187.810662,40.4987345 L186.722199,44.5964807 C186.395787,45.8101121 185.340346,46.4555261 183.875937,46.4555261 C182.353105,46.4555261 181.761245,45.8101121 182.086387,44.5964807 L183.433947,39.5420031 C184.278554,36.3389779 186.45167,34.8659154 190.067604,34.8659154 L209.18366,34.8659154 L209.996515,31.7957696 C210.325467,30.5770761 211.302163,30 213.076472,30 C214.858402,30 215.405809,30.5770761 215.075586,31.7957696 L214.264002,34.8659154 L234.59299,34.8659154 Z M97.7350488,76.0842667 C97.6959113,78.8405333 96.9724988,81.6259333 95.5004238,84.1808 C93.9399738,86.8927333 91.7381738,88.9992 89.1980238,90.4216667 L89.1954988,90.4216667 L58.5849238,108.152467 L58.5975488,108.146133 C56.1167363,109.623067 53.2205613,110.464133 50.1312238,110.466667 C47.0481988,110.466667 44.1583363,109.624333 41.6825738,108.160067 L41.6825738,108.157533 L11.1187113,90.4520667 L11.1111363,90.4495333 C5.98917375,87.5995333 2.52487375,82.1199333 2.52487375,75.8258667 L2.52487375,37.3901333 C2.52487375,31.0973333 5.98917375,25.619 11.1111363,22.7652 L11.1187113,22.7614 L41.6825738,5.0572 L41.6825738,5.05593333 C44.1583363,3.58913333 47.0481988,2.7506 50.1312238,2.7506 C53.2205613,2.7506 56.1167363,3.5942 58.5975488,5.0686 L58.5849238,5.06226667 L89.1954988,22.7930667 L89.1980238,22.7930667 C91.7381738,24.2142667 93.9399738,26.322 95.5004238,29.0326667 C96.9724988,31.5900667 97.6959113,34.3742 97.7350488,37.1317333 L97.7350488,76.0842667 Z M97.6870738,27.766 C95.9511363,24.7513333 93.4425488,22.2674 90.4289613,20.5802 L90.3708863,20.5485333 L59.8852988,2.88866667 C56.9436738,1.14066667 53.5715363,0.217266667 50.1312238,0.217266667 C46.6984863,0.217266667 43.3339238,1.13686667 40.3986113,2.87473333 L9.89029875,20.5472667 L9.88524875,20.5510667 C3.78737375,23.947 -0.00012625,30.3994 -0.00012625,37.3901333 L-0.00012625,75.8258667 C-0.00012625,82.8166 3.78737375,89.269 9.88524875,92.6662 L9.94837375,92.6991333 L40.2370113,110.246267 L40.3998738,110.342533 C43.3377113,112.081667 46.7035363,113 50.1312238,113 C53.5803738,112.997467 56.9525113,112.071533 59.8852988,110.326067 L59.8852988,110.3248 L90.3771988,92.6624 L90.4289613,92.6332667 C93.4450738,90.9435333 95.9549238,88.4608667 97.6883363,85.4474667 C99.3232737,82.6088667 100.213336,79.3826667 100.260049,76.1197333 L100.260049,37.1317333 C100.213336,33.8333333 99.3232737,30.6071333 97.6870738,27.766 L97.6870738,27.766 Z M83.1191847,83.14734 L59.1286055,97.0868527 C55.4527506,99.2399869 52.4720575,96.9522818 52.4720575,91.975698 L52.4720575,63.0086798 L84.8020761,81.8663775 C84.264451,82.3741922 83.7005699,82.8071042 83.1191847,83.14734 M84.3269656,30.9351053 L56.6742847,47.0023614 C52.435799,49.4868447 49.0012503,56.1506427 49,61.8876789 L49.0012503,97.1744507 C49.0012503,102.911487 52.435799,105.549584 56.6742847,103.065101 L84.3269656,86.9965752 C88.564201,84.5108224 92,77.8482939 92,72.1112577 L92,36.8244859 C92,31.0874497 88.564201,28.450622 84.3269656,30.9351053" id="path-1"></path>
    </defs>
    <g id="Symbols-mobile" stroke="none" stroke-width="1" fill="none" fill-rule="evenodd">
        <g id="mobile/logo">
            <g id="icon/swatch/black" transform="translate(0.000000, 1.000000)">
                <mask id="mask-2" fill="white">
                    <use xlink:href="#path-1"></use>
                </mask>
                <use id="Mask" fill="#FFFFFF" xlink:href="#path-1"></use>
            </g>
        </g>
    </g>
</svg>