<svg xmlns="http://www.w3.org/2000/svg" viewBox="0 0 300.12 95.56"><defs><style>.a{fill:#52565a;}</style></defs><title>logo</title><path class="a" d="M180,48.09h12V24.34a23.27,23.27,0,0,0-7-17.1,24.08,24.08,0,0,0-34,0,23.27,23.27,0,0,0-7,17.1V48.09h12.16V24.34a11.6,11.6,0,0,1,3.42-8.55A12,12,0,0,1,168,12.38a12,12,0,0,1,12,12V48.09" transform="translate(0.06 -0.22)"/><path class="a" d="M204.9,7.25a23.68,23.68,0,0,0-7,17.1,23.9,23.9,0,0,0,7,17.29,23.27,23.27,0,0,0,17.1,7,23.6,23.6,0,0,0,12.16-3.23V56.63a14.15,14.15,0,0,1-1.9,6.08A10.81,10.81,0,0,1,222,68.79V80.95l3.8-.38a34.18,34.18,0,0,0,8.36-2.85q12-6.27,12-21.08V24.34a23.68,23.68,0,0,0-7-17.1,24.31,24.31,0,0,0-34.19,0Zm25.64,8.55a11.68,11.68,0,0,1,3.61,8.55v.38a12.23,12.23,0,0,1-20.7,8.36A12.24,12.24,0,0,1,210,24.34a11.68,11.68,0,0,1,12-12A11.6,11.6,0,0,1,230.54,15.79Z" transform="translate(0.06 -0.22)"/><path class="a" d="M264,3.45a28.25,28.25,0,0,0-5.13,3.8,23.27,23.27,0,0,0-7,17.1,23,23,0,0,0,7,16.91,23.68,23.68,0,0,0,17.1,7,22.65,22.65,0,0,0,16.91-7,22.75,22.75,0,0,0,7.22-16.91,23,23,0,0,0-7.22-17.1A23.83,23.83,0,0,0,264,3.45Zm20.32,12.35a11.93,11.93,0,0,1,.19,16.91,11.29,11.29,0,0,1-8.55,3.61,11.07,11.07,0,0,1-8.36-3.61A11.93,11.93,0,0,1,264,25.1V24a11.86,11.86,0,0,1,3.61-8.17,11.93,11.93,0,0,1,16.72,0Z" transform="translate(0.06 -0.22)"/><path class="a" d="M101.94,3.64a28.25,28.25,0,0,0-5.13,3.8,23.27,23.27,0,0,0-7,17.1,23,23,0,0,0,7,16.91,23.68,23.68,0,0,0,17.1,7,22.65,22.65,0,0,0,16.91-7A22.75,22.75,0,0,0,138,24.53a23,23,0,0,0-7.22-17.1,23.83,23.83,0,0,0-28.87-3.8ZM122.27,16a11.93,11.93,0,0,1,.19,16.91,11.29,11.29,0,0,1-8.55,3.61,11.07,11.07,0,0,1-8.36-3.61,11.93,11.93,0,0,1-3.61-7.6V24.15A11.86,11.86,0,0,1,105.55,16a11.93,11.93,0,0,1,16.72,0Z" transform="translate(0.06 -0.22)"/><path class="a" d="M-.06,23.77V47.9H12.1V24a10.33,10.33,0,0,1,2.28-6.65,14.26,14.26,0,0,1,1.33-1.52,11.37,11.37,0,0,1,8.36-3.42,11.37,11.37,0,0,1,8.36,3.42,12,12,0,0,1,3.23,6.27,3.12,3.12,0,0,1,.19.95V47.9H48V22.82a11.23,11.23,0,0,1,3.42-7,11.79,11.79,0,0,1,8.36-3.42,12,12,0,0,1,8.55,3.42A11.15,11.15,0,0,1,71.74,24V47.9H83.9V23.77a23.2,23.2,0,0,0-7-16.53,23.27,23.27,0,0,0-17.1-7,23,23,0,0,0-16.91,7,7.55,7.55,0,0,0-.95,1.14A7.55,7.55,0,0,0,41,7.25a23,23,0,0,0-16.91-7,22.16,22.16,0,0,0-9.69,2.09A25.26,25.26,0,0,0,7,7.25a23.2,23.2,0,0,0-7,16.53" transform="translate(0.06 -0.22)"/><path class="a" d="M112.71,77.79q0-.83-.78-.83h-9.05a.73.73,0,0,0-.83.83v12.8a.73.73,0,0,0,.83.83h9.05q.78,0,.78-.83V77.79M105,89.9V85h4.82V89.9H105m4.82-11.44v5.21H105V78.47h4.82m16.93-1.07a.73.73,0,0,0-.83-.83H115.43a.73.73,0,0,0-.83.83v4.43q0,5.64-1.27,8.37a11.08,11.08,0,0,1-2.77,3.8q-.68.58,0,1.12l.44.39a.8.8,0,0,0,1.17,0,14.69,14.69,0,0,0,4.67-6.81h7v3.11a7.72,7.72,0,0,1-.1,1.65q-.15.34-.88.34T120,93.7q-.92,0-.88.78t.88.78q3.07.15,3.65.15,2.19,0,2.68-.54t.44-3.07V77.4m-3,5.74v4.18h-6.67a24.2,24.2,0,0,0,.39-4.18h6.28m0-5.11v3.75h-6.28V78h6.28M126.87,73q.78,0,.78-.73t-.78-.83h-5.3v-1.9q0-.83-.78-.83h-1.41q-.78,0-.78.83v1.9h-8.37v-1.9q0-.83-.78-.83H108q-.78,0-.78.83v1.9H102q-.78,0-.78.73T102,73h5.3v1.46q0,.83.78.83h1.41q.78,0,.78-.83V73h8.37v1.46q0,.83.78.83h1.41q.78,0,.78-.83V73Z" transform="translate(0.06 -0.22)"/><path class="a" d="M168.93,70.12q.24-.88-.63-1L167,69a.77.77,0,0,0-.92.68,31.87,31.87,0,0,1-3.75,8.71.8.8,0,0,0,.15,1.17l.63.49a.73.73,0,0,0,1.22-.15,32.11,32.11,0,0,0,3.16-5.74h10.95q-.24,8.91-.49,12.7a35.4,35.4,0,0,1-.63,5.45l-.29,1.07a.41.41,0,0,1-.44.29l-4.48-.24a.69.69,0,0,0-.83.78v0a.79.79,0,0,0,.78.88q2.77.19,5.64.19a2.18,2.18,0,0,0,2.19-1.12,6.78,6.78,0,0,0,.63-2.19l.44-4.09q.24-3.21.49-14.6,0-.83-.78-.83H168.15l.78-2.38m7.25,9.39q0-.83-.78-.83h-8.18a.73.73,0,0,0-.83.83v9.25a.73.73,0,0,0,.83.83h8.18q.78,0,.78-.83V79.51m-6.81,8.61V80.2h3.84v7.93h-3.84M157.59,69.78l-.88.49a.73.73,0,0,0-.34,1.12,20.85,20.85,0,0,1,1.27,3,21.56,21.56,0,0,1-2.82,2.14.83.83,0,0,0-.34,1.07l.19.39q.29.83,1.07.34l2.63-1.85a41.08,41.08,0,0,1,1,4.77,24.23,24.23,0,0,1-4.53,4.28.77.77,0,0,0-.34,1.07l.1.29q.34.88,1.12.39a19.87,19.87,0,0,0,3.94-3.11l0,2.68a25.84,25.84,0,0,1-.44,5.26q-.34,1.85-.83,1.85a9.57,9.57,0,0,1-2.34-.44q-.92-.24-.92.68a.84.84,0,0,0,.68.88,11.59,11.59,0,0,0,2.92.44A2.93,2.93,0,0,0,161.48,94q1.22-2.14,1-7.15-.29-8-1.9-12.36A41.62,41.62,0,0,0,164,70.8a.71.71,0,0,0-.19-1.17l-.54-.39a.74.74,0,0,0-1.17.19,28,28,0,0,1-2.29,2.82,16.47,16.47,0,0,0-1.07-2.14A.72.72,0,0,0,157.59,69.78Z" transform="translate(0.06 -0.22)"/></svg>