<!-- Generated by IcoMoon.io -->
<svg version="1.1" xmlns="http://www.w3.org/2000/svg" width="32" height="32" viewBox="0 0 32 32">
<title>arrow-right</title>
<path d="M32 16c0 8.837-7.163 16-16 16s-16-7.163-16-16c0-8.837 7.163-16 16-16v0c8.837 0 16 7.163 16 16v0zM31.256 16c0-8.426-6.83-15.256-15.256-15.256s-15.256 6.83-15.256 15.256c0 8.426 6.83 15.256 15.256 15.256v0c8.426 0 15.256-6.83 15.256-15.256v0z"></path>
<path d="M25.712 16.037c-0.013 0.087-0.055 0.163-0.115 0.219l-0 0-6.381 6.396c-0.068 0.070-0.163 0.113-0.268 0.113-0.207 0-0.375-0.168-0.375-0.375 0-0.102 0.041-0.195 0.107-0.262l-0 0 5.767-5.756h-17.779c-0.205 0-0.372-0.167-0.372-0.372s0.167-0.372 0.372-0.372v0h17.779l-5.767-5.753c-0.067-0.068-0.109-0.161-0.109-0.264 0-0.207 0.168-0.375 0.375-0.375 0.104 0 0.198 0.042 0.266 0.111l6.385 6.389c0.071 0.068 0.115 0.163 0.115 0.268v0s0 0.022 0 0.034z"></path>
</svg>
