<!-- Generated by IcoMoon.io -->
<svg version="1.1" xmlns="http://www.w3.org/2000/svg" width="32" height="32" viewBox="0 0 32 32">
<title>arrow2-right</title>
<path d="M16 32c-8.837 0-16-7.163-16-16s7.163-16 16-16c8.837 0 16 7.163 16 16v0c0 8.837-7.163 16-16 16v0zM16 31.256c8.426 0 15.256-6.83 15.256-15.256s-6.83-15.256-15.256-15.256c-8.426 0-15.256 6.83-15.256 15.256v0c0 8.426 6.83 15.256 15.256 15.256v0z"></path>
<path d="M14.824 23.847c-0.001 0-0.001 0-0.002 0-0.206 0-0.372-0.167-0.372-0.372 0-0.105 0.044-0.2 0.114-0.268l0-0 7.207-7.207-7.207-7.207c-0.070-0.068-0.114-0.163-0.114-0.268 0-0.206 0.167-0.372 0.372-0.372 0.101 0 0.192 0.040 0.259 0.105l7.479 7.479c0.067 0.067 0.108 0.16 0.108 0.262s-0.041 0.195-0.108 0.262l-7.472 7.472c-0.067 0.070-0.16 0.114-0.264 0.115h-0z"></path>
</svg>
