<!-- Generated by IcoMoon.io -->
<svg version="1.1" xmlns="http://www.w3.org/2000/svg" width="33" height="32" viewBox="0 0 33 32">
<title>line</title>
<path d="M16.707 0.013c-9.216 0-16.714 6.252-16.714 13.936 0 7.504 6.508 13.483 15.14 13.906 0.005 0 0.010 0 0.015 0 0.587 0 1.063-0.476 1.063-1.063 0-0.556-0.427-1.012-0.971-1.059l-0.004-0c-7.48-0.367-13.121-5.436-13.121-11.784 0-6.513 6.546-11.812 14.592-11.812s14.592 5.298 14.592 11.812c0 6.061-7.729 12.642-15.363 16.005-0.377 0.169-0.635 0.54-0.635 0.972 0 0.587 0.475 1.062 1.062 1.062 0.155 0 0.302-0.033 0.434-0.092l-0.007 0.003c4.266-1.903 7.927-4.359 11.096-7.332l-0.021 0.020c3.635-3.507 5.556-7.186 5.556-10.637 0-7.683-7.497-13.936-16.714-13.936zM8.489 10.551c-0.155-0.197-0.393-0.322-0.661-0.322-0.005 0-0.009 0-0.014 0h0.001c-0.004-0-0.008-0-0.012-0-0.269 0-0.508 0.129-0.659 0.328l-0.002 0.002c-0.144 0.21-0.23 0.47-0.23 0.75 0 0.030 0.001 0.061 0.003 0.091l-0-0.004v5.542c-0.003 0.030-0.004 0.066-0.004 0.101 0 0.287 0.093 0.553 0.25 0.768l-0.003-0.004c0.183 0.193 0.441 0.314 0.727 0.314 0.027 0 0.053-0.001 0.079-0.003l-0.003 0h3.009c0.014 0.001 0.030 0.001 0.047 0.001 0.243 0 0.463-0.097 0.623-0.254l-0 0c0.148-0.155 0.238-0.365 0.238-0.597 0-0.012-0-0.025-0.001-0.037l0 0.002c0-0.008 0-0.017 0-0.026 0-0.235-0.092-0.449-0.241-0.607l0 0c-0.157-0.162-0.377-0.262-0.62-0.262-0.017 0-0.033 0-0.049 0.001l0.002-0h-2.24v-4.957c0.001-0.023 0.002-0.050 0.002-0.077 0-0.282-0.090-0.543-0.243-0.757l0.003 0.004zM13.254 10.229c-0.003-0-0.007-0-0.011-0-0.268 0-0.507 0.128-0.657 0.327l-0.002 0.002c-0.146 0.212-0.233 0.474-0.233 0.756 0 0.029 0.001 0.057 0.003 0.086l-0-0.004v5.671c-0.002 0.026-0.003 0.056-0.003 0.086 0 0.283 0.090 0.544 0.242 0.758l-0.003-0.004c0.15 0.202 0.388 0.331 0.655 0.331 0.002 0 0.005 0 0.007-0h-0c0.003 0 0.007 0 0.011 0 0.27 0 0.511-0.128 0.664-0.327l0.001-0.002c0.15-0.213 0.24-0.477 0.24-0.763 0-0.028-0.001-0.056-0.003-0.084l0 0.004v-5.673c0.002-0.024 0.003-0.053 0.003-0.082 0-0.285-0.090-0.549-0.244-0.764l0.003 0.004c-0.155-0.198-0.394-0.324-0.662-0.324-0.003 0-0.005 0-0.008 0h0zM16.914 13.992l1.805 3.243v0.008c0.042 0.071 0.085 0.142 0.126 0.211l0.076 0.126c0.075 0.128 0.159 0.239 0.254 0.34l-0.001-0.001c0.094 0.101 0.208 0.182 0.335 0.239l0.007 0.003c0.119 0.050 0.258 0.080 0.403 0.080 0.004 0 0.008-0 0.012-0h-0.001c0.544-0.003 0.983-0.444 0.983-0.989 0-0.086-0.011-0.17-0.032-0.25l0.002 0.007v-5.661c0.002-0.025 0.003-0.053 0.003-0.082 0-0.265-0.079-0.512-0.215-0.718l0.003 0.005c-0.143-0.196-0.373-0.323-0.632-0.323-0.007 0-0.014 0-0.020 0l0.001-0c-0.004-0-0.009-0-0.014-0-0.257 0-0.485 0.126-0.625 0.32l-0.002 0.002c-0.132 0.202-0.211 0.449-0.211 0.715 0 0.029 0.001 0.057 0.003 0.085l-0-0.004v3.204l-1.846-3.306-0.096-0.176-0.097-0.18c-0.068-0.123-0.14-0.23-0.22-0.329l0.003 0.004c-0.080-0.098-0.178-0.179-0.288-0.239l-0.005-0.002c-0.116-0.061-0.252-0.096-0.398-0.096-0.008 0-0.016 0-0.023 0l0.001-0c-0.216 0-0.415 0.074-0.572 0.199l0.002-0.001c-0.163 0.123-0.288 0.289-0.358 0.481l-0.002 0.007c0 0.001 0 0.002 0 0.004s-0 0.003-0 0.004l0-0c-0.051 0.173-0.081 0.371-0.081 0.576 0 0.025 0 0.049 0.001 0.073l-0-0.004v5.554c-0.001 0.020-0.002 0.043-0.002 0.067 0 0.268 0.079 0.517 0.215 0.726l-0.003-0.005c0.149 0.197 0.383 0.323 0.647 0.323s0.497-0.126 0.645-0.321l0.001-0.002c0.141-0.203 0.224-0.454 0.224-0.725 0-0.025-0.001-0.050-0.002-0.074l0 0.003v-3.129zM26.204 12.040c0.021 0.002 0.046 0.003 0.071 0.003 0.442 0 0.8-0.358 0.8-0.8 0-0.018-0.001-0.035-0.002-0.052l0 0.002c0-0.009 0.001-0.020 0.001-0.030 0-0.221-0.085-0.421-0.225-0.571l0 0.001c-0.153-0.15-0.363-0.243-0.595-0.243-0.018 0-0.036 0.001-0.053 0.002l0.002-0h-3.287c-0.008-0-0.018-0-0.028-0-0.196 0-0.381 0.047-0.545 0.13l0.007-0.003c-0.174 0.095-0.307 0.246-0.377 0.428l-0.002 0.006c-0.064 0.168-0.101 0.363-0.101 0.567 0 0.019 0 0.037 0.001 0.056l-0-0.003v5.41c-0.003 0.031-0.004 0.067-0.004 0.103 0 0.288 0.094 0.553 0.253 0.768l-0.002-0.003c0.181 0.193 0.438 0.313 0.722 0.313 0.027 0 0.054-0.001 0.080-0.003l-0.003 0h3.388c0.013 0.001 0.029 0.001 0.044 0.001 0.238 0 0.452-0.097 0.607-0.254l0-0c0.138-0.153 0.223-0.356 0.223-0.579 0-0.010-0-0.020-0-0.029l0 0.001c0-0.010 0.001-0.021 0.001-0.032 0-0.225-0.084-0.431-0.223-0.587l0.001 0.001c-0.156-0.157-0.372-0.254-0.61-0.254-0.015 0-0.029 0-0.044 0.001l0.002-0h-2.621v-1.483h2.301c0.014 0.001 0.030 0.001 0.046 0.001 0.23 0 0.438-0.095 0.586-0.248l0-0c0.131-0.15 0.212-0.347 0.212-0.564 0-0.009-0-0.018-0-0.027l0 0.001c0.001-0.014 0.001-0.030 0.001-0.047 0-0.434-0.352-0.785-0.785-0.785-0.023 0-0.046 0.001-0.069 0.003l0.003-0h-2.301v-1.202h2.528z"></path>
</svg>
