<!-- Generated by IcoMoon.io -->
<svg version="1.1" xmlns="http://www.w3.org/2000/svg" width="41" height="32" viewBox="0 0 41 32">
<title>mail</title>
<path d="M34.748 4.881c-0.473-0.495-1.139-0.802-1.876-0.802-0.013 0-0.025 0-0.037 0l0.002-0h-24.986c-0.011-0-0.025-0-0.038-0-0.742 0-1.412 0.307-1.89 0.802l-0.001 0.001c-0.495 0.473-0.803 1.139-0.803 1.877 0 0.024 0 0.048 0.001 0.073l-0-0.004v18.415c-0 0.015-0 0.034-0 0.052 0 0.729 0.301 1.388 0.785 1.859l0.001 0.001c0.479 0.495 1.149 0.802 1.891 0.802 0.013 0 0.027-0 0.040-0l-0.002 0h25.003c1.495-0.010 2.704-1.219 2.714-2.713v-18.416c0-0.018 0.001-0.040 0.001-0.062 0-0.74-0.308-1.408-0.802-1.883l-0.001-0.001zM33.365 25.259c-0.001 0.146-0.060 0.278-0.154 0.376l0-0c-0.097 0.094-0.229 0.152-0.375 0.154h-24.986c-0.298-0.009-0.537-0.248-0.546-0.545l-0-0.001v-13.022c0.374 0.408 0.775 0.778 1.207 1.11l0.022 0.016q4.54 3.413 7.219 5.734 0.853 0.734 1.417 1.143c0.424 0.304 0.906 0.578 1.417 0.8l0.051 0.020c0.499 0.243 1.083 0.392 1.701 0.409l0.006 0c0.623-0.019 1.207-0.168 1.732-0.421l-0.026 0.011c0.562-0.245 1.044-0.519 1.494-0.837l-0.026 0.017c0.358-0.273 0.836-0.649 1.399-1.143q2.697-2.236 7.236-5.734c0.422-0.351 0.802-0.72 1.151-1.115l0.010-0.011v13.022zM33.365 7.236v0.188c-0.043 0.844-0.331 1.614-0.793 2.248l0.008-0.012c-0.471 0.76-1.038 1.408-1.694 1.952l-0.013 0.011-6.827 5.376-0.597 0.495-0.785 0.631-0.751 0.529c-0.251 0.172-0.537 0.326-0.84 0.45l-0.031 0.011c-0.216 0.094-0.468 0.15-0.733 0.154h-0.001c-0.266-0.007-0.517-0.062-0.747-0.159l0.014 0.005c-0.327-0.135-0.607-0.289-0.868-0.471l0.015 0.010-0.751-0.529-0.785-0.631-0.58-0.427-6.827-5.376c-1.506-1.088-2.475-2.838-2.475-4.815 0-0.017 0-0.034 0-0.051l-0 0.003c0.009-0.298 0.248-0.537 0.545-0.546l0.001-0h24.986c0.033 0.015 0.071 0.024 0.111 0.024s0.078-0.009 0.113-0.024l-0.002 0.001s0.119 0 0.154 0.119c0.005 0.067 0.045 0.124 0.101 0.153l0.001 0c0.014 0.030 0.021 0.065 0.021 0.102s-0.008 0.072-0.022 0.104l0.001-0.002v0.444z"></path>
</svg>
