<!-- Generated by IcoMoon.io -->
<svg version="1.1" xmlns="http://www.w3.org/2000/svg" width="32" height="32" viewBox="0 0 32 32">
<title>search</title>
<path d="M25.464 12.72c0-0.044 0.001-0.096 0.001-0.148 0-7.095-5.751-12.845-12.845-12.845s-12.845 5.751-12.845 12.845c0 7.095 5.751 12.845 12.845 12.845 3.228 0 6.179-1.191 8.436-3.157l9.713 9.767 1.207-1.207-9.703-9.779c1.971-2.2 3.18-5.117 3.192-8.317zM12.745 23.755c-6.095 0-11.036-4.941-11.036-11.036s4.941-11.036 11.036-11.036c6.095 0 11.036 4.941 11.036 11.036s-4.941 11.036-11.036 11.036z"></path>
</svg>
