<!-- Generated by IcoMoon.io -->
<svg version="1.1" xmlns="http://www.w3.org/2000/svg" width="19" height="32" viewBox="0 0 19 32">
<title>shopbag</title>
<path d="M18.138 11.344c-0.198-4.915-1.629-10.122-5.165-11.2-0.296-0.097-0.638-0.154-0.992-0.154-0.766 0-1.471 0.263-2.029 0.703l0.007-0.005c-0.637 0.51-1.16 1.132-1.546 1.84l-0.016 0.032c-0.207-0.107-0.452-0.207-0.706-0.286l-0.033-0.009c-0.313-0.104-0.673-0.164-1.047-0.164-0.791 0-1.52 0.269-2.099 0.721l0.008-0.006c-2.006 1.488-3.078 5.024-3.434 7.574-0.324 0.152-0.588 0.386-0.77 0.677l-0.004 0.008c-0.202 0.343-0.321 0.756-0.321 1.196 0 0.029 0.001 0.059 0.002 0.088l-0-0.004v13.699c0.045 1.212 0.822 2.232 1.9 2.633l9.892 3.226c0.164 0.055 0.354 0.086 0.55 0.086 0.005 0 0.009-0 0.014-0h-0.001c0.505-0.010 0.972-0.165 1.363-0.425l-0.009 0.006 3.408-2.355c0.891-0.687 1.474-1.736 1.529-2.923l0-0.009v-13.51c0-0.009 0-0.020 0-0.030 0-0.536-0.188-1.028-0.503-1.414l0.003 0.004zM10.851 1.882c0.306-0.255 0.703-0.409 1.136-0.409 0.199 0 0.39 0.033 0.569 0.093l-0.013-0.004c1.69 0.512 2.653 2.467 3.162 4.016 0.456 1.415 0.773 3.058 0.886 4.756l0.003 0.063-4.16-1.36c-0.557-2.317-1.456-4.349-2.816-5.619 0.31-0.608 0.724-1.119 1.224-1.529l0.008-0.007zM8.973 4.877c0.706 0.871 1.262 1.896 1.608 3.014l0.017 0.064c0.058 0.179 0.112 0.362 0.166 0.55l-2.528-0.826c0.184-1.071 0.438-2.015 0.77-2.921l-0.037 0.115zM5.411 4.013c0.327-0.262 0.747-0.42 1.204-0.42 0.22 0 0.431 0.037 0.627 0.104l-0.014-0.004c0.202 0.064 0.375 0.136 0.539 0.223l-0.017-0.008c-0.426 1.035-0.771 2.246-0.979 3.504l-0.013 0.099c-0.272 0.056-0.511 0.168-0.715 0.323l0.004-0.003c-0.357 0.295-0.633 0.676-0.797 1.111l-0.006 0.018c-0.362 0.886-0.726 1.363-1.686 1.363-0.245-0.008-0.478-0.038-0.703-0.088l0.025 0.005c-0.086-0.016-0.173-0.026-0.256-0.035 0.374-2.205 1.315-5.104 2.784-6.195zM2.458 11.629v-0.032l0.077 0.019s1.555 0.4 2.598-0.32c0.915-0.64 1.562-2.054 1.562-2.054 0.1-0.207 0.308-0.347 0.549-0.347 0.063 0 0.124 0.010 0.182 0.028l-0.004-0.001 3.725 1.235c0.264 1.338 0.43 2.89 0.46 4.476l0 0.026-9.078-3.008zM12.838 29.206c0 0.205-0.166 0.371-0.371 0.371s-0.371-0.166-0.371-0.371v0-10.294c0-0.205 0.166-0.371 0.371-0.371s0.371 0.166 0.371 0.371v0zM15.296 14.672c-0.736 0.509-1.706 0.461-2.211 0.39-0.010-1.55-0.138-3.062-0.374-4.537l0.022 0.169 3.776 1.251c0.056 0.019 0.105 0.044 0.149 0.075l-0.002-0.001q0 0.262 0 0.528c0 0.002-0 0.004-0 0.006 0 0.114 0.026 0.222 0.072 0.319l-0.002-0.004c-0.347 0.716-0.824 1.318-1.405 1.798l-0.009 0.007z"></path>
</svg>
