<?xml version="1.0" encoding="utf-8"?>
<!-- Generated by IcoMoon.io -->
<!DOCTYPE svg PUBLIC "-//W3C//DTD SVG 1.1//EN" "http://www.w3.org/Graphics/SVG/1.1/DTD/svg11.dtd">
<svg version="1.1" xmlns="http://www.w3.org/2000/svg" xmlns:xlink="http://www.w3.org/1999/xlink" width="20" height="32" viewBox="0 0 20 32">
<path fill="#000" d="M16.428 31.99v0c1.038-0.004 1.978-0.424 2.662-1.1 0.682-0.658 1.108-1.58 1.108-2.6s-0.424-1.944-1.106-2.6l-9.964-9.69 9.974-9.71c0.684-0.658 1.108-1.58 1.108-2.6s-0.424-1.944-1.106-2.6c-0.692-0.674-1.636-1.090-2.678-1.090s-1.986 0.416-2.678 1.090l-12.646 12.304c-0.684 0.66-1.108 1.584-1.108 2.606s0.424 1.948 1.108 2.606l12.648 12.306c0.684 0.678 1.622 1.096 2.66 1.1v0z"></path>
</svg>
