<?xml version="1.0" encoding="utf-8"?>
<!-- Generated by IcoMoon.io -->
<!DOCTYPE svg PUBLIC "-//W3C//DTD SVG 1.1//EN" "http://www.w3.org/Graphics/SVG/1.1/DTD/svg11.dtd">
<svg version="1.1" xmlns="http://www.w3.org/2000/svg" xmlns:xlink="http://www.w3.org/1999/xlink" width="32" height="32" viewBox="0 0 32 32">
<path fill="#000" d="M30.472 16.004c-0.053-0.006-0.115-0.010-0.177-0.010-0.822 0-1.499 0.62-1.589 1.418-0.741 6.436-6.152 11.382-12.718 11.382-3.536 0-6.737-1.434-9.053-3.752-2.312-2.315-3.742-5.512-3.742-9.042 0-7.067 5.729-12.797 12.797-12.797 2.071 0 4.028 0.492 5.759 1.366 0.123 0.059 0.352 0.112 0.594 0.112 0.883 0 1.6-0.716 1.6-1.6 0-0.607-0.338-1.134-0.835-1.405-2.078-1.052-4.521-1.666-7.107-1.666-8.834 0-15.996 7.162-15.996 15.996s7.162 15.996 15.996 15.996c8.207 0 14.97-6.18 15.89-14.14 0.014-0.132 0.019-0.199 0.019-0.267 0-0.826-0.625-1.505-1.428-1.591z"></path>
<path fill="#000" d="M11.517 14.076c-0.29-0.29-0.69-0.469-1.132-0.469-0.884 0-1.601 0.717-1.601 1.601 0 0.442 0.179 0.842 0.469 1.132l5.599 5.599c0.29 0.29 0.69 0.469 1.132 0.469s0.842-0.179 1.132-0.469l12.797-12.797c0.29-0.29 0.469-0.69 0.469-1.132 0-0.884-0.717-1.601-1.601-1.601-0.442 0-0.842 0.179-1.132 0.469l-11.661 11.661z"></path>
</svg>
