<?xml version="1.0" encoding="utf-8"?>
<!-- Generated by IcoMoon.io -->
<!DOCTYPE svg PUBLIC "-//W3C//DTD SVG 1.1//EN" "http://www.w3.org/Graphics/SVG/1.1/DTD/svg11.dtd">
<svg version="1.1" xmlns="http://www.w3.org/2000/svg" xmlns:xlink="http://www.w3.org/1999/xlink" width="32" height="32" viewBox="0 0 32 32">
<path fill="#000" d="M16 10.954c1.13 0.002 2.045 0.917 2.047 2.047 0 0.491 0.398 0.888 0.888 0.888s0.888-0.398 0.888-0.888c-0.003-1.795-1.241-3.3-2.909-3.711l-0.026-0.257c0-0.491-0.398-0.888-0.888-0.888s-0.888 0.398-0.888 0.888v0.252c-1.695 0.417-2.932 1.922-2.935 3.716 0 2.268 1.871 3.912 3.824 3.824v0c1.131 0 2.047 0.917 2.047 2.047s-0.917 2.047-2.047 2.047c-1.131 0-2.047-0.917-2.047-2.047 0-0.491-0.398-0.888-0.888-0.888s-0.888 0.398-0.888 0.888c0.003 1.795 1.241 3.3 2.909 3.711l0.026 0.396c0 0.491 0.398 0.888 0.888 0.888s0.888-0.398 0.888-0.888v-0.391c1.695-0.417 2.932-1.922 2.935-3.716-0.003-2.111-1.713-3.821-3.823-3.824h-0c-1.131 0-2.047-0.917-2.047-2.047s0.917-2.047 2.047-2.047z"></path>
<path fill="#000" d="M16 0c-8.825 0-16 7.175-16 16s7.175 16 16 16 16-7.175 16-16-7.175-16-16-16zM16 30.224c-7.843 0-14.224-6.381-14.224-14.224s6.381-14.224 14.224-14.224 14.224 6.381 14.224 14.224-6.381 14.224-14.224 14.224z"></path>
<path fill="#000" d="M16 3.792c-6.728 0-12.208 5.48-12.208 12.208s5.48 12.208 12.208 12.208 12.208-5.48 12.208-12.208-5.48-12.208-12.208-12.208zM16 26.425c-5.222 0-9.556-3.855-10.312-8.869h2.324c0.491 0 0.888-0.398 0.888-0.888s-0.398-0.888-0.888-0.888h-2.431c0.013-0.699 0.093-1.371 0.233-2.022l3.887 0.069c0.491 0 0.888-0.398 0.888-0.888s-0.398-0.888-0.888-0.888h-3.345c1.599-3.83 5.312-6.473 9.644-6.476 5.751 0 10.425 4.68 10.425 10.425s-4.674 10.425-10.425 10.425z"></path>
</svg>
