<?xml version="1.0" encoding="utf-8"?>
<!-- Generated by IcoMoon.io -->
<!DOCTYPE svg PUBLIC "-//W3C//DTD SVG 1.1//EN" "http://www.w3.org/Graphics/SVG/1.1/DTD/svg11.dtd">
<svg version="1.1" xmlns="http://www.w3.org/2000/svg" xmlns:xlink="http://www.w3.org/1999/xlink" width="18" height="32" viewBox="0 0 18 32">
<path fill="#000" d="M0 31.9h0.315v-2.369h-0.315v-0.048h0.527q0.040 0 0.079-0.002t0.079-0.005q0.040 0 0.079-0.002t0.079-0.002q0.085 0 0.152 0.003t0.125 0.012c0.043 0.006 0.080 0.015 0.116 0.025q0.047 0.014 0.106 0.038c0.116 0.046 0.215 0.109 0.3 0.187 0.081 0.075 0.151 0.164 0.203 0.262 0.054 0.101 0.095 0.212 0.12 0.329 0.026 0.12 0.040 0.247 0.040 0.378 0 0.003 0 0.005-0 0.008 0 0.006 0 0.012 0 0.019 0 0.139-0.017 0.273-0.048 0.402-0.027 0.11-0.070 0.218-0.126 0.317-0.049 0.086-0.11 0.166-0.182 0.236-0.066 0.064-0.141 0.119-0.223 0.162-0.042 0.024-0.084 0.044-0.129 0.060-0.040 0.014-0.083 0.025-0.126 0.032-0.045 0.007-0.093 0.012-0.142 0.014q-0.079 0.003-0.178 0.004-0.042 0-0.091-0.002t-0.095-0.005-0.095-0.005-0.089-0.002h-0.482v-0.048zM0.598 31.9q0.048 0.007 0.112 0.011t0.14 0.004c0.067 0 0.133-0.004 0.198-0.013 0.060-0.008 0.121-0.026 0.177-0.053 0.059-0.028 0.112-0.067 0.158-0.113 0.054-0.056 0.099-0.12 0.133-0.192 0.057-0.115 0.101-0.242 0.127-0.377 0.024-0.133 0.037-0.276 0.037-0.422 0-0.005-0-0.011-0-0.016s0-0.014 0-0.022c0-0.168-0.015-0.332-0.045-0.491-0.022-0.127-0.071-0.255-0.141-0.37-0.061-0.098-0.149-0.181-0.253-0.237q-0.165-0.088-0.403-0.088-0.072 0-0.129 0.003l-0.112 0.007v2.369z"></path>
<path fill="#000" d="M2.239 31.9h0.315v-2.369h-0.315v-0.048h0.538q0.034 0 0.068-0.002t0.068-0.005c0.024 0 0.045 0 0.068-0.002s0.045-0.002 0.068-0.002c0.005-0 0.012-0 0.018-0 0.098 0 0.194 0.008 0.287 0.024 0.084 0.018 0.166 0.064 0.228 0.128 0.062 0.057 0.11 0.128 0.139 0.208 0.026 0.069 0.041 0.145 0.042 0.225-0.001 0.048-0.007 0.094-0.016 0.139-0.012 0.058-0.036 0.114-0.068 0.164-0.039 0.060-0.090 0.112-0.149 0.153-0.076 0.051-0.165 0.085-0.261 0.096l-0.003 0.007q0.045 0.007 0.123 0.026c0.060 0.016 0.113 0.038 0.162 0.066 0.054 0.031 0.103 0.071 0.145 0.117 0.046 0.053 0.080 0.118 0.095 0.19 0.012 0.048 0.020 0.102 0.024 0.157q0.007 0.091 0.012 0.185t0.009 0.18c0.002 0.053 0.008 0.103 0.016 0.152 0.010 0.055 0.029 0.109 0.055 0.16 0.019 0.039 0.061 0.068 0.111 0.068 0.002 0 0.005-0 0.007-0 0.059-0.001 0.112-0.028 0.147-0.071l0.026 0.038q-0.014 0.014-0.033 0.029c-0.014 0.011-0.029 0.021-0.046 0.029-0.021 0.010-0.045 0.018-0.069 0.023-0.030 0.006-0.062 0.009-0.095 0.009-0.003 0-0.006-0-0.008-0-0.004 0-0.009 0-0.014 0-0.063 0-0.122-0.013-0.177-0.036-0.046-0.022-0.087-0.057-0.116-0.1-0.032-0.049-0.055-0.105-0.067-0.165-0.015-0.070-0.025-0.149-0.030-0.229l-0.020-0.319q-0.011-0.173-0.057-0.27c-0.024-0.057-0.060-0.105-0.106-0.143-0.036-0.028-0.079-0.047-0.125-0.054-0.035-0.005-0.074-0.008-0.114-0.009h-0.286v1.25h0.315v0.048h-0.911v-0.048zM2.837 30.601h0.261c0.002 0 0.004 0 0.006 0 0.050 0 0.097-0.009 0.141-0.025 0.043-0.017 0.081-0.046 0.109-0.083 0.034-0.047 0.059-0.103 0.071-0.162 0.017-0.075 0.026-0.158 0.026-0.243 0-0.008-0-0.016-0-0.024s0.001-0.018 0.001-0.028c0-0.093-0.014-0.182-0.040-0.267-0.018-0.058-0.053-0.114-0.098-0.158-0.037-0.034-0.083-0.059-0.134-0.071-0.047-0.011-0.098-0.018-0.151-0.018q-0.051 0-0.104 0.002c-0.032 0.001-0.063 0.004-0.093 0.009l0.004 1.070z"></path>
<path fill="#000" d="M4.214 31.9h0.315v-2.369h-0.315v-0.048h1.622v0.599h-0.031c-0.025-0.095-0.052-0.174-0.084-0.25-0.022-0.053-0.056-0.11-0.098-0.161-0.037-0.044-0.084-0.080-0.138-0.104-0.057-0.023-0.121-0.036-0.188-0.036-0.005 0-0.009 0-0.014 0h-0.47v1.070h0.184c0.003 0 0.008 0 0.012 0 0.052 0 0.103-0.008 0.151-0.022 0.042-0.014 0.080-0.041 0.108-0.077 0.035-0.045 0.062-0.097 0.079-0.153 0.023-0.071 0.045-0.156 0.062-0.244l0.034-0.014v1.076h-0.031q-0.020-0.1-0.041-0.194c-0.014-0.063-0.034-0.119-0.061-0.171-0.023-0.044-0.057-0.082-0.099-0.111-0.045-0.028-0.097-0.044-0.154-0.044-0.005 0-0.010 0-0.015 0l-0.229-0v1.25h0.536c0.005 0 0.010 0 0.015 0 0.092 0 0.177-0.031 0.245-0.082 0.067-0.053 0.123-0.117 0.166-0.19 0.041-0.070 0.074-0.148 0.096-0.23 0.017-0.062 0.031-0.13 0.040-0.2l0.032-0.007v0.758h-1.729v-0.048z"></path>
<path fill="#000" d="M6.266 31.203h0.031c0.018 0.119 0.047 0.225 0.085 0.326 0.026 0.070 0.063 0.139 0.107 0.203 0.032 0.047 0.074 0.089 0.121 0.124 0.039 0.028 0.083 0.050 0.13 0.066 0.041 0.013 0.084 0.022 0.13 0.025q0.062 0.003 0.116 0.004c0.006 0 0.013 0 0.020 0 0.083 0 0.161-0.021 0.23-0.057 0.059-0.034 0.111-0.081 0.149-0.137 0.037-0.054 0.064-0.115 0.080-0.181 0.015-0.058 0.023-0.12 0.025-0.185 0-0.005 0-0.009 0-0.014 0-0.070-0.014-0.137-0.038-0.198-0.022-0.053-0.054-0.102-0.093-0.144-0.035-0.038-0.076-0.071-0.12-0.097-0.038-0.023-0.080-0.043-0.123-0.059l-0.331-0.123q-0.229-0.087-0.347-0.229t-0.118-0.382c-0-0.002-0-0.005-0-0.008 0-0.1 0.017-0.197 0.047-0.287 0.028-0.082 0.071-0.159 0.127-0.225 0.053-0.062 0.118-0.113 0.193-0.15 0.079-0.037 0.167-0.057 0.26-0.057 0.057 0 0.112 0.008 0.164 0.022 0.040 0.013 0.078 0.029 0.114 0.048l0.083 0.046c0.022 0.013 0.049 0.021 0.078 0.021 0.003 0 0.005 0 0.008 0 0.015 0 0.030-0.005 0.042-0.013 0.014-0.017 0.026-0.037 0.034-0.059l0.040-0.002v0.627h-0.034c-0.012-0.090-0.033-0.172-0.061-0.249-0.025-0.070-0.061-0.137-0.105-0.198-0.041-0.056-0.093-0.104-0.153-0.14-0.061-0.035-0.132-0.055-0.207-0.055-0.003 0-0.007 0-0.010 0-0.053 0.001-0.105 0.009-0.154 0.023-0.116 0.033-0.212 0.114-0.266 0.22-0.031 0.065-0.049 0.138-0.049 0.215 0 0.006 0 0.011 0 0.017-0 0.003-0 0.007-0 0.011 0 0.064 0.014 0.125 0.038 0.179 0.023 0.049 0.055 0.092 0.094 0.129 0.038 0.035 0.081 0.065 0.128 0.089 0.042 0.022 0.090 0.043 0.139 0.062l0.353 0.135q0.054 0.021 0.136 0.055c0.062 0.027 0.114 0.062 0.16 0.104 0.054 0.051 0.099 0.111 0.131 0.18 0.037 0.082 0.057 0.174 0.057 0.271 0 0.008-0 0.017-0 0.025 0 0 0 0.002 0 0.003 0 0.109-0.018 0.214-0.052 0.312-0.031 0.093-0.080 0.179-0.142 0.254-0.061 0.073-0.136 0.133-0.222 0.177-0.089 0.044-0.188 0.069-0.294 0.069-0.004 0-0.007-0-0.011-0q-0.059 0-0.104-0.002c-0.031-0.001-0.060-0.004-0.089-0.009q-0.036-0.006-0.076-0.015c-0.035-0.008-0.064-0.017-0.093-0.028q-0.052-0.019-0.117-0.046c-0.033-0.016-0.072-0.026-0.113-0.028-0.003-0-0.006-0.001-0.009-0.001-0.020 0-0.037 0.008-0.050 0.021-0.011 0.016-0.021 0.034-0.027 0.054l-0.043 0.001v-0.745z"></path>
<path fill="#000" d="M8.085 31.203h0.031c0.018 0.119 0.047 0.225 0.085 0.326 0.026 0.070 0.063 0.139 0.107 0.203 0.032 0.047 0.074 0.089 0.121 0.124 0.039 0.028 0.083 0.050 0.13 0.066 0.041 0.013 0.084 0.022 0.13 0.025q0.062 0.003 0.116 0.004c0.006 0 0.013 0 0.020 0 0.083 0 0.161-0.021 0.23-0.057 0.059-0.034 0.111-0.081 0.149-0.137 0.037-0.054 0.064-0.115 0.080-0.181 0.015-0.058 0.023-0.12 0.025-0.185 0-0.005 0-0.009 0-0.014 0-0.070-0.014-0.137-0.038-0.198-0.022-0.053-0.054-0.102-0.093-0.144-0.035-0.038-0.076-0.071-0.12-0.097-0.038-0.023-0.080-0.043-0.123-0.059l-0.331-0.123q-0.229-0.087-0.347-0.229t-0.118-0.382c-0-0.002-0-0.005-0-0.008 0-0.1 0.017-0.197 0.047-0.287 0.028-0.082 0.071-0.159 0.127-0.225 0.053-0.062 0.118-0.113 0.193-0.15 0.079-0.037 0.167-0.057 0.26-0.057 0.057 0 0.112 0.008 0.164 0.022 0.040 0.013 0.078 0.029 0.114 0.048l0.083 0.046c0.022 0.013 0.049 0.021 0.078 0.021 0.003 0 0.005 0 0.008 0 0.015 0 0.030-0.005 0.042-0.013 0.014-0.017 0.026-0.037 0.034-0.059l0.040-0.002v0.627h-0.034c-0.012-0.090-0.033-0.172-0.061-0.249-0.025-0.070-0.061-0.137-0.105-0.198-0.041-0.056-0.093-0.104-0.153-0.14-0.061-0.035-0.132-0.055-0.207-0.055-0.003 0-0.007 0-0.010 0-0.053 0.001-0.105 0.009-0.154 0.023-0.116 0.033-0.212 0.114-0.266 0.22-0.031 0.065-0.049 0.138-0.049 0.215 0 0.006 0 0.011 0 0.017-0 0.003-0 0.007-0 0.012 0 0.064 0.014 0.124 0.038 0.179 0.023 0.049 0.055 0.092 0.094 0.129 0.038 0.035 0.081 0.065 0.127 0.089 0.042 0.022 0.090 0.043 0.139 0.062l0.353 0.135q0.054 0.021 0.136 0.055c0.062 0.027 0.114 0.062 0.16 0.104 0.055 0.051 0.099 0.111 0.131 0.18 0.037 0.082 0.057 0.174 0.057 0.271 0 0.008-0 0.017-0 0.025 0 0 0 0.002 0 0.003 0 0.109-0.018 0.214-0.052 0.312-0.031 0.093-0.080 0.179-0.142 0.254-0.061 0.073-0.136 0.133-0.222 0.177-0.089 0.044-0.188 0.069-0.294 0.069-0.004 0-0.007-0-0.011-0q-0.059 0-0.104-0.002c-0.031-0.001-0.060-0.004-0.089-0.009q-0.036-0.006-0.076-0.015c-0.035-0.008-0.064-0.017-0.093-0.028q-0.052-0.019-0.117-0.046c-0.033-0.016-0.072-0.026-0.113-0.028-0.003-0-0.006-0.001-0.009-0.001-0.020 0-0.037 0.008-0.050 0.021-0.011 0.016-0.021 0.034-0.027 0.054l-0.043 0.001v-0.745z"></path>
<path fill="#000" d="M12.099 31.948h-0.038c-0.012-0.019-0.025-0.035-0.040-0.050-0.017-0.014-0.039-0.023-0.062-0.023-0.003 0-0.006 0-0.009 0-0.029 0.001-0.057 0.008-0.083 0.020l-0.099 0.043c-0.035 0.015-0.077 0.030-0.12 0.042-0.052 0.014-0.104 0.021-0.157 0.021-0.002 0-0.004 0-0.006-0-0.113-0.001-0.219-0.030-0.312-0.081q-0.147-0.078-0.28-0.258c-0.181-0.251-0.29-0.565-0.29-0.904 0-0.012 0-0.024 0-0.036-0-0.001-0-0.004-0-0.007 0-0.173 0.025-0.341 0.071-0.499 0.041-0.146 0.106-0.284 0.189-0.409 0.072-0.109 0.167-0.205 0.278-0.279 0.103-0.069 0.226-0.108 0.358-0.108 0.001 0 0.002 0 0.004 0s0.004-0 0.007-0c0.047 0 0.092 0.008 0.135 0.022 0.039 0.014 0.075 0.030 0.109 0.049q0.044 0.024 0.085 0.046c0.023 0.013 0.049 0.020 0.078 0.021 0.003 0 0.006 0 0.010 0 0.024 0 0.045-0.009 0.062-0.023 0.014-0.015 0.027-0.031 0.038-0.049l0.038-0.001v0.692h-0.028q-0.024-0.132-0.058-0.26c-0.023-0.086-0.057-0.162-0.1-0.23-0.039-0.061-0.093-0.115-0.156-0.155-0.067-0.039-0.144-0.062-0.227-0.062-0.006 0-0.011 0-0.016 0-0.003-0-0.007-0-0.011-0-0.080 0-0.155 0.021-0.219 0.059-0.063 0.038-0.117 0.089-0.158 0.15-0.045 0.065-0.080 0.139-0.104 0.218-0.025 0.081-0.046 0.171-0.060 0.263q-0.021 0.15-0.028 0.293t-0.006 0.272c-0 0.016-0 0.034-0 0.053 0 0.194 0.016 0.385 0.046 0.57q0.040 0.218 0.117 0.357t0.185 0.194c0.068 0.035 0.148 0.055 0.233 0.055 0.002 0 0.004 0 0.006-0q0.168 0 0.272-0.066c0.069-0.044 0.125-0.101 0.166-0.169 0.042-0.071 0.075-0.151 0.095-0.235q0.034-0.139 0.059-0.271h0.028v0.738z"></path>
<path fill="#000" d="M12.335 30.712c-0-0.004-0-0.010-0-0.015 0-0.178 0.029-0.349 0.083-0.509 0.048-0.145 0.117-0.28 0.204-0.402 0.073-0.104 0.166-0.194 0.274-0.265 0.092-0.062 0.199-0.099 0.316-0.101 0.121 0.001 0.233 0.038 0.326 0.1 0.11 0.071 0.203 0.162 0.277 0.267 0.085 0.121 0.152 0.256 0.197 0.402 0.050 0.159 0.077 0.33 0.077 0.508 0 0.005-0 0.011-0 0.016 0-0 0 0 0 0.001 0 0.169-0.025 0.331-0.071 0.485-0.042 0.145-0.106 0.282-0.187 0.406-0.071 0.109-0.164 0.206-0.272 0.283-0.099 0.071-0.218 0.113-0.347 0.113-0.001 0-0.001 0-0.002 0-0.13 0-0.251-0.040-0.351-0.109-0.11-0.075-0.202-0.171-0.274-0.281-0.080-0.122-0.142-0.259-0.183-0.406-0.044-0.154-0.068-0.319-0.068-0.49 0-0.001 0-0.002 0-0.003zM12.625 30.712c-0 0.010-0 0.023-0 0.035 0 0.179 0.011 0.356 0.033 0.53 0.014 0.123 0.049 0.254 0.102 0.376 0.036 0.086 0.098 0.164 0.176 0.222 0.080 0.049 0.174 0.077 0.276 0.077s0.196-0.028 0.277-0.078c0.078-0.057 0.141-0.136 0.179-0.227 0.051-0.117 0.086-0.248 0.101-0.385 0.020-0.159 0.031-0.336 0.031-0.515 0-0.012-0-0.025-0-0.037-0-0.161-0.009-0.322-0.026-0.481-0.012-0.127-0.043-0.262-0.089-0.39-0.034-0.099-0.096-0.192-0.175-0.267q-0.115-0.104-0.299-0.104t-0.299 0.104c-0.079 0.075-0.141 0.169-0.177 0.274-0.044 0.121-0.075 0.256-0.088 0.397-0.015 0.141-0.023 0.298-0.023 0.457 0 0.004 0 0.009 0 0.013z"></path>
<path fill="#000" d="M14.273 31.9h0.28v-2.369h-0.28v-0.048h0.468q0.035 0 0.072-0.002t0.072-0.005q0.035 0 0.072-0.002t0.072-0.002q0.076 0 0.135 0.003c0.042 0.002 0.080 0.007 0.117 0.013 0.032 0.005 0.065 0.014 0.097 0.024 0.036 0.013 0.069 0.026 0.101 0.041 0.097 0.044 0.185 0.106 0.259 0.183s0.135 0.165 0.182 0.263c0.048 0.102 0.085 0.213 0.107 0.33 0.023 0.12 0.035 0.248 0.035 0.379 0 0.002 0 0.005 0 0.007 0 0.006 0 0.013 0 0.020 0 0.138-0.015 0.273-0.043 0.403-0.024 0.109-0.062 0.217-0.112 0.317-0.043 0.085-0.098 0.164-0.162 0.235-0.057 0.063-0.124 0.118-0.198 0.162-0.037 0.024-0.075 0.043-0.114 0.060-0.036 0.014-0.073 0.025-0.111 0.032-0.040 0.007-0.083 0.012-0.126 0.014q-0.070 0.003-0.158 0.004-0.038 0-0.081-0.002t-0.086-0.005-0.084-0.005-0.079-0.002h-0.429v-0.048zM14.804 31.9c0.028 0.005 0.062 0.008 0.097 0.010q0.059 0.004 0.127 0.004c0 0 0 0 0 0 0.060 0 0.119-0.004 0.176-0.013 0.116-0.017 0.222-0.078 0.298-0.166 0.049-0.057 0.089-0.121 0.118-0.192 0.051-0.115 0.090-0.243 0.113-0.377 0.021-0.133 0.033-0.276 0.033-0.421 0-0.006-0-0.011-0-0.017s0-0.014 0-0.022c0-0.167-0.014-0.332-0.040-0.491-0.019-0.125-0.063-0.254-0.126-0.371-0.052-0.095-0.13-0.178-0.225-0.236q-0.146-0.088-0.358-0.088-0.063 0-0.115 0.003l-0.099 0.007v2.369z"></path>
<path fill="#000" d="M16.263 31.9h0.28v-2.369h-0.28v-0.048h1.441v0.599h-0.028c-0.023-0.096-0.048-0.175-0.076-0.252-0.019-0.051-0.049-0.108-0.087-0.16-0.031-0.043-0.074-0.079-0.123-0.103-0.051-0.023-0.107-0.036-0.167-0.036-0.004 0-0.008 0-0.012 0h-0.418v1.070h0.164c0.003 0 0.007 0 0.010 0 0.047 0 0.092-0.008 0.134-0.022 0.038-0.015 0.072-0.042 0.096-0.076 0.031-0.045 0.056-0.097 0.071-0.153 0.021-0.070 0.040-0.156 0.055-0.243l0.030-0.015v1.076h-0.028q-0.018-0.1-0.037-0.194c-0.012-0.063-0.030-0.119-0.055-0.172-0.019-0.042-0.050-0.081-0.088-0.111-0.039-0.028-0.086-0.044-0.137-0.044-0.004 0-0.007 0-0.011 0l-0.203-0v1.25h0.477c0.003 0 0.008 0 0.012 0 0.084 0 0.16-0.031 0.219-0.082 0.060-0.054 0.11-0.118 0.148-0.19 0.037-0.071 0.067-0.149 0.086-0.231 0.015-0.062 0.028-0.13 0.036-0.2l0.028-0.008v0.758h-1.537v-0.048z"></path>
<path fill="#000" d="M15.433 3.211c-0.906-0.567-1.975-0.268-2.932-0.076-0.521 0.104-1.115 0.193-1.649 0.086 0.229-2.296 0.493-3.222 0.493-3.222l-0.499 0.052c-0.008-0.001-0.017-0.001-0.026-0.001-0.035 0-0.068 0.005-0.099 0.015l-0.007-0.001v0.001c-0.375 0.108-0.993 0.706-1.24 1.158-0.29 0.534-0.197 1.183 0.251 1.63 0.203 0.203 0.397 0.347 0.62 0.447-0.146 1.877-0.272 4.603-0.241 8.269-0.909 1.095-1.838 2.191-2.757 3.283q-0.431 0.513-0.863 1.026-0.466 0.552-0.934 1.102-1.216 1.431-2.433 2.862c-0.334 0.395-0.661 0.799-1.002 1.189 0.441-0.472 0.911-0.917 1.351-1.389 0.574-0.614 1.152-1.224 1.714-1.849 1.141-1.269 2.253-2.566 3.382-3.845q0.781-0.884 1.55-1.78c0.044 3.384 0.221 7.529 0.631 12.498 0.212-0.216 0.17-0.024 0.327-0.184-0.386-5.216-0.535-9.428-0.549-12.791q0.359-0.42 0.716-0.842c0.272-0.34 0.562-0.668 0.841-1.002q0.496-0.594 0.988-1.193c0.34-0.414 0.68-0.829 1.014-1.249 0.354-0.44 0.732-0.943 1.090-1.38 0.664-0.811 1.445-2.080 0.263-2.819zM10.082 2.866c-0.364-0.303-0.648-0.745-0.476-1.225 0.145-0.405 0.505-0.682 0.843-0.917 0.029-0.020 0.1-0.068 0.181-0.129-0.069 0.48-0.169 1.291-0.265 2.457-0.108-0.056-0.2-0.118-0.286-0.188zM15.313 4.94c-0.254 0.556-0.695 1.056-1.063 1.537-0.987 1.291-2.027 2.542-3.065 3.792l-0.667 0.804c0.003-3.398 0.146-5.882 0.312-7.625 0.126 0.023 0.278 0.040 0.431 0.047 0.45 0.024 0.887-0.044 1.324-0.093 0.736-0.083 1.541-0.221 2.271 0.016 0.893 0.288 0.679 1.033 0.456 1.523z"></path>
</svg>
