<?xml version="1.0" encoding="utf-8"?>
<!-- Generated by IcoMoon.io -->
<!DOCTYPE svg PUBLIC "-//W3C//DTD SVG 1.1//EN" "http://www.w3.org/Graphics/SVG/1.1/DTD/svg11.dtd">
<svg version="1.1" xmlns="http://www.w3.org/2000/svg" xmlns:xlink="http://www.w3.org/1999/xlink" width="21" height="32" viewBox="0 0 21 32">
<path fill="#000" d="M11.504 6.473c0.159-1.6 0.344-2.245 0.344-2.245l-0.347 0.037c-0.005-0-0.012-0.001-0.018-0.001-0.024 0-0.048 0.004-0.070 0.010l-0.004-0c-0.261 0.075-0.692 0.492-0.863 0.807-0.202 0.372-0.137 0.824 0.175 1.136 0.121 0.127 0.264 0.231 0.423 0.307-0.093 1.312-0.181 3.212-0.159 5.765-0.634 0.763-1.281 1.527-1.921 2.288q-0.301 0.357-0.602 0.715-0.325 0.385-0.651 0.768-0.847 0.998-1.696 1.994c-0.236 0.278-0.466 0.563-0.707 0.838 0.31-0.332 0.64-0.646 0.95-0.978 0.4-0.428 0.802-0.853 1.194-1.288 0.794-0.884 1.57-1.788 2.355-2.679q0.544-0.616 1.080-1.24c0.030 2.358 0.154 5.246 0.44 8.707 0.148-0.15 0.119-0.017 0.227-0.128-0.269-3.634-0.373-6.569-0.382-8.912q0.25-0.293 0.499-0.586c0.19-0.238 0.391-0.465 0.586-0.697q0.346-0.414 0.688-0.831c0.238-0.289 0.474-0.578 0.707-0.87 0.246-0.307 0.51-0.657 0.759-0.961 0.464-0.566 1.008-1.45 0.184-1.965-0.632-0.395-1.376-0.185-2.043-0.053-0.362 0.077-0.775 0.139-1.148 0.063zM10.967 6.226c-0.253-0.212-0.45-0.519-0.332-0.853 0.101-0.282 0.351-0.476 0.587-0.639 0.020-0.014 0.070-0.047 0.126-0.090-0.048 0.334-0.118 0.9-0.185 1.712-0.075-0.039-0.139-0.082-0.198-0.131zM14.294 6.609c0.622 0.202 0.473 0.72 0.318 1.062-0.177 0.387-0.484 0.735-0.741 1.071-0.688 0.9-1.412 1.771-2.135 2.642l-0.464 0.56c0.002-2.368 0.101-4.098 0.217-5.313 0.088 0.016 0.193 0.028 0.301 0.033 0.313 0.016 0.618-0.031 0.923-0.065 0.513-0.056 1.074-0.151 1.583 0.012z"></path>
<path fill="#000" d="M2.145 29.686c-0.064-0.121-0.145-0.223-0.239-0.311-0.099-0.090-0.214-0.163-0.34-0.213q-0.077-0.031-0.138-0.049c-0.035-0.011-0.078-0.021-0.123-0.027q-0.073-0.010-0.15-0.015t-0.176-0.004c-0.031 0-0.061 0-0.092 0.002s-0.061 0.002-0.092 0.002-0.061 0.005-0.092 0.006-0.061 0.002-0.092 0.002h-0.611v0.056h0.364v2.748h-0.365v0.056h0.559q0.049 0 0.103 0.002c0.036 0 0.073 0.003 0.11 0.006s0.074 0.005 0.112 0.006 0.072 0.002 0.106 0.002c0.077 0 0.145 0 0.204-0.004 0.060-0.002 0.116-0.008 0.171-0.017 0.047-0.008 0.096-0.021 0.143-0.037 0.052-0.019 0.101-0.042 0.148-0.069 0.097-0.051 0.184-0.114 0.261-0.189 0.083-0.081 0.155-0.173 0.212-0.275 0.064-0.114 0.113-0.238 0.146-0.37 0.036-0.147 0.055-0.304 0.055-0.465 0-0.008-0-0.015-0-0.022 0-0.001 0-0.004 0-0.006 0-0.152-0.016-0.301-0.047-0.444-0.028-0.132-0.076-0.26-0.14-0.379zM1.908 31.022c-0.031 0.167-0.082 0.316-0.151 0.454-0.037 0.078-0.089 0.152-0.152 0.217-0.053 0.053-0.115 0.098-0.183 0.13-0.065 0.031-0.136 0.052-0.211 0.062-0.070 0.009-0.147 0.014-0.225 0.014-0 0-0 0-0 0q-0.089 0-0.163-0.004t-0.13-0.012v-2.747l0.13-0.008c0.045-0.003 0.095-0.004 0.15-0.004q0.276 0 0.463 0.101c0.125 0.067 0.227 0.163 0.299 0.28 0.079 0.13 0.136 0.279 0.164 0.438 0.032 0.173 0.050 0.364 0.050 0.558 0 0.009-0 0.018-0 0.027 0 0.004 0 0.011 0 0.017 0 0.169-0.015 0.334-0.044 0.495z"></path>
<path fill="#000" d="M4.756 31.884c-0.026 0.012-0.056 0.020-0.088 0.020-0.002 0-0.005 0-0.007 0-0.058 0-0.108-0.034-0.131-0.084-0.028-0.056-0.050-0.119-0.062-0.186-0.010-0.053-0.016-0.112-0.019-0.171q-0.005-0.103-0.010-0.211t-0.013-0.212c-0.005-0.068-0.015-0.13-0.029-0.191-0.017-0.079-0.056-0.154-0.111-0.216-0.049-0.054-0.106-0.1-0.169-0.136-0.057-0.033-0.118-0.058-0.183-0.075q-0.096-0.023-0.148-0.031v-0.008c0.115-0.013 0.219-0.052 0.308-0.112 0.068-0.047 0.126-0.107 0.172-0.177 0.038-0.058 0.065-0.122 0.080-0.191 0.011-0.050 0.017-0.103 0.019-0.157-0.001-0.094-0.019-0.182-0.049-0.264-0.034-0.092-0.089-0.174-0.161-0.239-0.073-0.075-0.167-0.129-0.273-0.15-0.101-0.017-0.213-0.027-0.327-0.027-0.006 0-0.013 0-0.019 0-0.025 0-0.052 0-0.078 0.002s-0.053 0.002-0.079 0.002-0.053 0.005-0.079 0.006-0.053 0.002-0.079 0.002h-0.625v0.056h0.365v2.748h-0.365v0.056h1.059v-0.056h-0.365v-1.45h0.332c0.047 0 0.093 0.004 0.138 0.011 0.051 0.008 0.1 0.030 0.142 0.062 0.053 0.043 0.095 0.098 0.122 0.162q0.054 0.116 0.067 0.316l0.023 0.365c0.006 0.098 0.018 0.19 0.037 0.279 0.012 0.061 0.039 0.126 0.076 0.183 0.033 0.049 0.081 0.090 0.136 0.115 0.062 0.026 0.131 0.041 0.204 0.041 0.006 0 0.012-0 0.018-0 0.002 0 0.005 0 0.008 0 0.038 0 0.075-0.004 0.111-0.011 0.026-0.006 0.053-0.015 0.078-0.027 0.019-0.009 0.036-0.020 0.053-0.034 0.014-0.012 0.026-0.023 0.037-0.034l-0.030-0.044c-0.022 0.028-0.050 0.050-0.081 0.065zM3.592 30.377h-0.302v-1.241c0.031-0.006 0.066-0.009 0.103-0.010q0.062-0.002 0.121-0.002c0.061 0 0.121 0.007 0.178 0.021s0.11 0.043 0.154 0.084c0.052 0.052 0.092 0.116 0.114 0.187 0.029 0.094 0.046 0.198 0.046 0.306 0 0.012-0 0.023-0.001 0.035 0 0.006 0 0.016 0 0.025 0 0.099-0.011 0.195-0.032 0.287-0.014 0.064-0.043 0.128-0.083 0.184-0.032 0.042-0.076 0.076-0.127 0.096-0.050 0.018-0.105 0.029-0.163 0.029-0.002 0-0.004 0-0.007-0z"></path>
<path fill="#000" d="M6.81 31.293c-0.027 0.103-0.065 0.193-0.114 0.276s-0.114 0.158-0.191 0.219c-0.080 0.060-0.178 0.096-0.285 0.096-0.006 0-0.012-0-0.018-0l-0.62 0v-1.45h0.266c0.005-0 0.010-0 0.015-0 0.066 0 0.127 0.019 0.178 0.051 0.048 0.034 0.088 0.079 0.116 0.132 0.030 0.058 0.054 0.122 0.069 0.19q0.026 0.114 0.049 0.23h0.036v-1.249h-0.036c-0.022 0.118-0.048 0.217-0.079 0.314-0.016 0.051-0.047 0.111-0.088 0.164-0.032 0.040-0.076 0.072-0.127 0.089-0.053 0.016-0.112 0.025-0.172 0.025-0.005 0-0.010-0-0.015-0h-0.213v-1.241h0.545c0.005-0 0.010-0 0.015-0 0.077 0 0.151 0.015 0.219 0.042 0.062 0.027 0.117 0.068 0.16 0.12 0.048 0.058 0.088 0.125 0.117 0.196 0.033 0.079 0.065 0.17 0.090 0.264l0.040 0.016v-0.695h-1.879v0.056h0.365v2.748h-0.365v0.056h2.005v-0.881h-0.036c-0.011 0.089-0.027 0.169-0.049 0.246z"></path>
<path fill="#000" d="M8.718 30.502c-0.053-0.048-0.114-0.089-0.181-0.119q-0.1-0.042-0.163-0.066l-0.397-0.153c-0.069-0.026-0.125-0.051-0.179-0.079-0.048-0.025-0.098-0.059-0.142-0.1-0.045-0.042-0.082-0.093-0.108-0.149-0.028-0.063-0.044-0.133-0.044-0.207 0-0.005 0-0.010 0-0.015-0-0.006-0-0.014-0-0.022 0-0.088 0.020-0.171 0.055-0.245 0.062-0.123 0.174-0.216 0.309-0.255 0.055-0.017 0.115-0.026 0.177-0.027 0.004-0 0.008-0 0.011-0 0.087 0 0.169 0.023 0.24 0.064 0.070 0.042 0.131 0.097 0.179 0.162 0.051 0.070 0.093 0.149 0.123 0.233 0.031 0.087 0.055 0.181 0.069 0.278l0.040 0.007v-0.727h-0.046c-0.011 0.027-0.025 0.050-0.041 0.071-0.013 0.009-0.030 0.014-0.047 0.014-0.004 0-0.007-0-0.010-0.001-0.033-0-0.064-0.009-0.091-0.025l-0.099-0.054c-0.037-0.020-0.081-0.038-0.127-0.052-0.061-0.017-0.125-0.026-0.191-0.026-0.108 0-0.211 0.024-0.303 0.066-0.086 0.042-0.162 0.102-0.223 0.174-0.064 0.077-0.115 0.165-0.147 0.263-0.035 0.103-0.055 0.215-0.055 0.332 0 0.003 0 0.006 0 0.009q0 0.277 0.136 0.442t0.403 0.265l0.378 0.141c0.057 0.021 0.105 0.044 0.15 0.071 0.051 0.030 0.098 0.068 0.138 0.112 0.045 0.049 0.081 0.105 0.107 0.167 0.029 0.071 0.044 0.148 0.044 0.229 0 0.006-0 0.011-0 0.017-0.001 0.075-0.010 0.148-0.028 0.217-0.018 0.074-0.049 0.145-0.092 0.207-0.045 0.065-0.104 0.12-0.174 0.159-0.079 0.042-0.17 0.066-0.266 0.066-0.008 0-0.016-0-0.024-0-0.040 0-0.085 0-0.131-0.004-0.054-0.004-0.104-0.014-0.152-0.030-0.054-0.018-0.105-0.044-0.15-0.076-0.055-0.040-0.103-0.090-0.141-0.146-0.050-0.073-0.093-0.154-0.125-0.239-0.042-0.112-0.075-0.235-0.095-0.363l-0.038-0.011v0.864h0.049c0.007-0.024 0.018-0.046 0.032-0.065 0.014-0.015 0.034-0.024 0.057-0.024 0.003 0 0.007 0 0.010 0.001 0.048 0.002 0.093 0.014 0.134 0.033q0.073 0.031 0.139 0.055c0.027 0.010 0.061 0.021 0.096 0.029q0.052 0.011 0.098 0.019c0.029 0.005 0.063 0.009 0.097 0.010 0.036 0 0.077 0.002 0.123 0.002 0.003 0 0.007 0 0.010 0 0.123 0 0.24-0.029 0.343-0.081 0.099-0.051 0.187-0.121 0.257-0.206 0.072-0.087 0.128-0.187 0.165-0.296 0.038-0.112 0.059-0.234 0.059-0.36 0-0.002 0-0.004 0-0.006q0-0.205-0.064-0.337c-0.039-0.084-0.091-0.155-0.154-0.213z"></path>
<path fill="#000" d="M10.828 30.502c-0.053-0.048-0.114-0.089-0.181-0.119q-0.1-0.042-0.163-0.066l-0.397-0.153c-0.069-0.026-0.125-0.051-0.179-0.079-0.048-0.025-0.098-0.059-0.142-0.1-0.045-0.042-0.082-0.093-0.108-0.149-0.028-0.063-0.044-0.134-0.044-0.208 0-0.005 0-0.010 0-0.015s-0-0.013-0-0.020c0-0.089 0.020-0.173 0.056-0.248 0.062-0.123 0.174-0.216 0.309-0.255 0.055-0.017 0.115-0.026 0.177-0.027 0.004-0 0.008-0 0.011-0 0.087 0 0.169 0.023 0.24 0.064 0.070 0.042 0.131 0.097 0.179 0.162 0.051 0.070 0.093 0.149 0.123 0.233 0.031 0.087 0.055 0.181 0.069 0.278l0.041 0.007v-0.727h-0.046c-0.011 0.027-0.025 0.050-0.041 0.071-0.013 0.009-0.029 0.014-0.047 0.014-0.003 0-0.007-0-0.010-0.001-0.033-0-0.064-0.009-0.091-0.025l-0.099-0.054c-0.037-0.020-0.081-0.038-0.127-0.052-0.061-0.017-0.125-0.026-0.191-0.026-0.108 0-0.211 0.024-0.303 0.066-0.086 0.042-0.162 0.102-0.223 0.174-0.064 0.077-0.115 0.165-0.147 0.263-0.035 0.103-0.055 0.216-0.055 0.333 0 0.003 0 0.006 0 0.009q0 0.277 0.136 0.442t0.403 0.265l0.378 0.141c0.057 0.021 0.105 0.044 0.15 0.071 0.051 0.030 0.098 0.068 0.138 0.112 0.045 0.049 0.081 0.105 0.107 0.167 0.029 0.071 0.044 0.148 0.044 0.23 0 0.005-0 0.011-0 0.016-0.001 0.075-0.010 0.148-0.028 0.217-0.018 0.074-0.049 0.145-0.092 0.207-0.045 0.065-0.104 0.12-0.174 0.159-0.079 0.042-0.17 0.066-0.266 0.066-0.008 0-0.016-0-0.024-0-0.041 0-0.085 0-0.131-0.004-0.054-0.004-0.104-0.014-0.152-0.030-0.054-0.018-0.105-0.044-0.15-0.076-0.055-0.040-0.103-0.089-0.141-0.146-0.050-0.073-0.093-0.154-0.125-0.239-0.042-0.112-0.075-0.235-0.095-0.363l-0.038-0.011v0.864h0.049c0.007-0.024 0.018-0.046 0.032-0.065 0.014-0.015 0.034-0.024 0.057-0.024 0.004 0 0.007 0 0.010 0.001 0.048 0.002 0.093 0.014 0.134 0.033q0.074 0.031 0.139 0.055c0.027 0.010 0.061 0.021 0.096 0.029q0.052 0.011 0.098 0.019c0.029 0.005 0.063 0.009 0.097 0.010 0.036 0 0.077 0.002 0.123 0.002 0.003 0 0.007 0 0.010 0 0.123 0 0.24-0.029 0.342-0.081 0.099-0.051 0.187-0.121 0.258-0.206 0.072-0.087 0.128-0.187 0.165-0.296 0.038-0.112 0.059-0.234 0.059-0.36 0-0.002 0-0.004 0-0.006q0-0.205-0.064-0.337c-0.040-0.084-0.093-0.155-0.157-0.213z"></path>
<path fill="#000" d="M13.934 31.391c-0.025 0.105-0.063 0.197-0.114 0.282-0.046 0.077-0.111 0.143-0.188 0.193q-0.122 0.078-0.318 0.078c-0.002 0-0.005 0-0.007 0-0.099 0-0.192-0.024-0.274-0.066q-0.122-0.062-0.211-0.224t-0.139-0.438c-0.032-0.192-0.050-0.412-0.050-0.637 0-0.022 0-0.043 0.001-0.065q-0-0.145 0.007-0.312t0.031-0.329c0.017-0.118 0.041-0.223 0.072-0.324 0.026-0.084 0.067-0.169 0.119-0.246 0.047-0.069 0.11-0.128 0.182-0.172 0.075-0.043 0.161-0.068 0.254-0.068 0.005 0 0.010 0 0.014 0s0.011-0 0.018-0c0.096 0 0.186 0.026 0.263 0.072 0.073 0.047 0.135 0.109 0.181 0.182 0.049 0.078 0.088 0.166 0.114 0.259q0.043 0.155 0.069 0.308h0.032v-0.803h-0.044c-0.014 0.022-0.029 0.041-0.045 0.058-0.019 0.017-0.045 0.027-0.072 0.027-0.004 0-0.008-0-0.011-0.001-0.033-0.001-0.064-0.009-0.091-0.025-0.030-0.016-0.064-0.034-0.101-0.054-0.035-0.019-0.077-0.037-0.12-0.051-0.051-0.017-0.104-0.026-0.158-0.026-0.003 0-0.006 0-0.009 0-0.001 0-0.002-0-0.004-0-0.153 0-0.295 0.046-0.414 0.124-0.13 0.086-0.24 0.197-0.325 0.325-0.095 0.143-0.17 0.303-0.219 0.474-0.053 0.182-0.082 0.377-0.082 0.579 0 0.003 0 0.006 0 0.008-0 0.011-0 0.025-0 0.039 0 0.394 0.126 0.758 0.34 1.055q0.151 0.203 0.325 0.296c0.103 0.058 0.226 0.092 0.358 0.092 0.002 0 0.005 0 0.007 0 0.062 0 0.122-0.008 0.179-0.023 0.054-0.015 0.103-0.032 0.15-0.052l0.11-0.047c0.028-0.013 0.060-0.021 0.095-0.022 0.003-0 0.006-0 0.009-0 0.028 0 0.053 0.010 0.073 0.027 0.017 0.017 0.032 0.036 0.046 0.057l0.045 0.001v-0.856h-0.032q-0.027 0.151-0.065 0.305z"></path>
<path fill="#000" d="M16.025 29.437c-0.088-0.126-0.196-0.231-0.321-0.313-0.11-0.073-0.24-0.116-0.379-0.117-0.136 0.003-0.261 0.045-0.365 0.116-0.127 0.083-0.235 0.188-0.321 0.31-0.099 0.14-0.18 0.297-0.236 0.465-0.062 0.185-0.096 0.383-0.096 0.59 0 0.006 0 0.012 0 0.018 0 0.001 0 0.002 0 0.004 0 0.198 0.028 0.389 0.080 0.57 0.046 0.167 0.118 0.326 0.212 0.47 0.082 0.126 0.189 0.236 0.315 0.322 0.117 0.081 0.257 0.127 0.408 0.127 0.001 0 0.001 0 0.002 0 0.15-0 0.288-0.049 0.401-0.13 0.127-0.090 0.234-0.202 0.318-0.331 0.093-0.142 0.167-0.301 0.216-0.47 0.053-0.177 0.082-0.367 0.082-0.563 0-0 0-0 0-0 0-0.005 0-0.011 0-0.018 0-0.206-0.032-0.404-0.090-0.591-0.052-0.167-0.13-0.324-0.23-0.465zM15.97 31.136c-0.018 0.166-0.060 0.319-0.121 0.46-0.042 0.1-0.115 0.191-0.206 0.258-0.092 0.057-0.202 0.089-0.319 0.089s-0.227-0.033-0.32-0.090c-0.090-0.067-0.162-0.158-0.206-0.264-0.059-0.135-0.1-0.288-0.118-0.447-0.023-0.184-0.036-0.388-0.036-0.596 0-0.015 0-0.030 0-0.045-0 0-0-0.002-0-0.004 0-0.187 0.010-0.371 0.028-0.553 0.014-0.148 0.049-0.304 0.103-0.453 0.040-0.114 0.111-0.223 0.203-0.31q0.133-0.121 0.347-0.121t0.346 0.121c0.092 0.087 0.163 0.196 0.206 0.318 0.051 0.141 0.087 0.297 0.102 0.46 0.017 0.166 0.027 0.351 0.027 0.537 0 0.002 0 0.004 0 0.007 0 0.010 0 0.022 0 0.034 0 0.21-0.013 0.417-0.039 0.621z"></path>
<path fill="#000" d="M18.461 29.686c-0.057-0.12-0.128-0.223-0.214-0.312s-0.188-0.16-0.302-0.212c-0.036-0.017-0.074-0.033-0.113-0.046s-0.078-0.023-0.118-0.030c-0.041-0.007-0.085-0.012-0.13-0.015-0.049-0.003-0.101-0.004-0.16-0.004-0.026 0-0.055 0-0.082 0.002s-0.055 0.002-0.082 0.002-0.055 0.005-0.082 0.006-0.055 0.002-0.082 0.002h-0.544v0.056h0.325v2.748h-0.324v0.056h0.497q0.044 0 0.092 0.002c0.032 0 0.065 0.003 0.098 0.006s0.066 0.005 0.099 0.006 0.064 0.002 0.093 0.002c0.068 0 0.129 0 0.181-0.004 0.053-0.002 0.103-0.008 0.152-0.017 0.042-0.008 0.085-0.021 0.127-0.037 0.046-0.019 0.090-0.042 0.13-0.068 0.087-0.051 0.164-0.114 0.23-0.187 0.075-0.082 0.139-0.175 0.189-0.275 0.057-0.114 0.101-0.239 0.13-0.37 0.032-0.147 0.049-0.303 0.049-0.463 0-0.009-0-0.017-0-0.025 0-0.001 0-0.004 0-0.007 0-0.152-0.014-0.3-0.042-0.444-0.024-0.131-0.066-0.26-0.123-0.381zM18.25 31.022c-0.027 0.167-0.073 0.316-0.135 0.456-0.032 0.075-0.078 0.15-0.135 0.216-0.087 0.101-0.21 0.171-0.35 0.191-0.062 0.009-0.131 0.014-0.2 0.014-0 0-0 0-0 0q-0.079 0-0.145-0.004t-0.115-0.012v-2.748l0.115-0.008c0.040-0.003 0.084-0.004 0.132-0.004q0.245 0 0.412 0.101c0.113 0.070 0.204 0.166 0.265 0.279 0.071 0.132 0.121 0.281 0.145 0.438 0.029 0.173 0.045 0.364 0.045 0.559 0 0.009-0 0.018-0 0.027 0 0.005 0 0.013 0 0.020 0 0.167-0.013 0.332-0.038 0.492z"></path>
<path fill="#000" d="M20.612 31.059c-0.010 0.090-0.024 0.169-0.043 0.246-0.021 0.090-0.055 0.18-0.1 0.265-0.042 0.081-0.1 0.156-0.17 0.218-0.068 0.059-0.157 0.095-0.255 0.095-0.005 0-0.009-0-0.014-0l-0.551 0v-1.45h0.237c0.004-0 0.008-0 0.013-0 0.059 0 0.114 0.019 0.159 0.051 0.044 0.035 0.080 0.080 0.104 0.132 0.027 0.058 0.048 0.122 0.061 0.19q0.023 0.114 0.043 0.23h0.032v-1.249h-0.032c-0.020 0.119-0.043 0.218-0.071 0.316-0.013 0.049-0.041 0.109-0.078 0.163-0.027 0.039-0.066 0.070-0.112 0.088-0.047 0.016-0.099 0.025-0.153 0.025-0.004 0-0.008-0-0.012-0h-0.189v-1.241h0.485c0.004-0 0.008-0 0.013-0 0.069 0 0.135 0.015 0.195 0.042 0.056 0.028 0.105 0.069 0.142 0.12 0.043 0.059 0.079 0.125 0.105 0.196 0.029 0.078 0.057 0.17 0.080 0.264l0.036 0.017v-0.695h-1.672v0.056h0.324v2.748h-0.324v0.056h1.782v-0.881h-0.032z"></path>
<path fill="#000" d="M17.416 3.371l-3.371-3.371h-7.085l-3.371 3.371v18.395l3.136 3.136h7.555l3.136-3.136v-18.395zM17.351 21.74l-3.098 3.098h-7.502l-3.098-3.098v-18.342l3.335-3.335h7.030l3.335 3.335v18.342z"></path>
<path fill="#000" d="M13.905 0.338h-6.805l-3.174 3.173v18.115l2.938 2.938h7.276l2.938-2.938v-18.115l-3.136-3.135zM16.821 21.52l-2.788 2.788h-7.062l-2.788-2.788v-17.903l3.023-3.023h6.592l3.023 3.023v17.902z"></path>
</svg>
