<?xml version="1.0" encoding="utf-8"?>
<!-- Generated by IcoMoon.io -->
<!DOCTYPE svg PUBLIC "-//W3C//DTD SVG 1.1//EN" "http://www.w3.org/Graphics/SVG/1.1/DTD/svg11.dtd">
<svg version="1.1" xmlns="http://www.w3.org/2000/svg" xmlns:xlink="http://www.w3.org/1999/xlink" width="31" height="32" viewBox="0 0 31 32">
<path fill="#000" d="M10.545 9.795c-0.059-0.062-0.143-0.1-0.235-0.1-0.088 0-0.168 0.035-0.227 0.092l-0.83 0.827c-0.057 0.059-0.092 0.14-0.092 0.228 0 0.093 0.038 0.176 0.1 0.236l5.61 5.816c0.059 0.062 0.143 0.1 0.235 0.1 0.088 0 0.168-0.035 0.227-0.092l10.859-13.344c0.060-0.057 0.098-0.138 0.098-0.228s-0.037-0.17-0.097-0.228l-0.456-0.351c-0.057-0.060-0.138-0.098-0.227-0.098s-0.17 0.038-0.227 0.098l-10.241 11.378zM31.071 11.742c0.001-0.012 0.001-0.026 0.001-0.040 0-0.289-0.148-0.544-0.372-0.692-0.123-0.121-0.266-0.254-0.425-0.387-0.28-0.242-0.664-0.558-1.154-0.939-0.817-0.643-1.644-1.263-1.652-1.269-0.14-0.11-0.32-0.177-0.514-0.177-0.462 0-0.837 0.375-0.837 0.837 0 0.278 0.135 0.524 0.343 0.676 0.855 0.64 1.809 1.383 2.434 1.896l-13.359 9.609-13.398-9.645c0.783-0.672 2.634-2.118 6.95-5.209 2.717-1.947 5.386-3.808 6.448-4.542l3.744 2.625c0.136 0.1 0.307 0.16 0.492 0.16 0.462 0 0.837-0.375 0.837-0.837 0-0.287-0.145-0.54-0.365-0.691l-4.228-2.966c-0.134-0.094-0.3-0.15-0.479-0.15s-0.345 0.056-0.481 0.152c-0.034 0.023-3.715 2.575-7.359 5.19-2.14 1.535-3.847 2.794-5.075 3.738-0.737 0.568-1.312 1.032-1.705 1.376-0.232 0.194-0.44 0.398-0.63 0.617-0.178 0.159-0.287 0.381-0.287 0.629 0 0.015 0 0.029 0.001 0.044-0 0.010-0 0.021-0 0.033v18c0.002 1.226 0.996 2.22 2.223 2.221h26.623c1.227-0.001 2.222-0.995 2.224-2.221v-18.004c0-0.011 0-0.021 0-0.033zM28.848 30.331h-26.624c-0.303-0.001-0.549-0.246-0.55-0.55v-16.444l13.372 9.627c0.136 0.099 0.306 0.158 0.489 0.158s0.354-0.059 0.492-0.159l13.37-9.625v16.441c-0.001 0.304-0.247 0.55-0.551 0.55 0 0 0 0 0 0v0z"></path>
</svg>
