<?xml version="1.0" encoding="utf-8"?>
<!-- Generated by IcoMoon.io -->
<!DOCTYPE svg PUBLIC "-//W3C//DTD SVG 1.1//EN" "http://www.w3.org/Graphics/SVG/1.1/DTD/svg11.dtd">
<svg version="1.1" xmlns="http://www.w3.org/2000/svg" xmlns:xlink="http://www.w3.org/1999/xlink" width="28" height="32" viewBox="0 0 28 32">
<path fill="#000" d="M22.713 9.32c-0.206 0-0.35-2.502-0.609-3.576-0.704-2.88-2.378-4.938-5.25-5.444-0.771-0.154-1.678-0.262-2.603-0.299-0.995 0.037-1.902 0.145-2.785 0.318-2.768 0.504-4.434 2.545-5.138 5.425-0.263 1.074-0.411 3.576-0.609 3.576h-5.719v0.148c0 5.645 0.214 11.291 0.218 16.94 0 3.292 2.415 5.588 5.596 5.592h16.809c3.185 0 5.596-2.284 5.596-5.592 0-5.645 0.218-11.291 0.218-16.94v-0.148h-5.724zM9.999 5.617c0.486-1.045 1.317-1.839 2.329-1.946 0.397-0.038 0.858-0.060 1.325-0.060 0.198 0 0.396 0.004 0.592 0.012 0.101-0.005 0.254-0.007 0.406-0.007 0.512 0 1.018 0.026 1.517 0.077 0.95 0.098 1.781 0.896 2.266 1.941s0.7 3.703 0.765 3.703h-9.97c0.049-0.016 0.259-2.617 0.765-3.707zM22.581 28.453c-2.88-0.025-5.617-0.033-8.365-0.029s-5.497 0-8.365 0.029c-0.009 0-0.019 0-0.029 0-1.032 0-1.872-0.827-1.892-1.854 0.053-4.528 0.021-8.906 0.025-13.416 0-0.177 0 1.481 0.025-0.3h20.466c0 1.782 0.025 0.119 0.025 0.3 0 4.526-0.029 8.904 0.025 13.414-0.021 1.029-0.86 1.856-1.892 1.856-0.007 0-0.015-0-0.022-0z"></path>
</svg>
