<svg id="分離模式" xmlns="http://www.w3.org/2000/svg" viewBox="0 0 2441.56 1531.79"><defs><style>.cls-1{fill:#040000;}</style></defs><title>about_logo</title><path class="cls-1" d="M3606.42,1318.11c5.23-52.37,11.25-73.48,11.25-73.48l-11.36,1.2a7.88,7.88,0,0,0-2.84.3l-0.2,0v0c-8.56,2.47-22.66,16.1-28.26,26.42-6.62,12.19-4.5,27,5.73,37.19a47.36,47.36,0,0,0,14.13,10.18c-3.32,42.81-6.21,105-5.5,188.62-20.74,25-41.93,50-62.89,74.89q-9.84,11.69-19.7,23.37-10.63,12.59-21.3,25.14-27.75,32.66-55.52,65.29c-7.73,9.11-15.27,18.45-23.15,27.45,10.14-10.87,21-21.15,31.11-32,13.09-14,26.27-27.92,39.08-42.17,26-28.94,51.38-58.53,77.14-87.71q17.82-20.18,35.37-40.59c1,77.19,5,171.73,14.4,285.08,4.84-4.92,3.88-.56,7.45-4.19-8.81-119-12.2-215-12.51-291.76q8.19-9.58,16.33-19.2c6.2-7.76,12.82-15.21,19.18-22.83q11.32-13.56,22.53-27.21c7.76-9.45,15.51-18.92,23.14-28.47,8.07-10,16.69-21.52,24.85-31.48,15.19-18.52,33-47.47,6-64.34-20.68-12.93-45.06-6.1-66.88-1.72C3632.15,1318.52,3618.59,1320.54,3606.42,1318.11Zm-17.57-8.1c-8.29-6.91-14.77-17-10.85-27.93,3.31-9.24,11.51-15.56,19.23-20.92,0.66-.46,2.28-1.54,4.12-2.94-1.57,10.94-3.86,29.44-6,56.06A35.66,35.66,0,0,1,3588.85,1310Zm108.92,12.54c20.38,6.6,15.49,23.59,10.39,34.76-5.78,12.68-15.84,24.07-24.24,35.05-22.52,29.44-46.24,58-69.91,86.49l-15.2,18.33c0.06-77.51,3.32-134.16,7.1-173.93a83.36,83.36,0,0,0,10,1.08c10.06,0.52,20-1,30-2.14C3662.75,1320.31,3681.11,1317.16,3697.77,1322.55Z" transform="translate(-2345.05 -1106.16)"/><path class="cls-1" d="M3565.83,1724.73" transform="translate(-2345.05 -1106.16)"/><path class="cls-1" d="M3792.15,1216.51l-110.36-110.36H3449.86l-110.36,110.36v602.2l102.66,102.67h247.32l102.66-102.67v-602.2Zm-2.1,601.33-101.43,101.43H3443l-101.43-101.43V1217.38l109.13-109.13h230.19L3790,1217.38v600.46Z" transform="translate(-2345.05 -1106.16)"/><path class="cls-1" d="M3677.21,1117.22H3454.45l-102.64,102.65-1.23,1.23v593l94.95,94.95,1.23,1.23H3684.9l94.95-95,1.23-1.23v-593l-102.64-102.64Zm95.47,693.43-91.26,91.26H3450.24L3359,1810.65V1224.58l99-99h215.79l99,99v586.07Z" transform="translate(-2345.05 -1106.16)"/><path class="cls-1" d="M2345,2624.17h43.15v-325H2345v-6.65h72.3q5.44,0,10.88-.24t10.88-.71q5.44,0,10.88-.24t10.89-.24q11.66,0,20.8.48t17.1,1.66a110.56,110.56,0,0,1,15.16,3.33q7.19,2.14,15.36,5.46a133.08,133.08,0,0,1,41,25.42,136.74,136.74,0,0,1,28.38,36.82,174.27,174.27,0,0,1,16.33,45.61,248.73,248.73,0,0,1,5.25,51.79q0,31.36-6.22,56.3a175.91,175.91,0,0,1-17.1,44.19,144.2,144.2,0,0,1-25.46,33.26,131.67,131.67,0,0,1-31.29,22.57,107.17,107.17,0,0,1-17.69,8.08,105.58,105.58,0,0,1-17.1,4.28,168,168,0,0,1-19.24,1.9q-10.49.47-24.1,0.47-5.83,0-12.44-.24t-13.22-.71q-6.61-.48-13-0.71t-12.24-.24H2345v-6.65Zm82,0q6.6,1,15.35,1.43t19.24,0.47a206,206,0,0,0,26.24-1.66,84.67,84.67,0,0,0,24.88-7.13,77.55,77.55,0,0,0,22.16-15.68q10.3-10.21,18.46-26.84a202.88,202.88,0,0,0,17.3-52.5,330.18,330.18,0,0,0,4.86-58.68q0-37.53-5.83-68.18t-19.24-52.26a92.87,92.87,0,0,0-35.57-33.5q-22.16-11.87-54.81-11.88-9.72,0-17.69.48t-15.35.95v325Z" transform="translate(-2345.05 -1106.16)"/><path class="cls-1" d="M2652.14,2624.17h43.15v-325h-43.15v-6.65H2726c3.11,0,6.22-.07,9.33-0.24s6.22-.39,9.33-0.71q4.67,0,9.33-.24t9.33-.24a235,235,0,0,1,40.43,3.09q17.49,3.1,32.65,17.82a72.47,72.47,0,0,1,19.24,29,92.62,92.62,0,0,1,5.64,30.41,101.67,101.67,0,0,1-2.14,18.29,67.93,67.93,0,0,1-9.33,22.81q-7.2,11.65-20.8,21.38T2792.86,2447v0.95q6.21,1,16.91,3.56a87.86,87.86,0,0,1,21.77,8.79,81.32,81.32,0,0,1,20.41,16.39q9.33,10.22,13.22,26.37a137.58,137.58,0,0,1,3.31,21.62q1,12.12,1.55,24.94t1.17,24.71a145.13,145.13,0,0,0,2.14,20,83.27,83.27,0,0,0,7.39,22.33q5,10,16.33,10a26.39,26.39,0,0,0,20.21-10l3.5,5.23q-2,1.9-4.47,4a31,31,0,0,1-6.41,4,41.58,41.58,0,0,1-9.52,3.09,68.51,68.51,0,0,1-13.8,1.19q-15.55,0-25.85-4.75a39.28,39.28,0,0,1-16.52-14q-6.22-9.27-9.13-22.81A218.4,218.4,0,0,1,2831,2561l-2.72-43.24q-1.56-23.75-7.77-37.06t-14.58-19.48a37.35,37.35,0,0,0-17.3-7.36,121.1,121.1,0,0,0-15.55-1.19h-38.87v171.52h43.15v6.65H2652.14v-6.65Zm82-178.17h35.76a56.45,56.45,0,0,0,19.83-3.33A34.36,34.36,0,0,0,2805.1,2431q6.41-8.31,9.91-22.57t3.5-36.11q0-24.7-5.25-39.67t-13.61-22.57a41.3,41.3,0,0,0-18.66-10,90.72,90.72,0,0,0-20.41-2.38q-7,0-14.19.24a83.08,83.08,0,0,0-12.24,1.19V2446Z" transform="translate(-2345.05 -1106.16)"/><path class="cls-1" d="M2923.07,2624.17h43.15v-325h-43.15v-6.65h222.35v82.2h-4.28a271.12,271.12,0,0,0-10.88-32.55,91.37,91.37,0,0,0-14-23.76,51,51,0,0,0-19.44-14.49q-11.28-4.74-27.21-4.75h-64.53V2446h25.27q12.83,0,21.77-2.85a32.31,32.31,0,0,0,15.36-10.69q6.41-7.84,10.88-21.38a308.2,308.2,0,0,0,8.75-34.92h4.28v147.76h-4.28q-2.72-13.77-5.64-26.61a93.18,93.18,0,0,0-8.16-22.81,43.11,43.11,0,0,0-14-15.92q-8.75-5.94-22.74-5.94h-31.49v171.52h73.47q21.37,0,35.57-11.17a92.67,92.67,0,0,0,23.13-26.61,126.92,126.92,0,0,0,13.22-32.07,200.51,200.51,0,0,0,5.44-27.56h4.28v104H2923.07v-6.65Z" transform="translate(-2345.05 -1106.16)"/><path class="cls-1" d="M3204.51,2528.67h4.28q4.27,25.66,11.08,43.24t15,29q8.16,11.4,17.1,17.58a66.86,66.86,0,0,0,18.08,9,72.29,72.29,0,0,0,17.49,3.33q8.35,0.47,15.74.47,20.6,0,33.82-7.6a61.7,61.7,0,0,0,21-19.24,75.42,75.42,0,0,0,10.88-25.18,112.16,112.16,0,0,0,3.11-24.94q0-16.62-5.05-28.51a68.64,68.64,0,0,0-12.83-20.19,72.74,72.74,0,0,0-16.91-13.54A104.92,104.92,0,0,0,3320,2484l-44.7-16.63q-31.49-11.87-47.62-31.36t-16.13-52.26a122.45,122.45,0,0,1,6.22-39.67,96.1,96.1,0,0,1,17.49-31.6,81.52,81.52,0,0,1,27-20.9,78.13,78.13,0,0,1,34.4-7.6q13.6,0,22.74,2.85a89.63,89.63,0,0,1,15.74,6.41l11.86,6.41a22.14,22.14,0,0,0,10.69,2.85c3.37,0,5.64-.55,6.8-1.66s2.78-3.87,4.86-8.31h5.44v86h-4.67a166,166,0,0,0-8-33,107.22,107.22,0,0,0-14.58-28A71.31,71.31,0,0,0,3326,2298q-12.64-7.36-29.35-7.36a78.64,78.64,0,0,0-20.6,3.09,59,59,0,0,0-37.12,30.64q-6.41,12.36-6.41,31.36,0,15.21,5.05,25.89a57.85,57.85,0,0,0,13,18.05,77.31,77.31,0,0,0,17.88,12.35,204.21,204.21,0,0,0,20,8.79l47,18.05q7.38,2.85,18.66,7.6a80.32,80.32,0,0,1,22,14.25q10.69,9.51,18.27,25.18t7.58,39.91a132.36,132.36,0,0,1-6.8,42.52,110.18,110.18,0,0,1-19.63,35.63,97,97,0,0,1-31.1,24.71q-18.28,9.26-41.21,9.26-8.16,0-14.38-.24a88.5,88.5,0,0,1-11.66-1.19q-5.45-1-10.88-2.14a97.9,97.9,0,0,1-12.05-3.56q-7.78-2.85-16.72-6.65t-15.55-3.8q-5.83,0-8,2.85a26.26,26.26,0,0,0-3.69,7.6h-5.83V2528.67Z" transform="translate(-2345.05 -1106.16)"/><path class="cls-1" d="M3454.07,2528.67h4.28q4.27,25.66,11.08,43.24t15,29q8.16,11.4,17.1,17.58a66.86,66.86,0,0,0,18.08,9,72.29,72.29,0,0,0,17.49,3.33q8.35,0.47,15.74.47,20.6,0,33.82-7.6a61.7,61.7,0,0,0,21-19.24,75.42,75.42,0,0,0,10.88-25.18,112.17,112.17,0,0,0,3.11-24.94q0-16.62-5.05-28.51a68.64,68.64,0,0,0-12.83-20.19,72.74,72.74,0,0,0-16.91-13.54,104.92,104.92,0,0,0-17.3-8.08l-44.7-16.63q-31.49-11.87-47.62-31.36t-16.13-52.26a122.44,122.44,0,0,1,6.22-39.67,96.1,96.1,0,0,1,17.49-31.6,81.52,81.52,0,0,1,27-20.9,78.13,78.13,0,0,1,34.4-7.6q13.6,0,22.74,2.85a89.62,89.62,0,0,1,15.74,6.41l11.86,6.41a22.13,22.13,0,0,0,10.69,2.85c3.37,0,5.64-.55,6.8-1.66s2.78-3.87,4.86-8.31h5.44v86h-4.67a166,166,0,0,0-8-33,107.22,107.22,0,0,0-14.58-28,71.32,71.32,0,0,0-21.57-19.48q-12.64-7.36-29.35-7.36a78.64,78.64,0,0,0-20.6,3.09,59,59,0,0,0-37.12,30.64q-6.41,12.36-6.41,31.36,0,15.21,5.05,25.89a57.85,57.85,0,0,0,13,18.05A77.31,77.31,0,0,0,3518,2412a204.22,204.22,0,0,0,20,8.79l47,18.05q7.38,2.85,18.66,7.6a80.31,80.31,0,0,1,22,14.25q10.69,9.51,18.27,25.18t7.58,39.91a132.35,132.35,0,0,1-6.8,42.52,110.18,110.18,0,0,1-19.63,35.63,97,97,0,0,1-31.1,24.71q-18.28,9.26-41.21,9.26-8.16,0-14.38-.24a88.5,88.5,0,0,1-11.66-1.19q-5.45-1-10.88-2.14a97.92,97.92,0,0,1-12.05-3.56q-7.78-2.85-16.72-6.65t-15.55-3.8q-5.83,0-8,2.85a26.26,26.26,0,0,0-3.69,7.6h-5.83V2528.67Z" transform="translate(-2345.05 -1106.16)"/><path class="cls-1" d="M4004.68,2630.82h-5.18a40.13,40.13,0,0,0-5.53-6.89q-3.11-3.08-9.68-3.09a28.54,28.54,0,0,0-11.23,2.61q-6,2.62-13.82,5.94a133.24,133.24,0,0,1-17.45,5.94,82.35,82.35,0,0,1-21.42,2.61A89.16,89.16,0,0,1,3878,2627q-20.56-10.92-38.87-35.63-16.93-23.27-28.33-55.11t-11.4-73.64a243.74,243.74,0,0,1,9.33-67.94q9.33-32.3,25.92-57t39-39.2a88.71,88.71,0,0,1,49.07-14.49,58.37,58.37,0,0,1,19,2.85,97.78,97.78,0,0,1,14.86,6.41q6.56,3.56,12.09,6.41a23.29,23.29,0,0,0,10.71,2.85q6.91,0,9.85-3.09a45.13,45.13,0,0,0,5.36-6.89h5.18v95H3996q-3.11-18.05-7.95-35.63a113.74,113.74,0,0,0-13.48-31.12,69.52,69.52,0,0,0-21.94-21.85q-13.31-8.31-33-8.31-18.32,0-31.44,7.84a70.47,70.47,0,0,0-22.11,20.9,111.16,111.16,0,0,0-14.34,30.41,238.39,238.39,0,0,0-8.12,36.58q-2.77,19.24-3.63,39t-0.86,37.3q0,49.89,5.87,82.67t16.41,51.79q10.53,19,25.4,26.61a71,71,0,0,0,32.83,7.6q23.15,0,37.32-9a70,70,0,0,0,22.81-23.52,119.19,119.19,0,0,0,13.13-32.78q4.49-18.28,7.95-36.35h3.8v101.2Z" transform="translate(-2345.05 -1106.16)"/><path class="cls-1" d="M4037.15,2461.2q0-38,10.89-70.32t28-56.06q17.1-23.75,38.53-37.3T4157.4,2284q22.81,0,44.4,13.54t38.53,37.3q16.93,23.76,27.13,56.06t10.19,70.32a230.22,230.22,0,0,1-9.33,65.09q-9.33,31.84-25.57,56.54t-38.18,39.91q-21.95,15.2-47.17,15.2a85,85,0,0,1-48-14.73q-22.12-14.72-38.18-39.2t-25.05-56.54A244.35,244.35,0,0,1,4037.15,2461.2Zm39.74,0q0,42.76,4.15,74.59t13.82,53.21q9.67,21.38,24.88,31.83t37.66,10.45q22.11,0,37.49-10.45t25.05-31.83q9.67-21.38,13.82-53.21t4.15-74.59a628.43,628.43,0,0,0-3.11-63.43q-3.11-30.64-11.92-54.64t-24.53-38.25q-15.73-14.25-40.95-14.25t-40.95,14.25q-15.73,14.25-24.53,38.25T4080,2397.78A628,628,0,0,0,4076.89,2461.2Z" transform="translate(-2345.05 -1106.16)"/><path class="cls-1" d="M4302.87,2624.17h38.35v-325h-38.35v-6.65h64.27q4.83,0,9.68-.24t9.68-.71q4.83,0,9.68-.24t9.68-.24q10.36,0,18.48.48a144.18,144.18,0,0,1,15.2,1.66,89,89,0,0,1,13.48,3.33,139.09,139.09,0,0,1,13.65,5.46,117.11,117.11,0,0,1,36.45,25.42,136.05,136.05,0,0,1,25.22,36.82,188.84,188.84,0,0,1,14.51,45.61,278.79,278.79,0,0,1,4.66,51.79q0,31.36-5.53,56.3a189.75,189.75,0,0,1-15.2,44.19,143.65,143.65,0,0,1-22.63,33.26,118.49,118.49,0,0,1-27.82,22.57,90.51,90.51,0,0,1-15.72,8.08,85.41,85.41,0,0,1-15.2,4.28,133.29,133.29,0,0,1-17.1,1.9q-9.33.47-21.42,0.47-5.18,0-11.06-.24t-11.75-.71q-5.88-.48-11.58-0.71t-10.88-.24h-58.74v-6.65Zm72.91,0a137.15,137.15,0,0,0,13.65,1.43q7.77,0.48,17.1.47a163,163,0,0,0,23.32-1.66,67.49,67.49,0,0,0,41.81-22.81q9.15-10.21,16.41-26.84a221,221,0,0,0,15.38-52.5,370.48,370.48,0,0,0,4.32-58.68q0-37.53-5.18-68.18t-17.1-52.26q-11.92-21.62-31.62-33.5t-48.72-11.88q-8.64,0-15.72.48t-13.65.95v325Z" transform="translate(-2345.05 -1106.16)"/><path class="cls-1" d="M4575.83,2624.17h38.35v-325h-38.35v-6.65h197.65v82.2h-3.8a295.54,295.54,0,0,0-9.68-32.55,94.48,94.48,0,0,0-12.44-23.76,46.17,46.17,0,0,0-17.28-14.49q-10-4.74-24.19-4.75h-57.36V2446h22.46q11.4,0,19.35-2.85a28.93,28.93,0,0,0,13.65-10.69q5.7-7.84,9.68-21.38a340.09,340.09,0,0,0,7.77-34.92h3.8v147.76h-3.8q-2.42-13.77-5-26.61a101.05,101.05,0,0,0-7.26-22.81,41.94,41.94,0,0,0-12.44-15.92q-7.77-5.94-20.21-5.94h-28v171.52H4714q19,0,31.62-11.17a90.4,90.4,0,0,0,20.56-26.61,136.15,136.15,0,0,0,11.75-32.07,223,223,0,0,0,4.84-27.56h3.8v104H4575.83v-6.65Z" transform="translate(-2345.05 -1106.16)"/></svg>