<!-- Generated by IcoMoon.io -->
<svg version="1.1" xmlns="http://www.w3.org/2000/svg" width="32" height="32" viewBox="0 0 32 32">
<title>arrow2-left</title>
<path d="M16 0c8.837 0 16 7.163 16 16s-7.163 16-16 16c-8.837 0-16-7.163-16-16v0c0-8.837 7.163-16 16-16v0zM16 0.744c-8.426 0-15.256 6.83-15.256 15.256s6.83 15.256 15.256 15.256c8.426 0 15.256-6.83 15.256-15.256v0c0-8.426-6.83-15.256-15.256-15.256v0z"></path>
<path d="M17.176 8.153c0.001 0 0.001 0 0.002 0 0.206 0 0.372 0.167 0.372 0.372 0 0.105-0.044 0.2-0.114 0.268l-0 0-7.207 7.207 7.207 7.207c0.070 0.068 0.114 0.163 0.114 0.268 0 0.206-0.167 0.372-0.372 0.372-0.101 0-0.192-0.040-0.259-0.105l-7.479-7.479c-0.067-0.067-0.108-0.16-0.108-0.262s0.041-0.195 0.108-0.262l7.472-7.472c0.067-0.070 0.16-0.114 0.264-0.115h0z"></path>
</svg>
