<!-- Generated by IcoMoon.io -->
<svg version="1.1" xmlns="http://www.w3.org/2000/svg" width="32" height="32" viewBox="0 0 32 32">
<title>arrow-left</title>
<path d="M0 16c0-8.837 7.163-16 16-16s16 7.163 16 16c0 8.837-7.163 16-16 16v0c-8.837 0-16-7.163-16-16v0zM0.744 16c0 8.426 6.83 15.256 15.256 15.256s15.256-6.83 15.256-15.256c0-8.426-6.83-15.256-15.256-15.256v0c-8.426 0-15.256 6.83-15.256 15.256v0z"></path>
<path d="M6.288 15.963c0.013-0.087 0.055-0.163 0.115-0.219l0-0 6.381-6.396c0.068-0.070 0.163-0.113 0.268-0.113 0.207 0 0.375 0.168 0.375 0.375 0 0.102-0.041 0.195-0.107 0.262l0-0-5.767 5.756h17.779c0.206 0 0.372 0.167 0.372 0.372s-0.167 0.372-0.372 0.372v0h-17.779l5.767 5.753c0.067 0.068 0.109 0.161 0.109 0.264 0 0.207-0.168 0.375-0.375 0.375-0.104 0-0.198-0.042-0.266-0.111l-6.385-6.389c-0.070-0.067-0.114-0.16-0.115-0.264v-0s0-0.022 0-0.034z"></path>
</svg>
