<!-- Generated by IcoMoon.io -->
<svg version="1.1" xmlns="http://www.w3.org/2000/svg" width="16" height="32" viewBox="0 0 16 32">
<title>facebook</title>
<path d="M0.51 17.039h3.468v14.426c0 0 0 0.001 0 0.002 0 0.283 0.229 0.512 0.511 0.513h5.881c0.282-0.002 0.51-0.231 0.51-0.513 0-0.001 0-0.001 0-0.002v0-14.359h3.994c0.262-0.001 0.478-0.2 0.506-0.455l0-0.002 0.596-5.31c0.002-0.018 0.004-0.039 0.004-0.061 0-0.283-0.228-0.512-0.51-0.514h-4.59v-3.326c-0.006-0.047-0.009-0.101-0.009-0.155 0-0.76 0.616-1.375 1.375-1.375 0.082 0 0.161 0.007 0.239 0.021l-0.008-0.001h3.003c0.282-0.002 0.51-0.231 0.51-0.513 0-0.001 0-0.002 0-0.003v0-4.876c0-0.001 0-0.002 0-0.003 0-0.282-0.228-0.51-0.51-0.511h-4.138c-0.030 0-0.094 0-0.19 0-1.994 0.009-3.811 0.757-5.194 1.983l0.008-0.007c-1.143 1.018-1.859 2.494-1.859 4.137 0 0.263 0.018 0.521 0.054 0.775l-0.003-0.029v3.893h-3.641c-0.282 0.002-0.51 0.231-0.51 0.513 0 0.001 0 0.002 0 0.003v-0 5.243c0.003 0.277 0.225 0.502 0.501 0.508h0.001z"></path>
</svg>
