<!-- Generated by IcoMoon.io -->
<svg version="1.1" xmlns="http://www.w3.org/2000/svg" width="32" height="32" viewBox="0 0 32 32">
<title>more</title>
<path d="M32 16c0-8.837-7.163-16-16-16s-16 7.163-16 16c0 8.837 7.163 16 16 16v0c8.837 0 16-7.163 16-16v0zM31.256 16c0 8.426-6.83 15.256-15.256 15.256s-15.256-6.83-15.256-15.256c0-8.426 6.83-15.256 15.256-15.256v0c8.426 0 15.256 6.83 15.256 15.256v0z"></path>
<path d="M22.355 10.441c0-0.206-0.167-0.372-0.372-0.372s-0.372 0.167-0.372 0.372v0s0 0 0 0v11.114c0 0.206 0.167 0.372 0.372 0.372s0.372-0.167 0.372-0.372v0s0 0 0 0z"></path>
<path d="M16.372 8.588c0-0.206-0.167-0.372-0.372-0.372s-0.372 0.167-0.372 0.372v0s0 0 0 0v14.82c0 0.206 0.167 0.372 0.372 0.372s0.372-0.167 0.372-0.372v0s0 0 0 0z"></path>
<path d="M10.389 10.441c0-0.206-0.167-0.372-0.372-0.372s-0.372 0.167-0.372 0.372v0s0 0 0 0v11.114c0 0.206 0.167 0.372 0.372 0.372s0.372-0.167 0.372-0.372v0s0 0 0 0z"></path>
</svg>
