<?xml version="1.0" encoding="UTF-8"?>
<svg width="36px" height="36px" viewBox="0 0 36 36" version="1.1" xmlns="http://www.w3.org/2000/svg" xmlns:xlink="http://www.w3.org/1999/xlink">
    <!-- Generator: Sketch 47 (45396) - http://www.bohemiancoding.com/sketch -->
    <title>icon/bulb</title>
    <desc>Created with Sketch.</desc>
    <defs>
        <path d="M18.0000001,9.90107245 C13.5177075,9.90107245 9.86720558,13.5327805 9.86720558,17.9994682 C9.86720558,21.2395093 11.7800547,24.0401968 14.5452396,25.3343052 L14.5452396,28.377242 C14.545297,28.7535065 14.8503053,29.0585149 15.2265698,29.0585723 L20.7734303,29.0585723 C21.1497347,29.0585713 21.4548054,28.7535465 21.4548627,28.377242 L21.4548627,25.3343052 C24.220252,24.040299 26.1363039,21.2399863 26.1363039,17.9994682 C26.1363039,13.5327805 22.4853931,9.90107245 18.0000001,9.90107245 L18.0000001,9.90107245 Z M18.0000001,11.2637228 C21.7531257,11.2637228 24.7735412,14.2724618 24.7735412,17.9994682 C24.7735412,20.8410417 23.0122085,23.2596159 20.5207892,24.2546777 C20.2619181,24.358068 20.0921208,24.6087019 20.0921,24.8874559 L20.0921,27.6959117 L15.9080023,27.6959117 L15.9080023,24.8874559 C15.9079871,24.6087104 15.7382049,24.3580788 15.4793472,24.2546777 C12.9880982,23.2596841 11.2299683,20.8415527 11.2299683,17.9994682 C11.2299683,14.2724618 14.2505882,11.2637228 18.0000001,11.2637228 Z M15.6149864,29.6798343 L15.6149864,29.6798343 L20.3850137,29.6798343 C20.6304695,29.6767782 20.8585991,29.8059762 20.9822176,30.0180524 C21.1058362,30.2301286 21.1058362,30.4923027 20.9822176,30.7043789 C20.8585991,30.9164551 20.6304695,31.0456531 20.3850137,31.042597 L15.6149864,31.042597 C15.3695306,31.0456531 15.141401,30.9164551 15.0177825,30.7043789 C14.8941639,30.4923027 14.8941639,30.2301286 15.0177825,30.0180524 C15.141401,29.8059762 15.3695306,29.6767782 15.6149864,29.6798343 Z M16.6371351,31.6298896 L16.6371351,31.6298896 L19.362865,31.6298896 C19.6083208,31.6268335 19.8364503,31.7560316 19.9600689,31.9681078 C20.0836875,32.180184 20.0836875,32.442358 19.9600689,32.6544342 C19.8364503,32.8665104 19.6083208,32.9957084 19.362865,32.9926524 L16.6371351,32.9926524 C16.3916793,32.9957084 16.1635498,32.8665104 16.0399312,32.6544342 C15.9163126,32.442358 15.9163126,32.180184 16.0399312,31.9681078 C16.1635498,31.7560316 16.3916793,31.6268335 16.6371351,31.6298896 Z M17.9897786,3.00007622 C18.1739079,2.99732396 18.3513125,3.06921102 18.4815865,3.19936435 C18.6118605,3.32951769 18.6839119,3.50685557 18.6813303,3.69098743 L18.6813303,7.0519385 C18.6856314,7.29819066 18.5567195,7.52760017 18.3441468,7.65198462 C18.1315742,7.77636907 17.8684259,7.77636907 17.6558533,7.65198462 C17.4432806,7.52760017 17.3143687,7.29819066 17.3186698,7.0519385 L17.3186698,3.69098743 C17.313397,3.31495368 17.6137505,3.00573765 17.9897786,3.00007622 Z M28.6219311,8.20888479 L28.6219311,8.20888479 C28.9028992,8.20116096 29.1597824,8.36674168 29.2687737,8.62582393 C29.377765,8.88490617 29.3164995,9.18432644 29.1145046,9.3797766 L26.9441421,11.5401288 C26.7721837,11.7147149 26.5197256,11.7835262 26.2829599,11.7203441 C26.0461941,11.657162 25.8615855,11.4717173 25.7994739,11.2346685 C25.7373623,10.9976196 25.8073136,10.7454751 25.9826749,10.5743073 L28.1530374,8.41395168 C28.2767556,8.28727116 28.4449262,8.21372307 28.6219311,8.20888479 Z M28.4429529,18.7967442 L32.3100822,18.7967442 C32.5555379,18.7936881 32.7836675,18.9228862 32.9072861,19.1349624 C33.0309046,19.3470386 33.0309046,19.6092126 32.9072861,19.8212888 C32.7836675,20.033365 32.5555379,20.162563 32.3100822,20.159507 L28.4429529,20.159507 C28.1974971,20.162563 27.9693675,20.033365 27.845749,19.8212888 C27.7221304,19.6092126 27.7221304,19.3470386 27.845749,19.1349624 C27.9693675,18.9228862 28.1974971,18.7936881 28.4429529,18.7967442 Z M3.6899178,18.7967442 L7.34921034,18.7967442 C7.59466608,18.7936881 7.82279566,18.9228862 7.94641422,19.1349624 C8.07003278,19.3470386 8.07003278,19.6092126 7.94641422,19.8212888 C7.82279566,20.033365 7.59466608,20.162563 7.34921034,20.159507 L3.6899178,20.159507 C3.44446206,20.162563 3.21633248,20.033365 3.09271392,19.8212888 C2.96909536,19.6092126 2.96909536,19.3470386 3.09271392,19.1349624 C3.21633248,18.9228862 3.44446206,18.7936881 3.6899178,18.7967442 Z M7.30641638,8.15437019 L7.30641638,8.15437019 C7.49061291,8.15383072 7.6671821,8.2278826 7.79588933,8.35965173 L9.97647328,10.5302254 C10.1517827,10.7014041 10.2216945,10.9535231 10.1595764,11.1905397 C10.0974584,11.4275563 9.91287494,11.6129763 9.67614165,11.6761656 C9.43940836,11.7393548 9.18697584,11.6705839 9.01500611,11.4960504 L6.83442217,9.32547324 C6.63515694,9.13262896 6.57262342,8.83826834 6.67628256,8.58107127 C6.77994169,8.32387419 7.02911698,8.15514279 7.30641638,8.15437019 Z" id="path-1"></path>
    </defs>
    <g id="-" stroke="none" stroke-width="1" fill="none" fill-rule="evenodd">
        <g id="icon/bulb">
            <mask id="mask-2" fill="white">
                <use xlink:href="#path-1"></use>
            </mask>
            <g id="Mask"></g>
            <g id="iconswatch/red" mask="url(#mask-2)" fill="#E62828">
                <rect id="Rectangle" x="0" y="0" width="36" height="36"></rect>
            </g>
        </g>
    </g>
</svg>