<?xml version="1.0" encoding="UTF-8"?>
<svg width="36px" height="36px" viewBox="0 0 36 36" version="1.1" xmlns="http://www.w3.org/2000/svg" xmlns:xlink="http://www.w3.org/1999/xlink">
    <!-- Generator: Sketch 47 (45396) - http://www.bohemiancoding.com/sketch -->
    <title>icon/chat</title>
    <desc>Created with Sketch.</desc>
    <defs>
        <path d="M3.81342132,31.6287059 C3.35323825,31.5926031 2.99863435,31.207948 3.00000221,30.7463529 L3.00000221,24.5698824 L3.00000221,6.040475 C3.00005093,5.55318511 3.39506526,5.15817078 3.88235515,5.15812206 L32.1176493,5.15812206 C32.6049388,5.15817127 32.9999526,5.55318545 33.0000013,6.040475 L33.0000013,24.5698824 C32.9999526,25.0571719 32.6049388,25.4521861 32.1176493,25.4522353 L11.2858478,25.4522353 L4.46139926,31.4218824 C4.28172193,31.5746416 4.04837344,31.6491225 3.81342132,31.6287059 Z M4.76470809,28.8023971 L10.3621346,23.9081176 C10.5221393,23.7670116 10.7278452,23.6886474 10.9411787,23.6875294 L31.2352963,23.6875294 L31.2352963,6.92282794 L4.76470809,6.92282794 L4.76470809,24.5698824 L4.76470809,28.8023971 L4.76470809,28.8023971 Z M10.0588257,20.5992941 C9.57151544,20.5992941 9.17647279,20.2042647 9.17647279,19.7169412 C9.17647279,19.2296176 9.57151544,18.8345882 10.0588257,18.8345882 L22.4117669,18.8345882 C22.8990772,18.8345882 23.2941199,19.2296176 23.2941199,19.7169412 C23.2941199,20.2042647 22.8990772,20.5992941 22.4117669,20.5992941 L10.0588257,20.5992941 Z M10.0588257,16.1875338 C9.57151544,16.1875338 9.17647279,15.7925044 9.17647279,15.3051809 C9.17647279,14.8178574 9.57151544,14.4228279 10.0588257,14.4228279 L25.9411787,14.4228279 C26.428489,14.4228279 26.8235316,14.8178574 26.8235316,15.3051809 C26.8235316,15.7925044 26.428489,16.1875338 25.9411787,16.1875338 L10.0588257,16.1875338 Z M10.0588257,11.7757691 C9.57151544,11.7757691 9.17647279,11.3807397 9.17647279,10.8934162 C9.17647279,10.4060926 9.57151544,10.0110632 10.0588257,10.0110632 L25.9411787,10.0110632 C26.428489,10.0110632 26.8235316,10.4060926 26.8235316,10.8934162 C26.8235316,11.3807397 26.428489,11.7757691 25.9411787,11.7757691 L10.0588257,11.7757691 Z" id="path-1"></path>
    </defs>
    <g id="-" stroke="none" stroke-width="1" fill="none" fill-rule="evenodd">
        <g id="icon/chat">
            <mask id="mask-2" fill="white">
                <use xlink:href="#path-1"></use>
            </mask>
            <g id="Mask" fill-rule="nonzero"></g>
            <g id="iconswatch/red" mask="url(#mask-2)" fill="#E62828">
                <rect id="Rectangle" x="0" y="0" width="36" height="36"></rect>
            </g>
        </g>
    </g>
</svg>