<?xml version="1.0" encoding="UTF-8"?>
<svg width="30px" height="30px" viewBox="0 0 30 30" version="1.1" xmlns="http://www.w3.org/2000/svg" xmlns:xlink="http://www.w3.org/1999/xlink">
    <!-- Generator: Sketch 47 (45396) - http://www.bohemiancoding.com/sketch -->
    <title>icon/swatch/black</title>
    <desc>Created with Sketch.</desc>
    <defs>
        <path d="M20.7758856,29.3545943 C20.1690703,28.9988762 19.3888118,29.2017776 19.0321538,29.808041 C18.7926932,30.2054437 18.3787321,30.4525467 17.9252854,30.4525467 C17.4718387,30.4525467 17.0578775,30.2130861 16.8260593,29.8233257 C16.5955721,29.4308376 16.1732031,29.1911271 15.7180548,29.1944908 C15.2629065,29.1978545 14.8441266,29.4437815 14.6194656,29.8396334 C14.3948045,30.2354852 14.3983936,30.7211227 14.6288808,31.1136108 C15.312872,32.2752495 16.5789563,33 17.9240117,33 C19.269067,33 20.5351513,32.2752495 21.2280586,31.1046947 C21.5844682,30.4955707 21.3818406,29.71295 20.7746119,29.3533206 L20.7758856,29.3545943 Z M31.1130326,23.2119842 C29.6404452,23.2119842 28.4356009,21.9992652 28.4356009,20.517053 L28.4356009,13.7797249 C28.4356009,7.83335917 23.6322885,3 17.7258742,3 C11.81946,3 7.01614752,7.83470663 7.01614752,13.7797249 L7.01614752,20.517053 C7.01614752,21.9992652 5.81130326,23.2119842 4.33871584,23.2119842 C3.60242213,23.2119842 3,23.8183438 3,24.5594499 C3,25.3005559 3.60242213,25.9069155 4.33871584,25.9069155 L31.1130326,25.9069155 C31.8493263,25.9069155 32.4517485,25.3005559 32.4517485,24.5594499 C32.4517485,23.8183438 31.8493263,23.2119842 31.1130326,23.2119842 Z M8.97468879,23.2119842 C9.44786331,22.3938834 9.69599956,21.4636857 9.6935792,20.517053 L9.6935792,13.7797249 C9.6935792,9.3250036 13.3000797,5.69493123 17.7258742,5.69493123 C22.1516688,5.69493123 25.7581693,9.3250036 25.7581693,13.7797249 L25.7581693,20.517053 C25.7581693,21.4939656 26.0178801,22.4210219 26.4770597,23.2119842 L8.97335008,23.2119842 L8.97468879,23.2119842 Z" id="path-1"></path>
    </defs>
    <g id="01-style_icons" stroke="none" stroke-width="1" fill="none" fill-rule="evenodd">
        <g id="icon/bell" transform="translate(-3.000000, -3.000000)">
            <mask id="mask-2" fill="white">
                <use xlink:href="#path-1"></use>
            </mask>
            <use id="Mask" fill="#000000" fill-rule="nonzero" xlink:href="#path-1"></use>
            <g id="iconswatch/black" mask="url(#mask-2)" fill="#000000">
                <rect id="Rectangle" x="0" y="0" width="36" height="36"></rect>
            </g>
        </g>
    </g>
</svg>