<?xml version="1.0" encoding="UTF-8"?>
<svg width="36px" height="36px" viewBox="0 0 36 36" version="1.1" xmlns="http://www.w3.org/2000/svg" xmlns:xlink="http://www.w3.org/1999/xlink">
    <!-- Generator: Sketch 47 (45396) - http://www.bohemiancoding.com/sketch -->
    <title>icon/switch</title>
    <desc>Created with Sketch.</desc>
    <defs>
        <path d="M17.91,15.336 L19.5315,13.326 L19.5255,13.3215 C20.808,11.865 22.656,11.0295 24.5925,11.0295 L27.4395,11.0295 L24.9705,8.5605 L26.031,7.5 L30.3105,11.7795 L26.0295,16.0605 L24.969,15 L27.4395,12.5295 L24.5925,12.5295 C23.109,12.5295 21.696,13.167 20.7,14.268 L19.08,16.2765 L17.91,15.336 L17.91,15.336 Z M13.2765,21.0735 L13.26,21.0615 C12.2595,22.311 10.7655,23.0295 9.1605,23.0295 L4.5,23.0295 L4.5,24.5295 L9.1605,24.5295 C11.214,24.5295 13.128,23.613 14.415,22.0155 L14.4315,22.029 L15.843,20.28 L14.6775,19.3365 L13.2765,21.0735 L13.2765,21.0735 Z M24.969,20.5605 L27.4395,23.0295 L24.5925,23.0295 C23.0145,23.0295 21.546,22.326 20.5425,21.108 L14.139,13.2105 L14.124,13.2225 C12.849,11.8335 11.052,11.0295 9.1605,11.0295 L4.5,11.0295 L4.5,12.5295 L9.1605,12.5295 C10.6575,12.5295 12.0825,13.1715 13.077,14.2845 L19.3185,21.9825 L19.311,21.9885 C20.601,23.6025 22.5255,24.5295 24.591,24.5295 L27.438,24.5295 L24.969,26.9985 L26.0295,28.059 L30.3105,23.778 L26.0295,19.497 L24.969,20.5605 L24.969,20.5605 Z" id="path-1"></path>
    </defs>
    <g id="-" stroke="none" stroke-width="1" fill="none" fill-rule="evenodd">
        <g id="icon/switch">
            <mask id="mask-2" fill="white">
                <use xlink:href="#path-1"></use>
            </mask>
            <use id="Mask" fill="#000000" fill-rule="nonzero" xlink:href="#path-1"></use>
            <g id="iconswatch/red" mask="url(#mask-2)" fill="#E62828">
                <rect id="Rectangle" x="0" y="0" width="36" height="36"></rect>
            </g>
        </g>
    </g>
</svg>