<?xml version="1.0" encoding="UTF-8"?>
<svg width="36px" height="36px" viewBox="0 0 36 36" version="1.1" xmlns="http://www.w3.org/2000/svg" xmlns:xlink="http://www.w3.org/1999/xlink">
    <!-- Generator: Sketch 47 (45396) - http://www.bohemiancoding.com/sketch -->
    <title>icon/user</title>
    <desc>Created with Sketch.</desc>
    <defs>
        <path d="M18.5258055,17.4741945 C20.1923831,17.4724464 21.7760893,16.7471608 22.8661146,15.486475 C23.9561399,14.2257891 24.4450731,12.5539313 24.2060861,10.9045771 L24.2060861,10.8976919 C24.2060861,10.8839215 24.2060861,10.8758888 24.1992009,10.8621184 C24.0133008,9.65032526 23.4533054,8.5452525 22.5857717,7.67771875 C21.5108893,6.59931189 20.0495532,5.99527645 18.5269531,6.00002782 C15.3643565,6.00002782 12.789296,8.57508832 12.789296,11.7376849 C12.789296,14.9002815 15.3643565,17.475342 18.5269531,17.475342 L18.5258055,17.4741945 Z M18.5258055,8.29394312 C20.2158518,8.30372303 21.6521931,9.53154753 21.9247936,11.1994927 L21.9247936,11.2063779 C21.9247936,11.2201482 21.9247936,11.228181 21.9316788,11.2419513 C22.1228437,12.520869 21.5814355,13.799086 20.529824,14.5516069 C19.4782125,15.3041278 18.0936667,15.4041008 16.9448541,14.8104647 C15.7960414,14.2168285 15.076616,13.0296517 15.0820638,11.7365374 C15.0820638,9.83622535 16.624346,8.29394312 18.524658,8.29394312 L18.5258055,8.29394312 Z M26.3496747,21.6489137 L26.3485272,21.6489137 C28.6722783,22.9398866 29.9494808,24.7323307 29.9494808,26.7049372 L29.9494808,27.8524686 C29.9494808,28.4836109 29.4330917,29 28.8019494,29 C28.1708071,29 27.654418,28.4836109 27.654418,27.8524686 L27.654418,26.7049372 C27.654418,25.6216675 26.7731138,24.5097096 25.2308316,23.649061 C23.4521579,22.6587414 21.0561123,22.113664 18.4741666,22.113664 C15.8922209,22.113664 13.4973229,22.6598889 11.7186492,23.649061 C10.1775145,24.5097096 9.29506283,25.6216675 9.29506283,26.7049372 L9.29506283,27.8524686 C9.29506283,28.4836109 8.7786737,29 8.14753142,29 C7.51638914,29 7,28.4836109 7,27.8524686 L7,26.7049372 C7,24.7334782 8.27720247,22.9398866 10.6009536,21.6489137 C12.715854,20.4658089 15.5135356,19.8197487 18.4753142,19.8197487 C21.4370928,19.8197487 24.2336268,20.4658089 26.3496747,21.6489137 Z" id="path-1"></path>
    </defs>
    <g id="-" stroke="none" stroke-width="1" fill="none" fill-rule="evenodd">
        <g id="icon/user">
            <mask id="mask-2" fill="white">
                <use xlink:href="#path-1"></use>
            </mask>
            <use id="Mask" fill="#444444" fill-rule="nonzero" xlink:href="#path-1"></use>
            <g id="iconswatch/black" mask="url(#mask-2)" fill="#000000">
                <rect id="Rectangle" x="0" y="0" width="36" height="36"></rect>
            </g>
        </g>
    </g>
</svg>