<?xml version="1.0" encoding="UTF-8"?>
<svg width="21px" height="21px" viewBox="0 0 21 21" version="1.1" xmlns="http://www.w3.org/2000/svg" xmlns:xlink="http://www.w3.org/1999/xlink">
    <!-- Generator: Sketch 47 (45396) - http://www.bohemiancoding.com/sketch -->
    <title>icon/search</title>
    <desc>Created with Sketch.</desc>
    <defs>
        <path d="M21.3729088,19.9613124 L16.8418531,15.4299048 C18.0257627,13.9315288 18.6688636,12.0771397 18.6668756,10.1674314 C18.6668756,5.47900961 14.8538287,1.66666667 10.1667711,1.66666667 C5.47971352,1.66666667 1.66666667,5.4800097 1.66666667,10.1674314 C1.66666667,14.8558531 5.47971352,18.6681961 10.1667711,18.6681961 C12.0746974,18.6713475 13.9274162,18.0279924 15.4228357,16.8430319 L19.9538914,21.3744395 C20.3439383,21.7640757 20.9758618,21.7640757 21.3659087,21.3744395 C21.7659136,20.9874047 21.7659136,20.3493473 21.3719088,19.9613124 L21.3729088,19.9613124 Z M3.66669124,10.1664313 C3.66669124,6.58510911 6.58572711,3.66584651 10.1667711,3.66584651 C13.7478151,3.66584651 16.666851,6.58510911 16.666851,10.1664313 C16.6692207,11.8907514 15.9830896,13.5446502 14.7608276,14.7608446 L14.7228271,14.798848 C13.5096896,15.9978632 11.8723838,16.6695845 10.1667711,16.6680161 C6.58572711,16.6680161 3.66669124,13.7487535 3.66669124,10.1674314 L3.66669124,10.1664313 Z" id="path-1"></path>
    </defs>
    <g id="Symbols-mobile" stroke="none" stroke-width="1" fill="none" fill-rule="evenodd">
        <g id="mobile/header/default" transform="translate(-311.000000, -14.000000)">
            <g id="icon/search" transform="translate(310.000000, 13.000000)">
                <mask id="mask-2" fill="white">
                    <use xlink:href="#path-1"></use>
                </mask>
                <use id="Mask" fill="#000000" fill-rule="nonzero" xlink:href="#path-1"></use>
                <g id="iconswatch/white" mask="url(#mask-2)" fill-rule="evenodd" fill="#FFFFFF">
                    <rect id="Rectangle" x="0" y="0" width="24" height="24"></rect>
                </g>
            </g>
        </g>
    </g>
</svg>