<?xml version="1.0" encoding="UTF-8"?>
<svg width="30px" height="30px" viewBox="0 0 30 30" version="1.1" xmlns="http://www.w3.org/2000/svg" xmlns:xlink="http://www.w3.org/1999/xlink">
    <!-- Generator: Sketch 47 (45396) - http://www.bohemiancoding.com/sketch -->
    <title>icon/swatch/black</title>
    <desc>Created with Sketch.</desc>
    <defs>
        <path d="M30.4850404,13.9324972 C30.4850404,14.4717869 30.0478597,14.9089676 29.5085699,14.9089676 C28.9692802,14.9089676 28.5320995,14.4717869 28.5320995,13.9324972 C28.5320995,13.3932075 28.9692802,12.9560268 29.5085699,12.9560268 C30.047162,12.9577073 30.4833599,13.3939051 30.4850404,13.9324972 L30.4850404,13.9324972 Z M32.9981507,31.4293778 C32.9964697,32.0000904 32.5342333,32.4623268 31.9635206,32.4640079 L4.02544699,32.4640079 C3.45832374,32.457318 3.00163359,31.9965381 3,31.4293778 C3,26.1643962 9.63938663,24.0645257 12.4892109,23.4033419 C12.5241973,23.3947086 12.5484201,23.3628366 12.5473706,23.326816 L12.5473706,22.212599 C11.887061,21.3476082 11.3949035,20.3664082 11.0964397,19.3199202 C10.3464859,18.5852716 10.015894,17.4312611 9.83835395,16.7884436 C9.54755555,15.7660576 9.25675715,14.2814553 10.0556875,13.2253979 L10.0924199,13.1794824 C10.0403823,12.8733788 10.0005889,12.5672752 9.97610056,12.2611717 C9.61489834,9.86131959 9.8934526,8.07061366 10.8056413,6.95027456 C11.2961241,6.329144 12.0103425,5.92478649 12.7953145,5.82381339 C13.260592,4.2167696 15.5318805,2.64951927 17.5919576,3.06888118 C19.590814,3.49742619 23.7630058,3.02602668 23.8150434,3.01990461 C23.867685,3.01501157 23.9202161,3.03033314 23.9619731,3.06275911 C24.0033434,3.09707258 24.0287986,3.14687633 24.0323769,3.20050572 C24.0476951,3.75853271 23.8355571,4.29882157 23.444658,4.69735222 C26.781187,6.92272524 26.3006044,11.3153116 25.9149139,13.1733603 L25.9485853,13.2192759 C26.7475157,14.2783942 26.4567173,15.7599356 26.1689799,16.7823215 C25.9914398,17.4128949 25.6608479,18.5822106 24.9139552,19.3199202 C24.613826,20.3592009 24.121698,21.3330745 23.4630243,22.1911718 L23.4630243,23.323755 C23.4630791,23.359412 23.4868435,23.390681 23.5211839,23.4002809 C26.3679472,24.0645257 32.9981507,26.1674572 32.9981507,31.4293778 Z M22.4865538,25.203231 C22.0265102,24.9453209 21.6777458,24.5268035 21.5070224,24.0277932 C21.0403657,24.335733 20.5389622,24.5874622 20.0132369,24.777747 C18.7100752,25.23901 17.2880755,25.23901 15.9849138,24.777747 C15.4566356,24.5902241 14.9530024,24.3394353 14.4850063,24.0308543 C14.3118063,24.5236604 13.9645545,24.9362259 13.5085359,25.1909868 C14.5542571,26.6213189 16.227389,27.4573146 17.9990754,27.4347261 C19.7674806,27.4591655 21.4388252,26.6280535 22.4865538,25.203231 L22.4865538,25.203231 Z M23.4048646,18.10775 C23.5120008,18.10775 23.8946303,17.9424541 24.3629688,16.2711285 C24.7302931,14.9732494 24.5741802,14.5018499 24.4517388,14.3365539 C24.3411673,14.2107809 24.1724814,14.1526133 24.0078886,14.1835021 C23.9410584,14.1900244 23.8754468,14.1623984 23.8334096,14.1100373 C23.7918323,14.0571763 23.7802761,13.9866833 23.8027992,13.9233141 L23.8027992,13.8835206 C23.8946303,13.577417 24.2803208,11.9918005 22.9395871,11.0000249 C21.7610884,11.263274 19.8295748,11.3336778 17.2338164,10.2255829 C15.9665476,9.68377952 14.9013071,9.6654133 14.0748275,10.1704842 C12.4157461,11.180626 12.1892294,13.9753517 12.1861684,14.002901 C12.1780088,14.109975 12.0851726,14.1905241 11.978018,14.1835021 L11.8892479,14.1835021 C11.7488884,14.1725434 11.6122942,14.2322317 11.5249847,14.342676 C11.3994822,14.5079719 11.2464304,14.9793714 11.6137547,16.2772506 C12.0851542,17.939393 12.4677837,18.0955059 12.5718589,18.1138721 C12.6633147,18.1199386 12.7383396,18.1886055 12.75246,18.279168 C13.0218312,20.0147753 14.3350155,22.2585145 16.5909989,23.0390787 C17.4898997,23.3587369 18.4715186,23.3587369 19.3704194,23.0390787 C21.5345717,22.2585145 22.9457092,20.0576298 23.2181414,18.2822291 C23.2289853,18.1836369 23.3118045,18.1087052 23.4109866,18.10775 L23.4048646,18.10775 Z M30.6319701,9.82458716 C32.0867964,9.3328424 33.0479732,7.9464102 32.9981507,6.41153226 C32.9341769,4.52310296 31.3919109,3.0213518 29.5024479,3.00766046 L29.4810206,3.00766046 C28.1435382,3.01218766 26.92719,3.78341437 26.352642,4.99121165 C26.1694565,5.30719632 26.1785754,5.69913718 26.376258,6.00626062 C26.5739407,6.31338405 26.9269157,6.48399894 27.2903932,6.44811928 C27.6538706,6.41223961 27.9666747,6.17590421 28.1004935,5.83605753 C28.355806,5.29953631 28.8960371,4.9568346 29.4902037,4.95447922 L29.4902037,4.95447922 C30.3285305,4.96625118 31.0140039,5.62628709 31.057454,6.46356987 C31.0848995,7.15180455 30.6545656,7.77547697 30.0013967,7.99408776 C29.133203,8.27996333 28.5419437,9.08510859 28.5290385,9.9990662 L28.5290385,10.8286069 C28.5579854,11.3441958 28.9845165,11.7474517 29.5009173,11.7474517 C30.0173182,11.7474517 30.4438493,11.3441958 30.4727962,10.8286069 L30.4727962,9.9898831 C30.4789183,9.87968581 30.6136039,9.83070924 30.6319701,9.82458716 Z M20.3101574,18.1689707 L15.6879933,18.1689707 C15.5531224,18.1712603 15.426081,18.2327401 15.3405991,18.3370869 C15.2551172,18.4414338 15.2198435,18.5780905 15.2441432,18.7107741 C15.5021607,20.0349991 16.662192,20.9908198 18.0113195,20.9908198 C19.360447,20.9908198 20.5204783,20.0349991 20.7784959,18.7107741 C20.8036493,18.5738378 20.7653111,18.4328848 20.6742629,18.3275546 C20.5832148,18.2222243 20.4492921,18.1638952 20.3101574,18.1689707 L20.3101574,18.1689707 Z M16.2910174,14.9824325 C16.2910174,14.449905 15.8593186,14.0182062 15.3267911,14.0182062 C14.7942637,14.0182062 14.3625648,14.449905 14.3625648,14.9824325 C14.3625648,15.5149599 14.7942637,15.9466587 15.3267911,15.9466587 C15.5825198,15.9466587 15.8277746,15.8450709 16.0086021,15.6642434 C16.1894296,15.4834159 16.2910174,15.2381612 16.2910174,14.9824325 L16.2910174,14.9824325 Z M20.7540076,14.0059621 C20.2247289,14.0127268 19.799858,14.4449002 19.8021129,14.9742173 C19.8043679,15.5035344 20.2329056,15.9320721 20.7622227,15.9343271 C21.2915399,15.9365821 21.7237132,15.5117112 21.730478,14.9824325 C21.7338008,14.722452 21.6319904,14.4721476 21.4481414,14.2882986 C21.2642924,14.1044497 21.0139881,14.0026392 20.7540076,14.0059621 L20.7540076,14.0059621 Z" id="path-1"></path>
    </defs>
    <g id="01-style_icons" stroke="none" stroke-width="1" fill="none" fill-rule="evenodd">
        <g id="icon/help" transform="translate(-3.000000, -3.000000)">
            <mask id="mask-2" fill="white">
                <use xlink:href="#path-1"></use>
            </mask>
            <use id="Mask" fill="#000000" fill-rule="nonzero" xlink:href="#path-1"></use>
            <g id="iconswatch/black" mask="url(#mask-2)" fill="#000000">
                <rect id="Rectangle" x="0" y="0" width="36" height="36"></rect>
            </g>
        </g>
    </g>
</svg>