<svg xmlns="http://www.w3.org/2000/svg" viewBox="0 0 108.71 108.71"><defs><style>.a{fill:#7dd8ed;}</style></defs><title>drip_pattern</title><path class="a" d="M97,71.24c-.23,0-.3.22-.28.43a1.22,1.22,0,0,1-.46.93,6.77,6.77,0,0,1-1.44,1.15,1.78,1.78,0,0,1-2.21-.16,3.22,3.22,0,0,1-.69-1.49,5.18,5.18,0,0,0-.32-1,.2.2,0,0,0-.35-.06.7.7,0,0,0-.18.44,2.73,2.73,0,0,0,.62,2.07.28.28,0,0,1,.1.19c0,.4.3.53.55.69a3,3,0,0,0,1.46.47A8.79,8.79,0,0,0,95,74.5a5.63,5.63,0,0,0,2.15-1.76,9,9,0,0,0,.62-1c0-.09,0-.31,0-.32A2.49,2.49,0,0,0,97,71.24Z" transform="translate(-0.01)"/><path class="a" d="M19.66,100.84a.44.44,0,0,0-.59.11.51.51,0,0,0-.12.26,1.4,1.4,0,0,1-.51.92,5.85,5.85,0,0,0-.57.65,2.58,2.58,0,0,1-1.21.88,1.22,1.22,0,0,1-1.67-.34,1.26,1.26,0,0,1-.19-.31,4.48,4.48,0,0,1-.55-2.13,4.83,4.83,0,0,0,0-.72.48.48,0,0,0-.24-.3c-.06,0-.23.07-.29.15a1.66,1.66,0,0,0-.21.45,9.25,9.25,0,0,0,.17,2.54,2.73,2.73,0,0,0,1.21,1.26,2.12,2.12,0,0,0,2.12.15,5.45,5.45,0,0,0,2.18-2,6.44,6.44,0,0,0,.62-1.06A.33.33,0,0,0,19.66,100.84Z" transform="translate(-0.01)"/><path class="a" d="M20.88,20.93a.8.8,0,0,0-.43.33,14.75,14.75,0,0,1-1.7,2.49c-.42.55-.87.51-1.23-.09a2.28,2.28,0,0,1-.34-1.23,12.9,12.9,0,0,1,.21-2.59,6.49,6.49,0,0,0,.08-.79c0-.24,0-.45-.27-.53a.49.49,0,0,0-.61.25,1.1,1.1,0,0,0-.15.47c0,.43,0,.85,0,1.28s-.1,1-.14,1.57h.07c0,.27,0,.53,0,.8a2.09,2.09,0,0,0,.57,1.58,1.34,1.34,0,0,0,2.26,0,22.88,22.88,0,0,0,1.43-1.81,6.6,6.6,0,0,0,.66-1.35C21.4,21,21.24,20.8,20.88,20.93Z" transform="translate(-0.01)"/><path class="a" d="M48.74,31.94a.44.44,0,0,0-.59.11.51.51,0,0,0-.12.26,1.4,1.4,0,0,1-.51.92,5.86,5.86,0,0,0-.57.65,2.57,2.57,0,0,1-1.21.87,1.22,1.22,0,0,1-1.67-.34,1.26,1.26,0,0,1-.19-.31A4.48,4.48,0,0,1,43.34,32a4.6,4.6,0,0,0,0-.72.47.47,0,0,0-.24-.31c-.06,0-.23.07-.29.15a1.66,1.66,0,0,0-.21.45,9.24,9.24,0,0,0,.17,2.54A2.71,2.71,0,0,0,44,35.36a2.12,2.12,0,0,0,2.12.15,5.46,5.46,0,0,0,2.18-2,6.44,6.44,0,0,0,.62-1.06A.33.33,0,0,0,48.74,31.94Z" transform="translate(-0.01)"/><path class="a" d="M38.86,53.7s0,.09,0,.14a6.06,6.06,0,0,1-2.1,2.78c-.56.44-1,.36-1.49-.17A4.09,4.09,0,0,1,34.37,54c-.06-.43,0-.87-.06-1.3,0-.18-.08-.29-.27-.19-.38.18-.82.92-.67,1.24a9.71,9.71,0,0,1,.38,1.95.9.9,0,0,0,.09.34c.41.53.83,1.05,1.25,1.58a.66.66,0,0,0,.77.21A3.54,3.54,0,0,0,38,56.5c.48-.66,1-1.29,1.47-2a3.54,3.54,0,0,0,.29-.73,1.89,1.89,0,0,0-.37-.46C39.21,53.24,39,53.42,38.86,53.7Z" transform="translate(-0.01)"/><path class="a" d="M9.22,38.22c-.23,0-.3.22-.28.43a1.23,1.23,0,0,1-.46.93A6.84,6.84,0,0,1,7,40.73a1.78,1.78,0,0,1-2.21-.16,3.22,3.22,0,0,1-.69-1.49,5.17,5.17,0,0,0-.32-1A.2.2,0,0,0,3.46,38a.7.7,0,0,0-.18.44,2.73,2.73,0,0,0,.62,2.07.28.28,0,0,1,.1.19c0,.4.3.53.55.69A3,3,0,0,0,6,41.87a9,9,0,0,0,1.21-.39,5.64,5.64,0,0,0,2.15-1.76,8.83,8.83,0,0,0,.62-1c0-.08,0-.31,0-.32A2.43,2.43,0,0,0,9.22,38.22Z" transform="translate(-0.01)"/><path class="a" d="M104.43,45.51c-.23,0-.3.22-.28.43a1.22,1.22,0,0,1-.46.93A6.77,6.77,0,0,1,102.24,48a1.78,1.78,0,0,1-2.21-.16,3.25,3.25,0,0,1-.69-1.48,4.9,4.9,0,0,0-.32-1,.2.2,0,0,0-.35-.06.67.67,0,0,0-.18.43,2.73,2.73,0,0,0,.62,2.07.29.29,0,0,1,.1.18c0,.4.3.53.55.69a3,3,0,0,0,1.46.47,8.74,8.74,0,0,0,1.21-.39A5.62,5.62,0,0,0,104.58,47a8.79,8.79,0,0,0,.62-1c0-.08,0-.3,0-.32A2.44,2.44,0,0,0,104.43,45.51Z" transform="translate(-0.01)"/><path class="a" d="M104.55,10.31c-.23,0-.3.22-.28.43a1.22,1.22,0,0,1-.46.93,6.78,6.78,0,0,1-1.44,1.15,1.78,1.78,0,0,1-2.21-.16,3.25,3.25,0,0,1-.69-1.48,4.9,4.9,0,0,0-.32-1,.2.2,0,0,0-.35-.06.67.67,0,0,0-.18.43,2.73,2.73,0,0,0,.62,2.07.29.29,0,0,1,.1.18c0,.4.3.53.55.69a3,3,0,0,0,1.46.47,8.74,8.74,0,0,0,1.21-.39,5.62,5.62,0,0,0,2.15-1.76,8.81,8.81,0,0,0,.62-1c0-.08,0-.3,0-.32A2.45,2.45,0,0,0,104.55,10.31Z" transform="translate(-0.01)"/><path class="a" d="M8.57,7.89A.44.44,0,0,0,8,8a.51.51,0,0,0-.12.26,1.4,1.4,0,0,1-.51.92,6,6,0,0,0-.57.65,2.57,2.57,0,0,1-1.21.88,1.22,1.22,0,0,1-1.67-.34,1.26,1.26,0,0,1-.19-.3,4.48,4.48,0,0,1-.55-2.13,4.59,4.59,0,0,0,0-.72.47.47,0,0,0-.24-.31c-.06,0-.23.07-.29.15a1.66,1.66,0,0,0-.21.45A9.26,9.26,0,0,0,2.58,10a2.7,2.7,0,0,0,1.21,1.26,2.13,2.13,0,0,0,2.12.15,5.46,5.46,0,0,0,2.18-2,6.45,6.45,0,0,0,.62-1.06A.33.33,0,0,0,8.57,7.89Z" transform="translate(-0.01)"/><path class="a" d="M22.82,46.95c-.23-.07-.38,0-.38.26s.11.45,0,.62a5.64,5.64,0,0,1-1.2,1.86,2.8,2.8,0,0,1-1.2.6,1.63,1.63,0,0,1-1.63-.88c-.15-.3-.23-.64-.4-.92A2.77,2.77,0,0,1,17.67,47a6.62,6.62,0,0,0,0-.86.54.54,0,0,0-.23-.31s-.2.1-.27.18a2,2,0,0,0-.25,1.79A7.36,7.36,0,0,0,18,50.17a2.41,2.41,0,0,0,1.71,1,3.31,3.31,0,0,0,1.77-.62A5.36,5.36,0,0,0,23.32,48C23.55,47.37,23.44,47.14,22.82,46.95Z" transform="translate(-0.01)"/><path class="a" d="M71.24,10.36a.79.79,0,0,0-.43.33,14.81,14.81,0,0,1-1.7,2.49c-.42.55-.87.51-1.23-.09a2.27,2.27,0,0,1-.34-1.23,12.86,12.86,0,0,1,.2-2.58,6.49,6.49,0,0,0,.08-.79c0-.24,0-.45-.27-.53a.49.49,0,0,0-.61.25,1.1,1.1,0,0,0-.15.47c0,.43,0,.86,0,1.28s-.1,1-.14,1.57h.07c0,.26,0,.53,0,.8a2.08,2.08,0,0,0,.57,1.57,1.34,1.34,0,0,0,2.26,0A22.8,22.8,0,0,0,71,12.1a6.64,6.64,0,0,0,.66-1.35C71.76,10.39,71.59,10.23,71.24,10.36Z" transform="translate(-0.01)"/><path class="a" d="M66.47,24.54a.44.44,0,0,0-.59.11.52.52,0,0,0-.12.26,1.39,1.39,0,0,1-.51.92,6,6,0,0,0-.57.65,2.57,2.57,0,0,1-1.21.88A1.22,1.22,0,0,1,61.8,27a1.26,1.26,0,0,1-.19-.31,4.5,4.5,0,0,1-.55-2.13,4.84,4.84,0,0,0,0-.72.47.47,0,0,0-.24-.3c-.06,0-.23.07-.29.15a1.63,1.63,0,0,0-.21.45,9.19,9.19,0,0,0,.17,2.54A2.71,2.71,0,0,0,61.7,28a2.13,2.13,0,0,0,2.12.15,5.46,5.46,0,0,0,2.18-2A6.43,6.43,0,0,0,66.61,25,.34.34,0,0,0,66.47,24.54Z" transform="translate(-0.01)"/><path class="a" d="M74.15,61.12a.81.81,0,0,0-.43.33A14.79,14.79,0,0,1,72,63.94c-.43.55-.87.51-1.23-.09a2.28,2.28,0,0,1-.34-1.23,13,13,0,0,1,.2-2.58,6.91,6.91,0,0,0,.08-.79c0-.23,0-.45-.27-.53a.49.49,0,0,0-.61.25,1.1,1.1,0,0,0-.15.47c0,.43,0,.86,0,1.28s-.1,1-.15,1.57h.07c0,.26,0,.53,0,.8a2.09,2.09,0,0,0,.57,1.57,1.34,1.34,0,0,0,2.26,0,22.43,22.43,0,0,0,1.43-1.81,6.55,6.55,0,0,0,.66-1.35C74.67,61.15,74.51,61,74.15,61.12Z" transform="translate(-0.01)"/><path class="a" d="M80.24,74.29a.53.53,0,0,0-.4.21,1.21,1.21,0,0,0-.27.59c-.05.67-.54.95-1,1.18a5.7,5.7,0,0,1-3,.46,1,1,0,0,1-.54-.16,2.62,2.62,0,0,1-1.06-1.5c-.06-.36-.1-.71-.19-1.06,0-.11-.19-.28-.27-.27a.55.55,0,0,0-.38.23.86.86,0,0,0-.06.49,5.25,5.25,0,0,0,.45,1.73,2.22,2.22,0,0,0,1,1,4.1,4.1,0,0,0,1.77.36c.59-.08,1.18-.15,1.77-.25a3.14,3.14,0,0,0,2.51-2.19,1.88,1.88,0,0,0,.08-.35A.39.39,0,0,0,80.24,74.29Z" transform="translate(-0.01)"/><path class="a" d="M51.37,18.18a.53.53,0,0,0-.4.21,1.19,1.19,0,0,0-.27.59c-.05.67-.54.95-1,1.18a5.72,5.72,0,0,1-3,.46,1,1,0,0,1-.54-.16A2.61,2.61,0,0,1,45,19c-.06-.35-.1-.71-.19-1.06,0-.11-.19-.28-.27-.27a.55.55,0,0,0-.38.24.84.84,0,0,0-.06.49,5.3,5.3,0,0,0,.45,1.73,2.22,2.22,0,0,0,1,1,4.1,4.1,0,0,0,1.77.36c.59-.08,1.18-.15,1.77-.25A3.14,3.14,0,0,0,51.64,19a1.88,1.88,0,0,0,.08-.35A.39.39,0,0,0,51.37,18.18Z" transform="translate(-0.01)"/><path class="a" d="M88.43,26.47c-.23-.07-.38,0-.38.26s.11.45,0,.62a5.59,5.59,0,0,1-1.2,1.86,2.81,2.81,0,0,1-1.2.6A1.63,1.63,0,0,1,84,28.92c-.15-.3-.23-.64-.4-.92a2.8,2.8,0,0,1-.38-1.44,7,7,0,0,0,0-.86.54.54,0,0,0-.23-.31s-.2.1-.27.18a2,2,0,0,0-.25,1.79,7.4,7.4,0,0,0,1.08,2.33,2.42,2.42,0,0,0,1.71,1A3.31,3.31,0,0,0,87,30.06a5.39,5.39,0,0,0,1.88-2.58C89.16,26.89,89,26.66,88.43,26.47Z" transform="translate(-0.01)"/><path class="a" d="M86.83,16.72c-.23,0-.3.22-.28.43a1.23,1.23,0,0,1-.46.93,6.82,6.82,0,0,1-1.44,1.15,1.78,1.78,0,0,1-2.21-.16,3.26,3.26,0,0,1-.69-1.49,5,5,0,0,0-.32-1,.2.2,0,0,0-.35-.06.68.68,0,0,0-.18.44A2.73,2.73,0,0,0,81.52,19a.29.29,0,0,1,.1.18c0,.4.3.53.55.69a3,3,0,0,0,1.46.47A8.49,8.49,0,0,0,84.84,20,5.62,5.62,0,0,0,87,18.22a9.06,9.06,0,0,0,.62-1c0-.08,0-.3,0-.32A2.46,2.46,0,0,0,86.83,16.72Z" transform="translate(-0.01)"/><path class="a" d="M8.58,99.17a.44.44,0,0,0-.58.11.52.52,0,0,0-.12.26,1.38,1.38,0,0,1-.51.92,6,6,0,0,0-.57.65,2.57,2.57,0,0,1-1.21.87,1.22,1.22,0,0,1-1.67-.34,1.24,1.24,0,0,1-.19-.3,4.48,4.48,0,0,1-.55-2.13,4.86,4.86,0,0,0,0-.72.47.47,0,0,0-.24-.3c-.06,0-.23.07-.29.15a1.66,1.66,0,0,0-.21.45,9.24,9.24,0,0,0,.17,2.54,2.71,2.71,0,0,0,1.21,1.27,2.13,2.13,0,0,0,2.12.15,5.48,5.48,0,0,0,2.18-2,6.59,6.59,0,0,0,.62-1.06A.34.34,0,0,0,8.58,99.17Z" transform="translate(-0.01)"/><path class="a" d="M91.64,53.1s0,.09,0,.14A6.07,6.07,0,0,1,89.5,56c-.56.44-1,.36-1.49-.17a4.09,4.09,0,0,1-.86-2.46c-.06-.43,0-.87-.06-1.3,0-.18-.08-.29-.27-.19-.38.18-.82.92-.67,1.24a9.58,9.58,0,0,1,.38,1.95.93.93,0,0,0,.09.34c.41.53.83,1.05,1.25,1.58a.66.66,0,0,0,.77.21,3.55,3.55,0,0,0,2.16-1.32c.48-.66,1-1.29,1.47-2a3.54,3.54,0,0,0,.29-.73,1.89,1.89,0,0,0-.37-.46C92,52.63,91.77,52.81,91.64,53.1Z" transform="translate(-0.01)"/><path class="a" d="M53.55,58.63a.44.44,0,0,0-.58.11.52.52,0,0,0-.12.26,1.38,1.38,0,0,1-.51.92,6,6,0,0,0-.57.65,2.58,2.58,0,0,1-1.21.87,1.22,1.22,0,0,1-1.67-.34,1.24,1.24,0,0,1-.19-.3,4.48,4.48,0,0,1-.55-2.13,4.85,4.85,0,0,0,0-.72.48.48,0,0,0-.24-.3c-.06,0-.23.07-.29.15a1.66,1.66,0,0,0-.21.45,9.17,9.17,0,0,0,.17,2.54A2.71,2.71,0,0,0,48.77,62a2.13,2.13,0,0,0,2.12.15,5.48,5.48,0,0,0,2.18-2,6.58,6.58,0,0,0,.62-1.06A.34.34,0,0,0,53.55,58.63Z" transform="translate(-0.01)"/><path class="a" d="M32,87.54a.45.45,0,0,0-.59.11.53.53,0,0,0-.12.26,1.39,1.39,0,0,1-.51.92,6,6,0,0,0-.57.65,2.57,2.57,0,0,1-1.21.88A1.22,1.22,0,0,1,27.37,90a1.26,1.26,0,0,1-.19-.3,4.5,4.5,0,0,1-.55-2.13,4.84,4.84,0,0,0,0-.72.47.47,0,0,0-.24-.3c-.06,0-.23.07-.29.15a1.66,1.66,0,0,0-.21.45,9.19,9.19,0,0,0,.17,2.54A2.71,2.71,0,0,0,27.26,91a2.13,2.13,0,0,0,2.12.15,5.48,5.48,0,0,0,2.18-2A6.57,6.57,0,0,0,32.18,88,.33.33,0,0,0,32,87.54Z" transform="translate(-0.01)"/><path class="a" d="M30.17,78.56s0,.09,0,.14A6.08,6.08,0,0,1,28,81.48c-.56.44-1,.36-1.49-.17a4.08,4.08,0,0,1-.86-2.47c-.06-.43,0-.86-.06-1.3,0-.18-.08-.29-.27-.19-.38.19-.82.92-.67,1.24a9.62,9.62,0,0,1,.38,2,.9.9,0,0,0,.09.34c.41.53.83,1,1.25,1.58a.66.66,0,0,0,.77.21,3.55,3.55,0,0,0,2.16-1.32c.48-.66,1-1.3,1.47-2a3.47,3.47,0,0,0,.29-.73,1.91,1.91,0,0,0-.37-.46C30.53,78.1,30.3,78.28,30.17,78.56Z" transform="translate(-0.01)"/><path class="a" d="M28.84,16.37c-.23,0-.3.22-.28.43a1.22,1.22,0,0,1-.46.93,6.83,6.83,0,0,1-1.44,1.15,1.78,1.78,0,0,1-2.21-.16,3.22,3.22,0,0,1-.69-1.49,5.17,5.17,0,0,0-.32-1,.2.2,0,0,0-.35-.06.7.7,0,0,0-.18.44,2.73,2.73,0,0,0,.62,2.07.28.28,0,0,1,.1.19c0,.4.3.53.55.69a3,3,0,0,0,1.46.47,9.06,9.06,0,0,0,1.21-.39A5.64,5.64,0,0,0,29,17.87a8.82,8.82,0,0,0,.62-1c0-.08,0-.3,0-.32A2.43,2.43,0,0,0,28.84,16.37Z" transform="translate(-0.01)"/><path class="a" d="M36,12.39a.79.79,0,0,0-.43.33,14.8,14.8,0,0,1-1.7,2.49c-.42.55-.87.51-1.23-.09a2.28,2.28,0,0,1-.34-1.23,12.87,12.87,0,0,1,.21-2.58,6.48,6.48,0,0,0,.08-.79c0-.23,0-.45-.27-.53a.49.49,0,0,0-.61.25,1.1,1.1,0,0,0-.15.47c0,.43,0,.86,0,1.28s-.1,1-.15,1.57h.08c0,.26,0,.53,0,.8A2.08,2.08,0,0,0,32,15.93a1.34,1.34,0,0,0,2.26,0,22.89,22.89,0,0,0,1.43-1.81,6.64,6.64,0,0,0,.66-1.35C36.49,12.42,36.32,12.26,36,12.39Z" transform="translate(-0.01)"/><path class="a" d="M78.22,84.15c-.23-.07-.38,0-.38.26s.11.45,0,.62a5.62,5.62,0,0,1-1.2,1.86,2.81,2.81,0,0,1-1.2.6,1.62,1.62,0,0,1-1.63-.88c-.15-.3-.23-.64-.4-.92a2.79,2.79,0,0,1-.38-1.44,6.65,6.65,0,0,0,0-.86.53.53,0,0,0-.23-.31s-.2.1-.26.18A2,2,0,0,0,72.28,85a7.44,7.44,0,0,0,1.08,2.33,2.42,2.42,0,0,0,1.71,1,3.29,3.29,0,0,0,1.77-.63,5.35,5.35,0,0,0,1.88-2.58C78.95,84.57,78.83,84.34,78.22,84.15Z" transform="translate(-0.01)"/><path class="a" d="M7.38,22.62a.44.44,0,0,0-.58.11.52.52,0,0,0-.12.26,1.38,1.38,0,0,1-.51.92,6,6,0,0,0-.57.65,2.57,2.57,0,0,1-1.21.88,1.22,1.22,0,0,1-1.67-.34,1.2,1.2,0,0,1-.19-.3A4.48,4.48,0,0,1,2,22.65a4.59,4.59,0,0,0,0-.72.47.47,0,0,0-.24-.31c-.06,0-.23.07-.29.15a1.66,1.66,0,0,0-.21.45,9.26,9.26,0,0,0,.17,2.54A2.71,2.71,0,0,0,2.6,26a2.13,2.13,0,0,0,2.12.15,5.47,5.47,0,0,0,2.18-2,6.58,6.58,0,0,0,.62-1.06A.33.33,0,0,0,7.38,22.62Z" transform="translate(-0.01)"/><path class="a" d="M95.59,88.13s0,.09,0,.14a6.06,6.06,0,0,1-2.1,2.78c-.56.44-1,.36-1.49-.17a4.07,4.07,0,0,1-.86-2.47c-.06-.43,0-.86-.06-1.3,0-.17-.08-.29-.27-.19-.38.18-.82.92-.67,1.24a9.58,9.58,0,0,1,.38,1.95.91.91,0,0,0,.09.35c.41.53.83,1,1.25,1.58a.66.66,0,0,0,.77.21,3.55,3.55,0,0,0,2.16-1.32c.48-.66,1-1.3,1.47-2a3.47,3.47,0,0,0,.29-.73,1.87,1.87,0,0,0-.37-.46C96,87.67,95.72,87.85,95.59,88.13Z" transform="translate(-0.01)"/><path class="a" d="M41,41.59a.81.81,0,0,0-.43.33,14.73,14.73,0,0,1-1.7,2.49c-.43.55-.87.51-1.23-.1a2.27,2.27,0,0,1-.34-1.23,12.89,12.89,0,0,1,.2-2.59,6.9,6.9,0,0,0,.08-.79c0-.24,0-.45-.27-.53a.49.49,0,0,0-.61.25,1.1,1.1,0,0,0-.15.47c0,.43,0,.86,0,1.28s-.1,1-.15,1.57h.07c0,.27,0,.53,0,.8a2.09,2.09,0,0,0,.57,1.58,1.34,1.34,0,0,0,2.26,0,22.46,22.46,0,0,0,1.43-1.81A6.5,6.5,0,0,0,41.43,42C41.57,41.63,41.4,41.47,41,41.59Z" transform="translate(-0.01)"/><path class="a" d="M32.32,32.69a.52.52,0,0,0-.4.2,1.21,1.21,0,0,0-.27.59c-.05.67-.54.95-1,1.18a5.72,5.72,0,0,1-3,.46A1,1,0,0,1,27,35,2.6,2.6,0,0,1,26,33.47c-.06-.35-.1-.71-.19-1.06,0-.11-.19-.28-.27-.27a.55.55,0,0,0-.38.24.84.84,0,0,0-.06.49,5.28,5.28,0,0,0,.45,1.73,2.23,2.23,0,0,0,1,1A4.12,4.12,0,0,0,28.3,36c.59-.08,1.18-.15,1.77-.25a3.14,3.14,0,0,0,2.51-2.19,1.81,1.81,0,0,0,.08-.35A.39.39,0,0,0,32.32,32.69Z" transform="translate(-0.01)"/><path class="a" d="M107.47,91a.44.44,0,0,0-.58.11.52.52,0,0,0-.12.26,1.38,1.38,0,0,1-.51.92,5.65,5.65,0,0,0-.57.65,2.58,2.58,0,0,1-1.21.87,1.22,1.22,0,0,1-1.67-.34,1.24,1.24,0,0,1-.19-.3,4.48,4.48,0,0,1-.55-2.13,4.86,4.86,0,0,0,0-.72.48.48,0,0,0-.24-.3c-.06,0-.23.07-.29.15a1.66,1.66,0,0,0-.21.45,9.17,9.17,0,0,0,.17,2.54,2.71,2.71,0,0,0,1.21,1.27,2.13,2.13,0,0,0,2.12.15,5.46,5.46,0,0,0,2.18-2,6.72,6.72,0,0,0,.62-1.06A.33.33,0,0,0,107.47,91Z" transform="translate(-0.01)"/><path class="a" d="M105.74,73.64a.53.53,0,0,0-.4.2,1.22,1.22,0,0,0-.27.59c-.05.66-.54.95-1,1.18a5.72,5.72,0,0,1-3,.46,1,1,0,0,1-.54-.16,2.61,2.61,0,0,1-1.06-1.5c-.06-.35-.1-.71-.19-1.06,0-.11-.18-.28-.27-.27a.55.55,0,0,0-.38.23.86.86,0,0,0-.06.49A5.26,5.26,0,0,0,99,75.55a2.22,2.22,0,0,0,1,1,4.13,4.13,0,0,0,1.77.36c.59-.08,1.18-.15,1.77-.25A3.14,3.14,0,0,0,106,74.46a2,2,0,0,0,.08-.35A.39.39,0,0,0,105.74,73.64Z" transform="translate(-0.01)"/><path class="a" d="M73.65,91.76c-.08,0-.2.14-.19.19a.33.33,0,0,0,.2.21c.24.05.37.21.27.4-.27.5-.4,1.08-.92,1.41a9.81,9.81,0,0,0-.94.67,2.75,2.75,0,0,1-1.82.58,2.16,2.16,0,0,1-1.57-.61A4.06,4.06,0,0,1,67.75,93a3,3,0,0,1-.09-1.84c0-.11.09-.25-.11-.26a.72.72,0,0,0-.84.7,2.8,2.8,0,0,0,.07.93,11.82,11.82,0,0,0,.53,1.4A3.2,3.2,0,0,0,70.4,96a4.68,4.68,0,0,0,1.46-.32,6.7,6.7,0,0,0,2.42-2.1,7.69,7.69,0,0,0,.48-.72A.8.8,0,0,0,74.6,92,1,1,0,0,0,73.65,91.76Z" transform="translate(-0.01)"/><path class="a" d="M102.43,24.62s0,.09,0,.14a6.07,6.07,0,0,1-2.1,2.78c-.56.44-1,.36-1.49-.17a4.08,4.08,0,0,1-.86-2.47c-.06-.43,0-.86-.06-1.3,0-.18-.08-.29-.27-.19-.38.19-.82.92-.67,1.24a9.58,9.58,0,0,1,.38,1.95.9.9,0,0,0,.09.34c.41.53.83,1,1.25,1.58a.66.66,0,0,0,.77.21,3.55,3.55,0,0,0,2.16-1.32c.48-.66,1-1.29,1.47-2a3.44,3.44,0,0,0,.29-.73,1.88,1.88,0,0,0-.37-.46C102.79,24.16,102.55,24.33,102.43,24.62Z" transform="translate(-0.01)"/><path class="a" d="M79.6,32.23s0,.09,0,.14a6.07,6.07,0,0,1-2.1,2.78c-.56.44-1,.36-1.49-.17a4.09,4.09,0,0,1-.86-2.47c-.06-.43,0-.86-.06-1.3,0-.18-.08-.29-.27-.19-.38.19-.82.92-.67,1.24a9.76,9.76,0,0,1,.38,2,.89.89,0,0,0,.09.34c.41.53.83,1,1.25,1.58a.66.66,0,0,0,.77.21A3.54,3.54,0,0,0,78.76,35c.48-.66,1-1.3,1.47-2a3.59,3.59,0,0,0,.29-.73,1.89,1.89,0,0,0-.37-.46C80,31.76,79.73,31.94,79.6,32.23Z" transform="translate(-0.01)"/><path class="a" d="M0,39v.31A.37.37,0,0,0,0,39Z" transform="translate(-0.01)"/><path class="a" d="M108.56,38.82a.44.44,0,0,0-.58.11.52.52,0,0,0-.12.26,1.38,1.38,0,0,1-.51.92,5.81,5.81,0,0,0-.57.65,2.58,2.58,0,0,1-1.21.88,1.22,1.22,0,0,1-1.68-.34,1.25,1.25,0,0,1-.19-.31,4.48,4.48,0,0,1-.55-2.13,4.84,4.84,0,0,0,0-.72.47.47,0,0,0-.24-.3c-.06,0-.23.07-.29.15a1.66,1.66,0,0,0-.21.45,9.19,9.19,0,0,0,.17,2.54,2.71,2.71,0,0,0,1.21,1.26,2.13,2.13,0,0,0,2.12.15,5.47,5.47,0,0,0,2.18-2,6.58,6.58,0,0,0,.62-1.06V39A.31.31,0,0,0,108.56,38.82Z" transform="translate(-0.01)"/><path class="a" d="M29.08,58.07c-.08,0-.2.14-.19.19a.34.34,0,0,0,.2.21c.24.05.38.21.27.4-.27.5-.4,1.08-.92,1.42a9.5,9.5,0,0,0-.94.67,2.74,2.74,0,0,1-1.82.58,2.16,2.16,0,0,1-1.57-.61,4.1,4.1,0,0,1-.94-1.59,3,3,0,0,1-.09-1.84c0-.11.09-.25-.11-.26a.72.72,0,0,0-.83.7,2.7,2.7,0,0,0,.07.93,11.48,11.48,0,0,0,.53,1.4,3.2,3.2,0,0,0,3.09,2.07A4.7,4.7,0,0,0,27.29,62a6.73,6.73,0,0,0,2.42-2.1,8.05,8.05,0,0,0,.47-.72.81.81,0,0,0-.15-.94A1,1,0,0,0,29.08,58.07Z" transform="translate(-0.01)"/><path class="a" d="M48.77,76.87a.44.44,0,0,0-.59.11.51.51,0,0,0-.12.26,1.4,1.4,0,0,1-.51.92,5.85,5.85,0,0,0-.57.65,2.57,2.57,0,0,1-1.21.87,1.22,1.22,0,0,1-1.67-.34,1.2,1.2,0,0,1-.19-.31,4.48,4.48,0,0,1-.55-2.13,4.59,4.59,0,0,0,0-.72.47.47,0,0,0-.24-.3c-.06,0-.23.07-.29.15a1.66,1.66,0,0,0-.21.45A9.26,9.26,0,0,0,42.78,79,2.71,2.71,0,0,0,44,80.29a2.12,2.12,0,0,0,2.12.15,5.45,5.45,0,0,0,2.18-2,6.58,6.58,0,0,0,.62-1.06A.33.33,0,0,0,48.77,76.87Z" transform="translate(-0.01)"/><path class="a" d="M24.51,92a3.26,3.26,0,0,0-.47.28c-.06,0,0,.18-.07.27a2.48,2.48,0,0,1-.3.79,12.32,12.32,0,0,1-1.5,1.54A8,8,0,0,1,20,96.13,1.42,1.42,0,0,1,17.91,95c-.11-.73-.12-1.48-.21-2.22a3.14,3.14,0,0,0-.21-.64,3.51,3.51,0,0,0-.56.52.86.86,0,0,0-.12.54A11.77,11.77,0,0,0,17.05,95c.12.49.07,1.08.59,1.41.29.74.91.81,1.55.7a7.55,7.55,0,0,0,1.73-.45,7,7,0,0,0,1.66-1A21.66,21.66,0,0,0,24.28,94a1.32,1.32,0,0,0,.43-1l-.12-.56Z" transform="translate(-0.01)"/><path class="a" d="M1.45,3.75a1.32,1.32,0,0,0,.44-1l-.12-.56-.08-.37a3.26,3.26,0,0,0-.47.28c-.06,0,0,.18-.07.27a2.47,2.47,0,0,1-.3.79C.58,3.43.3,3.74,0,4V5.2C.51,4.74,1,4.24,1.45,3.75Z" transform="translate(-0.01)"/><path class="a" d="M108.05,4.66a8,8,0,0,1-2.16,1.25,1.42,1.42,0,0,1-2.1-1.13c-.11-.74-.12-1.48-.21-2.22a3.17,3.17,0,0,0-.21-.64,3.61,3.61,0,0,0-.56.52.88.88,0,0,0-.12.54,11.54,11.54,0,0,0,.23,1.78c.12.49.07,1.08.59,1.41.29.74.91.81,1.55.7a7.45,7.45,0,0,0,1.73-.45,7,7,0,0,0,1.66-1c.09-.07.16-.15.24-.23V4A7.64,7.64,0,0,1,108.05,4.66Z" transform="translate(-0.01)"/><path class="a" d="M26.39,108.43a.52.52,0,0,0-.4.2l0,.07h.79A.4.4,0,0,0,26.39,108.43Z" transform="translate(-0.01)"/><path class="a" d="M19.86,108.15c0-.11-.19-.28-.27-.27a.55.55,0,0,0-.38.24.84.84,0,0,0-.06.49v.1H20C19.94,108.52,19.91,108.33,19.86,108.15Z" transform="translate(-0.01)"/><path class="a" d="M20.61,2.62A4.12,4.12,0,0,0,22.38,3c.59-.08,1.19-.15,1.77-.25A3.14,3.14,0,0,0,26.66.54a1.72,1.72,0,0,0,.08-.35.44.44,0,0,0,0-.19h-.79a1.11,1.11,0,0,0-.22.51c-.05.67-.54.95-1,1.18a5.71,5.71,0,0,1-3,.46A1,1,0,0,1,21.11,2,2.61,2.61,0,0,1,20.05.5C20,.33,20,.17,20,0h-.81a5.11,5.11,0,0,0,.44,1.63A2.22,2.22,0,0,0,20.61,2.62Z" transform="translate(-0.01)"/><path class="a" d="M73.49,50.6c-.23-.07-.38,0-.38.26s.11.45,0,.62a5.59,5.59,0,0,1-1.2,1.86,2.8,2.8,0,0,1-1.2.6,1.63,1.63,0,0,1-1.63-.88c-.15-.3-.23-.64-.4-.92a2.77,2.77,0,0,1-.38-1.44,6.66,6.66,0,0,0,0-.86.55.55,0,0,0-.23-.31s-.2.1-.27.18a2,2,0,0,0-.25,1.79,7.36,7.36,0,0,0,1.08,2.33,2.41,2.41,0,0,0,1.71,1,3.31,3.31,0,0,0,1.77-.63A5.38,5.38,0,0,0,74,51.62C74.22,51,74.1,50.79,73.49,50.6Z" transform="translate(-0.01)"/><path class="a" d="M40.88,62.56c-.23-.07-.38,0-.38.26s.11.45,0,.62a5.6,5.6,0,0,1-1.2,1.86,2.82,2.82,0,0,1-1.2.6A1.63,1.63,0,0,1,36.5,65c-.15-.3-.23-.64-.4-.92a2.77,2.77,0,0,1-.38-1.44,6.63,6.63,0,0,0,0-.86.55.55,0,0,0-.23-.31s-.2.1-.27.18a2,2,0,0,0-.25,1.79A7.37,7.37,0,0,0,36,65.78a2.42,2.42,0,0,0,1.71,1,3.31,3.31,0,0,0,1.77-.63,5.36,5.36,0,0,0,1.88-2.58C41.61,63,41.49,62.75,40.88,62.56Z" transform="translate(-0.01)"/><path class="a" d="M56.55,98a.8.8,0,0,0-.43.33,14.74,14.74,0,0,1-1.7,2.49c-.42.55-.87.51-1.23-.1a2.26,2.26,0,0,1-.34-1.23,12.89,12.89,0,0,1,.2-2.59,6.49,6.49,0,0,0,.08-.79c0-.24,0-.45-.27-.53a.49.49,0,0,0-.61.25,1.09,1.09,0,0,0-.15.47c0,.43,0,.86,0,1.28s-.1,1-.15,1.57H52c0,.27,0,.53,0,.8a2.09,2.09,0,0,0,.57,1.57,1.34,1.34,0,0,0,2.26,0,22.47,22.47,0,0,0,1.43-1.81,6.59,6.59,0,0,0,.66-1.35C57.07,98.08,56.91,97.92,56.55,98Z" transform="translate(-0.01)"/><path class="a" d="M24.85,27.95a.44.44,0,0,0-.59.11.5.5,0,0,0-.12.26,1.4,1.4,0,0,1-.51.92,6,6,0,0,0-.57.65,2.57,2.57,0,0,1-1.21.88,1.22,1.22,0,0,1-1.67-.34,1.26,1.26,0,0,1-.19-.3A4.48,4.48,0,0,1,19.45,28a4.6,4.6,0,0,0,0-.72.47.47,0,0,0-.24-.3c-.06,0-.23.07-.29.15a1.66,1.66,0,0,0-.21.45,9.26,9.26,0,0,0,.17,2.54,2.72,2.72,0,0,0,1.21,1.26,2.13,2.13,0,0,0,2.12.15,5.46,5.46,0,0,0,2.18-2A6.51,6.51,0,0,0,25,28.44.34.34,0,0,0,24.85,27.95Z" transform="translate(-0.01)"/><path class="a" d="M19,63.53c-.23,0-.3.22-.28.43a1.22,1.22,0,0,1-.46.93A6.77,6.77,0,0,1,16.8,66a1.78,1.78,0,0,1-2.21-.16,3.24,3.24,0,0,1-.69-1.48,5,5,0,0,0-.32-1,.2.2,0,0,0-.35-.06.7.7,0,0,0-.18.44,2.73,2.73,0,0,0,.62,2.07.28.28,0,0,1,.1.19c0,.4.3.53.55.69a3,3,0,0,0,1.46.47A8.8,8.8,0,0,0,17,66.79,5.63,5.63,0,0,0,19.14,65a9.24,9.24,0,0,0,.62-1c0-.09,0-.31,0-.32A2.43,2.43,0,0,0,19,63.53Z" transform="translate(-0.01)"/><path class="a" d="M40.88,72.34c-.23-.07-.38,0-.38.26s.11.45,0,.62a5.61,5.61,0,0,1-1.2,1.86,2.8,2.8,0,0,1-1.2.6,1.63,1.63,0,0,1-1.63-.88c-.15-.3-.23-.64-.4-.92a2.77,2.77,0,0,1-.38-1.44,6.63,6.63,0,0,0,0-.86.54.54,0,0,0-.23-.31s-.2.1-.27.18a2,2,0,0,0-.25,1.79A7.37,7.37,0,0,0,36,75.56a2.42,2.42,0,0,0,1.71,1,3.33,3.33,0,0,0,1.77-.63,5.36,5.36,0,0,0,1.88-2.58C41.61,72.76,41.49,72.53,40.88,72.34Z" transform="translate(-0.01)"/><path class="a" d="M85.61,100.46c-.08,0-.2.14-.19.19a.33.33,0,0,0,.2.21c.24,0,.37.21.27.4-.27.5-.4,1.08-.92,1.41a9.51,9.51,0,0,0-.94.67,2.74,2.74,0,0,1-1.82.58,2.15,2.15,0,0,1-1.57-.61,4.09,4.09,0,0,1-.94-1.59,3,3,0,0,1-.09-1.84c0-.11.09-.25-.11-.26a.72.72,0,0,0-.84.7,2.78,2.78,0,0,0,.07.92,11.7,11.7,0,0,0,.53,1.4,3.2,3.2,0,0,0,3.09,2.07,4.68,4.68,0,0,0,1.46-.32,6.72,6.72,0,0,0,2.42-2.1,7.68,7.68,0,0,0,.48-.72.81.81,0,0,0-.15-.94A1,1,0,0,0,85.61,100.46Z" transform="translate(-0.01)"/><path class="a" d="M71.6,70.34a.44.44,0,0,0-.59.11.53.53,0,0,0-.12.26,1.39,1.39,0,0,1-.51.92,5.87,5.87,0,0,0-.57.65,2.57,2.57,0,0,1-1.21.87,1.22,1.22,0,0,1-1.67-.34,1.2,1.2,0,0,1-.19-.31,4.48,4.48,0,0,1-.55-2.13,4.6,4.6,0,0,0,0-.72.47.47,0,0,0-.24-.3c-.06,0-.23.07-.29.15a1.66,1.66,0,0,0-.21.45,9.26,9.26,0,0,0,.17,2.54,2.72,2.72,0,0,0,1.21,1.26,2.13,2.13,0,0,0,2.12.15,5.45,5.45,0,0,0,2.18-2,6.59,6.59,0,0,0,.62-1.06A.33.33,0,0,0,71.6,70.34Z" transform="translate(-0.01)"/><path class="a" d="M40.52,93.21a.52.52,0,0,0-.4.2,1.21,1.21,0,0,0-.27.59c-.05.66-.54.95-1,1.18a5.73,5.73,0,0,1-3,.46,1,1,0,0,1-.54-.16A2.6,2.6,0,0,1,34.18,94c-.06-.35-.1-.71-.19-1.06,0-.11-.19-.28-.27-.27a.56.56,0,0,0-.38.24.86.86,0,0,0-.06.49,5.28,5.28,0,0,0,.45,1.73,2.22,2.22,0,0,0,1,1,4.12,4.12,0,0,0,1.77.36c.59-.08,1.19-.15,1.77-.25A3.15,3.15,0,0,0,40.79,94a1.73,1.73,0,0,0,.08-.35A.39.39,0,0,0,40.52,93.21Z" transform="translate(-0.01)"/><path class="a" d="M107.5,56.72a4.07,4.07,0,0,1-.86-2.47c-.06-.43,0-.86-.06-1.3,0-.18-.08-.29-.27-.19-.38.19-.82.92-.67,1.24a9.62,9.62,0,0,1,.38,2,.9.9,0,0,0,.09.34c.41.53.83,1,1.25,1.58a.66.66,0,0,0,.77.21,5.44,5.44,0,0,0,.59-.18v-.86C108.28,57.27,107.91,57.16,107.5,56.72Z" transform="translate(-0.01)"/><path class="a" d="M1.58,56.77c.48-.66,1-1.3,1.46-2a3.37,3.37,0,0,0,.29-.73A1.87,1.87,0,0,0,3,53.62c-.17-.11-.41.07-.53.35,0,0,0,.09,0,.14a6.08,6.08,0,0,1-2.1,2.78,1.58,1.58,0,0,1-.27.16v.86A3.2,3.2,0,0,0,1.58,56.77Z" transform="translate(-0.01)"/><path class="a" d="M7.25,108.49c-.06,0-.23.07-.29.15s0,0,0,.07h.52A.47.47,0,0,0,7.25,108.49Z" transform="translate(-0.01)"/><path class="a" d="M6.91,2.93A2.71,2.71,0,0,0,8.12,4.19a2.13,2.13,0,0,0,2.12.15,5.46,5.46,0,0,0,2.18-2A6.34,6.34,0,0,0,13,1.26a.34.34,0,0,0-.14-.49.44.44,0,0,0-.59.11.52.52,0,0,0-.12.26,1.39,1.39,0,0,1-.51.92,5.84,5.84,0,0,0-.57.65,2.57,2.57,0,0,1-1.21.88,1.22,1.22,0,0,1-1.67-.34A1.26,1.26,0,0,1,8,2.94,4.47,4.47,0,0,1,7.5.81a4.87,4.87,0,0,0,0-.72.43.43,0,0,0,0-.09H6.92a2,2,0,0,0-.18.38A9.18,9.18,0,0,0,6.91,2.93Z" transform="translate(-0.01)"/><path class="a" d="M91.16,76.87a.44.44,0,0,0-.58.11.52.52,0,0,0-.12.26,1.38,1.38,0,0,1-.51.92,6,6,0,0,0-.57.65,2.57,2.57,0,0,1-1.21.87,1.22,1.22,0,0,1-1.67-.34,1.2,1.2,0,0,1-.19-.31,4.48,4.48,0,0,1-.55-2.13,4.84,4.84,0,0,0,0-.72.48.48,0,0,0-.24-.3c-.06,0-.23.07-.29.15a1.66,1.66,0,0,0-.21.45A9.18,9.18,0,0,0,85.18,79a2.72,2.72,0,0,0,1.21,1.26,2.13,2.13,0,0,0,2.12.15,5.46,5.46,0,0,0,2.18-2,6.58,6.58,0,0,0,.62-1.06A.34.34,0,0,0,91.16,76.87Z" transform="translate(-0.01)"/><path class="a" d="M62.56,61.56a3.62,3.62,0,0,0-.47.28c-.06,0,0,.18-.07.27a2.47,2.47,0,0,1-.3.79,12.31,12.31,0,0,1-1.5,1.54,8,8,0,0,1-2.16,1.25A1.42,1.42,0,0,1,56,64.56c-.11-.73-.12-1.48-.21-2.22a3.14,3.14,0,0,0-.21-.64,3.53,3.53,0,0,0-.56.52.87.87,0,0,0-.12.54,11.49,11.49,0,0,0,.23,1.78c.12.49.07,1.08.59,1.41.29.74.91.81,1.55.7A7.53,7.53,0,0,0,59,66.21a6.92,6.92,0,0,0,1.66-1,21.34,21.34,0,0,0,1.69-1.68,1.32,1.32,0,0,0,.43-1l-.12-.56Z" transform="translate(-0.01)"/><path class="a" d="M40.11,108.43a4.62,4.62,0,0,0,0-.72.47.47,0,0,0-.24-.3c-.06,0-.23.07-.29.15a1.66,1.66,0,0,0-.21.45,2.74,2.74,0,0,0,0,.7h.8C40.12,108.61,40.11,108.52,40.11,108.43Z" transform="translate(-0.01)"/><path class="a" d="M45.51,108.39a.44.44,0,0,0-.59.11.6.6,0,0,0-.1.21h.88A.31.31,0,0,0,45.51,108.39Z" transform="translate(-0.01)"/><path class="a" d="M40.73,3.11a2.13,2.13,0,0,0,2.12.15,5.46,5.46,0,0,0,2.18-2A6.35,6.35,0,0,0,45.65.18a.45.45,0,0,0,0-.18h-.88a.2.2,0,0,0,0,.05,1.4,1.4,0,0,1-.51.92,5.83,5.83,0,0,0-.57.65,2.57,2.57,0,0,1-1.21.88,1.22,1.22,0,0,1-1.67-.34,1.26,1.26,0,0,1-.19-.3A4.7,4.7,0,0,1,40.12,0h-.8a10.2,10.2,0,0,0,.2,1.84A2.7,2.7,0,0,0,40.73,3.11Z" transform="translate(-0.01)"/><path class="a" d="M88.08,36.08a.79.79,0,0,0-.43.33,14.81,14.81,0,0,1-1.7,2.49c-.42.55-.87.51-1.23-.09a2.28,2.28,0,0,1-.34-1.23A12.86,12.86,0,0,1,84.58,35a6.49,6.49,0,0,0,.08-.79c0-.24,0-.45-.27-.53a.49.49,0,0,0-.61.25,1.1,1.1,0,0,0-.15.47c0,.43,0,.86,0,1.28s-.1,1-.15,1.57h.08c0,.26,0,.53,0,.79a2.09,2.09,0,0,0,.57,1.58,1.34,1.34,0,0,0,2.26,0c.5-.59,1-1.18,1.43-1.81a6.6,6.6,0,0,0,.66-1.35C88.6,36.12,88.43,36,88.08,36.08Z" transform="translate(-0.01)"/><path class="a" d="M9,47.55a.53.53,0,0,0-.4.21,1.19,1.19,0,0,0-.27.59c-.05.67-.54.95-1,1.18a5.69,5.69,0,0,1-3,.46,1,1,0,0,1-.54-.16,2.6,2.6,0,0,1-1.06-1.5c-.06-.35-.1-.71-.19-1.06,0-.11-.19-.28-.27-.27a.55.55,0,0,0-.38.23.84.84,0,0,0-.06.49,5.29,5.29,0,0,0,.45,1.73,2.23,2.23,0,0,0,1,1A4.1,4.1,0,0,0,5,50.82c.59-.08,1.18-.15,1.77-.25a3.15,3.15,0,0,0,2.51-2.19A1.88,1.88,0,0,0,9.35,48,.39.39,0,0,0,9,47.55Z" transform="translate(-0.01)"/><path class="a" d="M56.1,25.6c-.23-.07-.38,0-.38.26s.11.45,0,.62a5.59,5.59,0,0,1-1.2,1.86,2.8,2.8,0,0,1-1.2.6,1.62,1.62,0,0,1-1.63-.88c-.15-.3-.23-.64-.4-.92a2.77,2.77,0,0,1-.38-1.44,6.65,6.65,0,0,0,0-.86.55.55,0,0,0-.23-.31s-.2.1-.27.18a2,2,0,0,0-.25,1.79,7.4,7.4,0,0,0,1.08,2.33,2.42,2.42,0,0,0,1.71,1,3.3,3.3,0,0,0,1.77-.63,5.37,5.37,0,0,0,1.88-2.58C56.83,26,56.71,25.79,56.1,25.6Z" transform="translate(-0.01)"/><path class="a" d="M61.47,10.47a3.46,3.46,0,0,0-.47.29c-.06,0,0,.18-.07.27a2.43,2.43,0,0,1-.3.79,12.06,12.06,0,0,1-1.5,1.54A8,8,0,0,1,57,14.6a1.42,1.42,0,0,1-2.09-1.13c-.11-.74-.12-1.48-.21-2.22a3.13,3.13,0,0,0-.21-.64,3.62,3.62,0,0,0-.56.52.88.88,0,0,0-.12.54A11.49,11.49,0,0,0,54,13.45c.12.49.07,1.08.59,1.41.29.74.91.81,1.55.7a7.53,7.53,0,0,0,1.73-.45,7,7,0,0,0,1.66-1,21.33,21.33,0,0,0,1.69-1.68,1.31,1.31,0,0,0,.43-1l-.12-.56Z" transform="translate(-0.01)"/><path class="a" d="M50.66,40.81c-.23-.07-.38,0-.38.26s.11.45,0,.62a5.59,5.59,0,0,1-1.2,1.86,2.8,2.8,0,0,1-1.2.6,1.62,1.62,0,0,1-1.63-.88c-.15-.3-.23-.64-.4-.92a2.77,2.77,0,0,1-.38-1.44,6.66,6.66,0,0,0,0-.86.55.55,0,0,0-.23-.31s-.2.1-.27.18a2,2,0,0,0-.25,1.79A7.37,7.37,0,0,0,45.8,44a2.41,2.41,0,0,0,1.71,1,3.31,3.31,0,0,0,1.77-.63,5.36,5.36,0,0,0,1.88-2.58C51.39,41.24,51.28,41,50.66,40.81Z" transform="translate(-0.01)"/><path class="a" d="M108.24,33.49c-.15-.3-.23-.64-.4-.92a2.79,2.79,0,0,1-.38-1.44,7,7,0,0,0,0-.86.55.55,0,0,0-.23-.31s-.2.1-.27.18a2,2,0,0,0-.25,1.79,7.44,7.44,0,0,0,1.08,2.33,2.57,2.57,0,0,0,1,.78V34A1.62,1.62,0,0,1,108.24,33.49Z" transform="translate(-0.01)"/><path class="a" d="M2.54,34.63A5.35,5.35,0,0,0,4.42,32c.23-.59.12-.83-.5-1-.23-.07-.38,0-.38.26s.11.45,0,.62a5.61,5.61,0,0,1-1.2,1.86,2.82,2.82,0,0,1-1.2.6A1.44,1.44,0,0,1,0,34v1a2.26,2.26,0,0,0,.76.22A3.29,3.29,0,0,0,2.54,34.63Z" transform="translate(-0.01)"/><path class="a" d="M79.87,11.35c-.23,0-.3.22-.28.43a1.22,1.22,0,0,1-.46.93,6.77,6.77,0,0,1-1.44,1.15,1.78,1.78,0,0,1-2.21-.16,3.23,3.23,0,0,1-.68-1.48,5.06,5.06,0,0,0-.32-1,.2.2,0,0,0-.35-.06.68.68,0,0,0-.18.44,2.73,2.73,0,0,0,.62,2.07.29.29,0,0,1,.1.18c0,.4.3.53.55.69a3,3,0,0,0,1.46.47,8.49,8.49,0,0,0,1.21-.39A5.61,5.61,0,0,0,80,12.85a8.79,8.79,0,0,0,.62-1c0-.08,0-.31,0-.32A2.44,2.44,0,0,0,79.87,11.35Z" transform="translate(-0.01)"/><path class="a" d="M108,68a3,3,0,0,1-.09-1.84c0-.11.09-.25-.11-.26a.72.72,0,0,0-.84.7,2.7,2.7,0,0,0,.07.93,11.18,11.18,0,0,0,.53,1.4,3.44,3.44,0,0,0,1.17,1.5V69.39A4.67,4.67,0,0,1,108,68Z" transform="translate(-0.01)"/><path class="a" d="M3.38,70.71a6.72,6.72,0,0,0,2.42-2.1,7.69,7.69,0,0,0,.47-.72A.81.81,0,0,0,6.12,67a1,1,0,0,0-1-.19c-.08,0-.2.14-.19.19a.33.33,0,0,0,.2.21c.24.05.38.21.27.4-.27.5-.4,1.08-.92,1.41a9.83,9.83,0,0,0-.94.67,2.74,2.74,0,0,1-1.82.58A2.16,2.16,0,0,1,.2,69.62a2.51,2.51,0,0,1-.2-.23v1.06A3.38,3.38,0,0,0,1.92,71,4.7,4.7,0,0,0,3.38,70.71Z" transform="translate(-0.01)"/><path class="a" d="M70.61.45a4.1,4.1,0,0,0,1.77.36C73,.73,73.57.66,74.15.56A3.06,3.06,0,0,0,75.45,0H72.67A6.09,6.09,0,0,1,72,0H70A2.5,2.5,0,0,0,70.61.45Z" transform="translate(-0.01)"/><path class="a" d="M71.66,108.69a1,1,0,0,1-.54-.16,2.61,2.61,0,0,1-1.06-1.5c-.06-.35-.1-.71-.19-1.06,0-.11-.19-.28-.27-.27a.56.56,0,0,0-.38.24.87.87,0,0,0-.06.49,5.24,5.24,0,0,0,.45,1.73,2,2,0,0,0,.4.54h2Z" transform="translate(-0.01)"/><path class="a" d="M76.66,107.07a1.82,1.82,0,0,0,.08-.35.39.39,0,0,0-.35-.46.53.53,0,0,0-.41.2,1.2,1.2,0,0,0-.26.59c-.05.67-.54.95-1,1.18a5.3,5.3,0,0,1-2,.48h2.78A3.42,3.42,0,0,0,76.66,107.07Z" transform="translate(-0.01)"/><path class="a" d="M100,64.35a.8.8,0,0,0-.43.33,14.75,14.75,0,0,1-1.7,2.49c-.42.55-.87.51-1.23-.09a2.28,2.28,0,0,1-.34-1.23,12.87,12.87,0,0,1,.21-2.58,6.87,6.87,0,0,0,.08-.79c0-.24,0-.45-.27-.53a.49.49,0,0,0-.61.25,1.11,1.11,0,0,0-.15.47c0,.43,0,.86,0,1.28s-.1,1-.15,1.57h.08c0,.26,0,.53,0,.79a2.09,2.09,0,0,0,.57,1.58,1.34,1.34,0,0,0,2.26,0,22.87,22.87,0,0,0,1.43-1.81,6.45,6.45,0,0,0,.66-1.35C100.56,64.38,100.39,64.22,100,64.35Z" transform="translate(-0.01)"/><path class="a" d="M81.56,55.65a.8.8,0,0,0-.43.33,14.75,14.75,0,0,1-1.7,2.49c-.42.55-.87.51-1.23-.09a2.28,2.28,0,0,1-.34-1.23,12.86,12.86,0,0,1,.21-2.58,6.49,6.49,0,0,0,.08-.79c0-.24,0-.45-.27-.53a.49.49,0,0,0-.61.25,1.1,1.1,0,0,0-.15.47c0,.43,0,.85,0,1.28s-.1,1-.15,1.57H77c0,.26,0,.53,0,.79a2.09,2.09,0,0,0,.57,1.58,1.34,1.34,0,0,0,2.26,0,22.9,22.9,0,0,0,1.43-1.81A6.54,6.54,0,0,0,81.94,56C82.08,55.69,81.91,55.52,81.56,55.65Z" transform="translate(-0.01)"/><path class="a" d="M87.21,6.14s0,.09,0,.14a6.06,6.06,0,0,1-2.1,2.78c-.56.44-1,.36-1.49-.17a4.08,4.08,0,0,1-.86-2.46c-.06-.43,0-.87-.06-1.3,0-.18-.08-.29-.27-.19-.38.18-.82.92-.67,1.24a9.59,9.59,0,0,1,.38,1.95.93.93,0,0,0,.09.34C82.59,9,83,9.52,83.43,10a.66.66,0,0,0,.77.21,3.54,3.54,0,0,0,2.16-1.32c.48-.66,1-1.29,1.47-2a3.45,3.45,0,0,0,.29-.73,1.88,1.88,0,0,0-.37-.46C87.57,5.67,87.34,5.85,87.21,6.14Z" transform="translate(-0.01)"/><path class="a" d="M29.08,67.85c-.08,0-.2.14-.19.19a.34.34,0,0,0,.2.21c.24.05.38.21.27.4-.27.5-.4,1.08-.92,1.42a9.5,9.5,0,0,0-.94.67,2.74,2.74,0,0,1-1.82.58,2.16,2.16,0,0,1-1.57-.61,4.11,4.11,0,0,1-.94-1.59,3,3,0,0,1-.09-1.84c0-.11.09-.25-.11-.26a.72.72,0,0,0-.83.7,2.7,2.7,0,0,0,.07.93,11.48,11.48,0,0,0,.53,1.4,3.2,3.2,0,0,0,3.09,2.07,4.7,4.7,0,0,0,1.46-.32,6.72,6.72,0,0,0,2.42-2.1,8.05,8.05,0,0,0,.47-.72A.81.81,0,0,0,30,68,1,1,0,0,0,29.08,67.85Z" transform="translate(-0.01)"/><path class="a" d="M57.86,48.54s0,.09,0,.14a6.09,6.09,0,0,1-2.1,2.78c-.56.44-1,.36-1.49-.17a4.09,4.09,0,0,1-.86-2.47c-.06-.43,0-.86-.06-1.3,0-.18-.08-.29-.27-.19-.38.19-.82.92-.67,1.24a9.63,9.63,0,0,1,.38,2,.93.93,0,0,0,.09.34c.41.53.83,1,1.25,1.58a.66.66,0,0,0,.77.21A3.54,3.54,0,0,0,57,51.33c.48-.66,1-1.3,1.47-2a3.57,3.57,0,0,0,.29-.73,1.92,1.92,0,0,0-.37-.46C58.22,48.07,58,48.25,57.86,48.54Z" transform="translate(-0.01)"/><path class="a" d="M68.79,34.51a.53.53,0,0,0-.41.21,1.19,1.19,0,0,0-.26.59c-.05.67-.54.95-1,1.18a5.72,5.72,0,0,1-3,.46,1,1,0,0,1-.54-.16,2.62,2.62,0,0,1-1.06-1.5c-.06-.36-.1-.71-.19-1.06,0-.11-.19-.28-.27-.27a.55.55,0,0,0-.38.24.85.85,0,0,0-.06.49A5.25,5.25,0,0,0,62,36.42a2.22,2.22,0,0,0,1,1,4.11,4.11,0,0,0,1.77.36c.59-.08,1.19-.15,1.77-.25a3.14,3.14,0,0,0,2.51-2.19,1.87,1.87,0,0,0,.08-.35A.39.39,0,0,0,68.79,34.51Z" transform="translate(-0.01)"/><path class="a" d="M52.48,85.6a.52.52,0,0,0-.4.2,1.19,1.19,0,0,0-.27.59c-.05.66-.54.95-1,1.18a5.71,5.71,0,0,1-3,.46,1,1,0,0,1-.54-.16,2.6,2.6,0,0,1-1.06-1.5c-.06-.35-.1-.71-.19-1.06,0-.11-.19-.28-.27-.27a.56.56,0,0,0-.38.24.86.86,0,0,0-.06.49,5.31,5.31,0,0,0,.45,1.73,2.23,2.23,0,0,0,1,1,4.13,4.13,0,0,0,1.77.36c.59-.08,1.19-.15,1.77-.25a3.14,3.14,0,0,0,2.51-2.19,1.74,1.74,0,0,0,.08-.35A.39.39,0,0,0,52.48,85.6Z" transform="translate(-0.01)"/><path class="a" d="M108.56,83.31a7,7,0,0,0,0-.86.54.54,0,0,0-.23-.31s-.2.1-.27.18a2,2,0,0,0-.25,1.79,7.84,7.84,0,0,0,.94,2.12v-2A3,3,0,0,1,108.56,83.31Z" transform="translate(-0.01)"/><path class="a" d="M1.85,87.43a3.31,3.31,0,0,0,1.77-.62A5.35,5.35,0,0,0,5.5,84.23c.23-.59.12-.82-.5-1-.23-.07-.38,0-.38.26s.11.45,0,.62a5.62,5.62,0,0,1-1.2,1.86,2.8,2.8,0,0,1-1.2.6,1.63,1.63,0,0,1-1.63-.88c-.15-.3-.23-.64-.4-.92a2.48,2.48,0,0,1-.22-.5v2c0,.07.08.14.13.21A2.41,2.41,0,0,0,1.85,87.43Z" transform="translate(-0.01)"/><path class="a" d="M59.64,39.91a.45.45,0,0,0-.59.11.53.53,0,0,0-.12.26,1.39,1.39,0,0,1-.51.92,6,6,0,0,0-.57.65,2.58,2.58,0,0,1-1.21.88A1.22,1.22,0,0,1,55,42.38a1.2,1.2,0,0,1-.19-.31,4.48,4.48,0,0,1-.55-2.13,4.6,4.6,0,0,0,0-.72.47.47,0,0,0-.24-.31c-.06,0-.23.07-.29.15a1.66,1.66,0,0,0-.21.45,9.26,9.26,0,0,0,.17,2.54,2.7,2.7,0,0,0,1.21,1.26,2.13,2.13,0,0,0,2.12.15,5.47,5.47,0,0,0,2.18-2,6.58,6.58,0,0,0,.62-1.06A.33.33,0,0,0,59.64,39.91Z" transform="translate(-0.01)"/><path class="a" d="M99.74,1.54c-.08,0-.2.14-.19.19a.33.33,0,0,0,.2.21c.24.05.37.21.27.41-.27.49-.4,1.08-.92,1.41a9.36,9.36,0,0,0-.94.67A2.73,2.73,0,0,1,96.34,5a2.15,2.15,0,0,1-1.57-.61,4.07,4.07,0,0,1-.94-1.59A3,3,0,0,1,93.75,1c0-.11.09-.25-.11-.26a.72.72,0,0,0-.84.7,2.69,2.69,0,0,0,.07.92,11.51,11.51,0,0,0,.53,1.4A3.2,3.2,0,0,0,96.49,5.8,4.69,4.69,0,0,0,98,5.49a6.74,6.74,0,0,0,2.42-2.1,7.7,7.7,0,0,0,.48-.72.81.81,0,0,0-.15-.94A1,1,0,0,0,99.74,1.54Z" transform="translate(-0.01)"/><path class="a" d="M64.38,54s0,.09,0,.14a6.08,6.08,0,0,1-2.1,2.78c-.56.44-1,.36-1.49-.17a4.09,4.09,0,0,1-.86-2.47c-.06-.43,0-.86-.06-1.3,0-.18-.08-.29-.27-.19-.38.19-.82.92-.67,1.24a9.75,9.75,0,0,1,.38,2,.9.9,0,0,0,.09.34c.41.53.83,1,1.25,1.58a.66.66,0,0,0,.77.21,3.54,3.54,0,0,0,2.16-1.32c.48-.66,1-1.3,1.47-2a3.57,3.57,0,0,0,.29-.73,1.92,1.92,0,0,0-.37-.46C64.74,53.51,64.51,53.69,64.38,54Z" transform="translate(-0.01)"/><path class="a" d="M70.51,43.17a.45.45,0,0,0-.59.11.53.53,0,0,0-.12.26,1.39,1.39,0,0,1-.51.92,6,6,0,0,0-.57.65,2.57,2.57,0,0,1-1.21.88,1.22,1.22,0,0,1-1.67-.34,1.2,1.2,0,0,1-.19-.31,4.48,4.48,0,0,1-.55-2.13,4.59,4.59,0,0,0,0-.72.47.47,0,0,0-.24-.31c-.06,0-.23.07-.29.15a1.66,1.66,0,0,0-.21.45,9.26,9.26,0,0,0,.17,2.54,2.71,2.71,0,0,0,1.21,1.26,2.13,2.13,0,0,0,2.12.15,5.47,5.47,0,0,0,2.18-2,6.58,6.58,0,0,0,.62-1.06A.33.33,0,0,0,70.51,43.17Z" transform="translate(-0.01)"/><path class="a" d="M42,26.68c-.23-.07-.38,0-.38.26s.11.46,0,.62a5.61,5.61,0,0,1-1.2,1.86,2.82,2.82,0,0,1-1.2.6,1.62,1.62,0,0,1-1.63-.88c-.15-.3-.23-.64-.4-.92a2.77,2.77,0,0,1-.38-1.44,6.67,6.67,0,0,0,0-.86.55.55,0,0,0-.23-.31s-.2.1-.27.18A2,2,0,0,0,36,27.58a7.4,7.4,0,0,0,1.08,2.33,2.42,2.42,0,0,0,1.71,1,3.29,3.29,0,0,0,1.77-.63,5.37,5.37,0,0,0,1.88-2.58C42.7,27.11,42.58,26.88,42,26.68Z" transform="translate(-0.01)"/><path class="a" d="M30.46,50.22a.81.81,0,0,0-.43.33A14.85,14.85,0,0,1,28.33,53c-.43.55-.87.51-1.23-.09a2.28,2.28,0,0,1-.34-1.23,12.88,12.88,0,0,1,.2-2.58,6.89,6.89,0,0,0,.08-.79c0-.24,0-.45-.27-.53a.49.49,0,0,0-.61.25,1.11,1.11,0,0,0-.15.47c0,.43,0,.86,0,1.28s-.1,1-.15,1.57h.07c0,.26,0,.53,0,.79a2.09,2.09,0,0,0,.57,1.58,1.34,1.34,0,0,0,2.26,0A22.78,22.78,0,0,0,30.19,52a6.52,6.52,0,0,0,.66-1.35C31,50.25,30.82,50.09,30.46,50.22Z" transform="translate(-0.01)"/><path class="a" d="M65,1.54c-.08,0-.2.14-.19.19a.33.33,0,0,0,.2.21c.24.05.37.21.27.41-.27.49-.4,1.08-.92,1.41a9.81,9.81,0,0,0-.94.67A2.73,2.73,0,0,1,61.56,5,2.15,2.15,0,0,1,60,4.39a4.06,4.06,0,0,1-.94-1.59A3,3,0,0,1,59,1c0-.11.09-.25-.11-.26a.72.72,0,0,0-.84.7,2.79,2.79,0,0,0,.07.92,11.84,11.84,0,0,0,.53,1.4A3.2,3.2,0,0,0,61.71,5.8a4.68,4.68,0,0,0,1.46-.31,6.72,6.72,0,0,0,2.42-2.1,7.7,7.7,0,0,0,.48-.72.8.8,0,0,0-.15-.94A1,1,0,0,0,65,1.54Z" transform="translate(-0.01)"/><path class="a" d="M107.65,102.39a.8.8,0,0,0-.43.33,14.76,14.76,0,0,1-1.7,2.49c-.42.55-.87.51-1.23-.1a2.27,2.27,0,0,1-.34-1.23,12.9,12.9,0,0,1,.21-2.59,6.9,6.9,0,0,0,.08-.79c0-.24,0-.45-.27-.53a.49.49,0,0,0-.61.25,1.07,1.07,0,0,0-.15.47c0,.43,0,.86,0,1.28s-.1,1-.15,1.57h.08c0,.27,0,.53,0,.8a2.08,2.08,0,0,0,.57,1.57,1.33,1.33,0,0,0,2.26,0,22.46,22.46,0,0,0,1.43-1.81,6.49,6.49,0,0,0,.66-1.35C108.17,102.43,108,102.27,107.65,102.39Z" transform="translate(-0.01)"/><path class="a" d="M46.77,52.39a.81.81,0,0,0-.43.33,14.75,14.75,0,0,1-1.7,2.49c-.42.55-.87.51-1.23-.09a2.28,2.28,0,0,1-.34-1.23,12.87,12.87,0,0,1,.2-2.58,6.49,6.49,0,0,0,.08-.79c0-.24,0-.45-.27-.53a.49.49,0,0,0-.61.25,1.1,1.1,0,0,0-.15.47c0,.43,0,.86,0,1.28s-.1,1-.15,1.57h.07c0,.26,0,.53,0,.79a2.09,2.09,0,0,0,.57,1.58,1.34,1.34,0,0,0,2.26,0,22.49,22.49,0,0,0,1.43-1.81,6.54,6.54,0,0,0,.66-1.35C47.29,52.42,47.12,52.26,46.77,52.39Z" transform="translate(-0.01)"/><path class="a" d="M59.81,76.31a.8.8,0,0,0-.43.33,14.74,14.74,0,0,1-1.7,2.49c-.42.55-.87.51-1.23-.09a2.27,2.27,0,0,1-.34-1.23,12.86,12.86,0,0,1,.2-2.58,6.48,6.48,0,0,0,.08-.79c0-.24,0-.45-.27-.53a.49.49,0,0,0-.61.25,1.1,1.1,0,0,0-.15.47c0,.43,0,.86,0,1.28s-.1,1-.14,1.57h.07c0,.27,0,.53,0,.8a2.09,2.09,0,0,0,.57,1.58,1.34,1.34,0,0,0,2.26,0A22.83,22.83,0,0,0,59.54,78a6.54,6.54,0,0,0,.66-1.35C60.34,76.34,60.17,76.18,59.81,76.31Z" transform="translate(-0.01)"/><path class="a" d="M96.32,16.9c-.23-.07-.38,0-.38.26s.11.46,0,.62a5.59,5.59,0,0,1-1.2,1.86,2.81,2.81,0,0,1-1.2.6,1.63,1.63,0,0,1-1.63-.88c-.15-.3-.23-.64-.4-.92A2.8,2.8,0,0,1,91.16,17a7,7,0,0,0,0-.86.55.55,0,0,0-.23-.31s-.2.1-.27.18a2,2,0,0,0-.25,1.79,7.4,7.4,0,0,0,1.07,2.33,2.42,2.42,0,0,0,1.71,1,3.3,3.3,0,0,0,1.77-.63,5.38,5.38,0,0,0,1.88-2.58C97,17.32,96.93,17.09,96.32,16.9Z" transform="translate(-0.01)"/><path class="a" d="M99.22,99.73a.53.53,0,0,0-.4.2,1.23,1.23,0,0,0-.27.59c-.05.67-.54.95-1,1.18a5.73,5.73,0,0,1-3,.46,1,1,0,0,1-.54-.16,2.62,2.62,0,0,1-1.06-1.5c-.06-.35-.1-.71-.19-1.06,0-.11-.19-.28-.27-.27a.56.56,0,0,0-.38.24.85.85,0,0,0-.06.49,5.24,5.24,0,0,0,.45,1.73,2.23,2.23,0,0,0,1,1,4.13,4.13,0,0,0,1.77.36c.59-.08,1.18-.15,1.77-.25a3.15,3.15,0,0,0,2.51-2.19,2,2,0,0,0,.08-.35A.39.39,0,0,0,99.22,99.73Z" transform="translate(-0.01)"/><path class="a" d="M18.21,38.5c-.08,0-.2.14-.19.18a.33.33,0,0,0,.2.21c.24.05.38.21.27.41-.27.49-.4,1.08-.92,1.41a9.51,9.51,0,0,0-.94.67,2.73,2.73,0,0,1-1.82.58,2.16,2.16,0,0,1-1.57-.61,4.1,4.1,0,0,1-.94-1.59,3,3,0,0,1-.09-1.84c0-.11.09-.25-.11-.26a.72.72,0,0,0-.83.7,2.69,2.69,0,0,0,.07.93,11.44,11.44,0,0,0,.53,1.4A3.2,3.2,0,0,0,15,42.76a4.75,4.75,0,0,0,1.46-.31,6.74,6.74,0,0,0,2.42-2.11,8.08,8.08,0,0,0,.47-.72.81.81,0,0,0-.15-.94A1,1,0,0,0,18.21,38.5Z" transform="translate(-0.01)"/><path class="a" d="M55,108.3a3.26,3.26,0,0,0-.47.28.18.18,0,0,0,0,.12H55v0Z" transform="translate(-0.01)"/><path class="a" d="M47.94,108.45l-.31.26H48C48,108.62,48,108.54,47.94,108.45Z" transform="translate(-0.01)"/><path class="a" d="M47.26.8a11.78,11.78,0,0,0,.23,1.78c.12.49.07,1.08.59,1.41.29.74.91.81,1.55.7a7.47,7.47,0,0,0,1.73-.45,7,7,0,0,0,1.66-1,21.35,21.35,0,0,0,1.69-1.68,1.31,1.31,0,0,0,.43-1L55,0h-.6a.77.77,0,0,1,0,.15,2.47,2.47,0,0,1-.3.79,12.07,12.07,0,0,1-1.5,1.54,8,8,0,0,1-2.16,1.25A1.42,1.42,0,0,1,48.35,2.6c-.11-.73-.12-1.48-.21-2.22A1.49,1.49,0,0,0,48,0h-.41a1.52,1.52,0,0,0-.25.26A.87.87,0,0,0,47.26.8Z" transform="translate(-0.01)"/><path class="a" d="M101.4,53a.54.54,0,0,0-.4.2,1.22,1.22,0,0,0-.27.59c-.05.67-.54.95-1,1.18a5.7,5.7,0,0,1-3,.46,1,1,0,0,1-.54-.16,2.62,2.62,0,0,1-1.06-1.5c-.06-.35-.1-.71-.19-1.06,0-.11-.18-.28-.27-.27a.55.55,0,0,0-.38.23.86.86,0,0,0-.06.49,5.25,5.25,0,0,0,.45,1.73,2.23,2.23,0,0,0,1,1,4.13,4.13,0,0,0,1.77.36c.59-.08,1.18-.15,1.77-.25a3.14,3.14,0,0,0,2.51-2.19,2,2,0,0,0,.08-.35A.39.39,0,0,0,101.4,53Z" transform="translate(-0.01)"/><path class="a" d="M1.55,17.54a6.56,6.56,0,0,0,.62-1.05A.34.34,0,0,0,2,16a.44.44,0,0,0-.59.11.52.52,0,0,0-.12.26,1.39,1.39,0,0,1-.51.92,6,6,0,0,0-.57.65,1.89,1.89,0,0,1-.24.28v1A8.15,8.15,0,0,0,1.55,17.54Z" transform="translate(-0.01)"/><path class="a" d="M107.74,18.8a1.22,1.22,0,0,1-1.68-.34,1.25,1.25,0,0,1-.19-.3,4.48,4.48,0,0,1-.55-2.13,4.83,4.83,0,0,0,0-.72.47.47,0,0,0-.24-.3c-.06,0-.23.07-.29.15a1.66,1.66,0,0,0-.21.45,9.19,9.19,0,0,0,.17,2.54A2.71,2.71,0,0,0,106,19.41a2.13,2.13,0,0,0,2.12.15,2.9,2.9,0,0,0,.63-.34v-1A2.93,2.93,0,0,1,107.74,18.8Z" transform="translate(-0.01)"/><path class="a" d="M47,99.73a.52.52,0,0,0-.4.2,1.19,1.19,0,0,0-.27.59c-.05.67-.54.95-1,1.18a5.73,5.73,0,0,1-3,.46,1,1,0,0,1-.54-.16,2.6,2.6,0,0,1-1.06-1.5c-.06-.35-.1-.71-.19-1.06,0-.11-.19-.28-.27-.27a.56.56,0,0,0-.38.24.85.85,0,0,0-.06.49,5.28,5.28,0,0,0,.45,1.73,2.22,2.22,0,0,0,1,1A4.12,4.12,0,0,0,43,103c.59-.08,1.19-.15,1.77-.25a3.15,3.15,0,0,0,2.51-2.19,1.69,1.69,0,0,0,.08-.35A.39.39,0,0,0,47,99.73Z" transform="translate(-0.01)"/><path class="a" d="M99.74,34.15c-.08,0-.2.14-.19.18a.33.33,0,0,0,.2.21c.24.05.37.21.27.41-.27.49-.4,1.08-.92,1.41a9.06,9.06,0,0,0-.94.67,2.74,2.74,0,0,1-1.82.58A2.15,2.15,0,0,1,94.78,37a4.08,4.08,0,0,1-.94-1.59,3,3,0,0,1-.09-1.84c0-.11.09-.25-.11-.26a.72.72,0,0,0-.84.7,2.7,2.7,0,0,0,.07.93,11.63,11.63,0,0,0,.53,1.4,3.2,3.2,0,0,0,3.09,2.07A4.74,4.74,0,0,0,98,38.1,6.72,6.72,0,0,0,100.37,36a7.92,7.92,0,0,0,.48-.72.81.81,0,0,0-.15-.94A1,1,0,0,0,99.74,34.15Z" transform="translate(-0.01)"/><path class="a" d="M12.61,14.73c-.23-.07-.38,0-.38.26s.11.46,0,.62a5.61,5.61,0,0,1-1.2,1.86,2.82,2.82,0,0,1-1.2.6,1.62,1.62,0,0,1-1.63-.88c-.15-.3-.23-.64-.4-.92a2.77,2.77,0,0,1-.38-1.44,6.66,6.66,0,0,0,0-.86.55.55,0,0,0-.23-.31s-.2.1-.27.18a2,2,0,0,0-.25,1.79,7.4,7.4,0,0,0,1.08,2.33,2.42,2.42,0,0,0,1.71,1,3.29,3.29,0,0,0,1.77-.63,5.35,5.35,0,0,0,1.88-2.58C13.35,15.15,13.23,14.92,12.61,14.73Z" transform="translate(-0.01)"/><path class="a" d="M19.59,55.65a.81.81,0,0,0-.43.33,14.73,14.73,0,0,1-1.7,2.49c-.43.55-.87.51-1.23-.09a2.28,2.28,0,0,1-.34-1.23,13,13,0,0,1,.2-2.58,6.87,6.87,0,0,0,.08-.79c0-.24,0-.45-.27-.53a.49.49,0,0,0-.61.25,1.1,1.1,0,0,0-.15.47c0,.43,0,.85,0,1.28s-.1,1-.15,1.57h.07c0,.26,0,.53,0,.79a2.09,2.09,0,0,0,.57,1.58,1.34,1.34,0,0,0,2.26,0,23,23,0,0,0,1.43-1.81A6.54,6.54,0,0,0,20,56C20.11,55.69,19.95,55.52,19.59,55.65Z" transform="translate(-0.01)"/><path class="a" d="M70.9,18.1s0,.1,0,.14A6.06,6.06,0,0,1,68.76,21c-.56.44-1,.36-1.49-.17a4.09,4.09,0,0,1-.86-2.47c-.06-.43,0-.86-.06-1.3,0-.18-.08-.29-.27-.19-.38.19-.82.92-.67,1.24a9.71,9.71,0,0,1,.38,1.95.9.9,0,0,0,.09.34c.41.53.83,1,1.25,1.58a.66.66,0,0,0,.77.21,3.55,3.55,0,0,0,2.16-1.32c.48-.66,1-1.29,1.47-2a3.54,3.54,0,0,0,.29-.73,1.89,1.89,0,0,0-.37-.46C71.26,17.63,71,17.81,70.9,18.1Z" transform="translate(-0.01)"/><path class="a" d="M80.47,66.52a.81.81,0,0,0-.43.33,14.74,14.74,0,0,1-1.7,2.49c-.42.55-.87.51-1.23-.09A2.28,2.28,0,0,1,76.77,68,12.86,12.86,0,0,1,77,65.43a6.5,6.5,0,0,0,.08-.79c0-.24,0-.45-.27-.53a.49.49,0,0,0-.61.25,1.1,1.1,0,0,0-.15.47c0,.43,0,.86,0,1.28s-.1,1-.15,1.57h.08c0,.26,0,.53,0,.79a2.09,2.09,0,0,0,.57,1.58,1.34,1.34,0,0,0,2.26,0c.5-.59,1-1.18,1.43-1.81a6.55,6.55,0,0,0,.66-1.35C81,66.56,80.82,66.39,80.47,66.52Z" transform="translate(-0.01)"/><path class="a" d="M21.25,77.86a3.44,3.44,0,0,0-.47.28c-.06,0,0,.18-.07.27a2.48,2.48,0,0,1-.3.79,12.32,12.32,0,0,1-1.5,1.54A8,8,0,0,1,16.75,82a1.42,1.42,0,0,1-2.09-1.13c-.11-.73-.12-1.48-.21-2.22a3.14,3.14,0,0,0-.21-.64,3.52,3.52,0,0,0-.56.52.87.87,0,0,0-.12.54,11.74,11.74,0,0,0,.23,1.78c.12.49.07,1.08.59,1.41.29.74.91.81,1.55.7a7.54,7.54,0,0,0,1.73-.45,7,7,0,0,0,1.66-1A21.66,21.66,0,0,0,21,79.84a1.32,1.32,0,0,0,.43-1l-.12-.56Z" transform="translate(-0.01)"/><path class="a" d="M86.7,89.59c-.08,0-.2.14-.19.19a.33.33,0,0,0,.2.21c.24.05.37.21.27.4-.27.5-.4,1.08-.92,1.41a9.81,9.81,0,0,0-.94.67,2.74,2.74,0,0,1-1.82.58,2.15,2.15,0,0,1-1.57-.61,4.09,4.09,0,0,1-.94-1.59A3,3,0,0,1,80.71,89c0-.11.09-.25-.11-.26a.72.72,0,0,0-.84.7,2.78,2.78,0,0,0,.07.92,11.72,11.72,0,0,0,.53,1.4,3.2,3.2,0,0,0,3.09,2.07,4.69,4.69,0,0,0,1.46-.32,6.72,6.72,0,0,0,2.42-2.1,7.7,7.7,0,0,0,.48-.72.81.81,0,0,0-.15-.94A1,1,0,0,0,86.7,89.59Z" transform="translate(-0.01)"/><path class="a" d="M65.47,97.45s0,.09,0,.14a6.06,6.06,0,0,1-2.1,2.78c-.56.44-1,.36-1.49-.17A4.09,4.09,0,0,1,61,97.74c-.06-.43,0-.86-.06-1.3,0-.17-.08-.29-.27-.19-.38.19-.82.92-.67,1.24a9.58,9.58,0,0,1,.38,1.95.91.91,0,0,0,.09.35c.41.53.83,1,1.25,1.58a.66.66,0,0,0,.77.21,3.55,3.55,0,0,0,2.16-1.32c.48-.66,1-1.3,1.47-2a3.57,3.57,0,0,0,.29-.73A1.88,1.88,0,0,0,66,97.1C65.83,97,65.59,97.17,65.47,97.45Z" transform="translate(-0.01)"/><path class="a" d="M44.81,11.58s0,.09,0,.14a6.05,6.05,0,0,1-2.1,2.78c-.56.44-1,.36-1.49-.17a4.09,4.09,0,0,1-.86-2.46c-.06-.43,0-.87-.06-1.3,0-.18-.08-.29-.27-.19-.38.18-.82.92-.67,1.24a9.59,9.59,0,0,1,.38,1.95.93.93,0,0,0,.09.34c.41.53.83,1.05,1.25,1.58a.66.66,0,0,0,.77.21A3.55,3.55,0,0,0,44,14.37c.48-.66,1-1.29,1.47-2a3.44,3.44,0,0,0,.29-.73,1.89,1.89,0,0,0-.37-.46C45.17,11.11,44.94,11.29,44.81,11.58Z" transform="translate(-0.01)"/><path class="a" d="M89.17,68.7a.81.81,0,0,0-.43.33A14.75,14.75,0,0,1,87,71.52c-.42.55-.87.51-1.23-.09a2.28,2.28,0,0,1-.34-1.23,12.87,12.87,0,0,1,.21-2.58,6.48,6.48,0,0,0,.08-.79c0-.24,0-.45-.27-.53a.49.49,0,0,0-.61.25,1.1,1.1,0,0,0-.15.47c0,.43,0,.86,0,1.28s-.1,1-.15,1.57h.08c0,.27,0,.53,0,.8a2.09,2.09,0,0,0,.57,1.58,1.34,1.34,0,0,0,2.26,0c.5-.59,1-1.18,1.43-1.81a6.54,6.54,0,0,0,.66-1.35C89.69,68.73,89.52,68.57,89.17,68.7Z" transform="translate(-0.01)"/><path class="a" d="M83.22,40.9a3.65,3.65,0,0,0-.47.28c-.06,0,0,.18-.07.27a2.43,2.43,0,0,1-.3.79,12.32,12.32,0,0,1-1.5,1.54A8.07,8.07,0,0,1,78.71,45a1.42,1.42,0,0,1-2.1-1.13c-.11-.74-.12-1.48-.2-2.22a3.13,3.13,0,0,0-.21-.64,3.54,3.54,0,0,0-.56.52.87.87,0,0,0-.12.54,11.49,11.49,0,0,0,.23,1.78c.12.49.07,1.08.59,1.41.29.74.91.81,1.55.7a7.53,7.53,0,0,0,1.73-.45,6.92,6.92,0,0,0,1.66-1A21,21,0,0,0,83,42.88a1.32,1.32,0,0,0,.43-1l-.12-.56Z" transform="translate(-0.01)"/><path class="a" d="M80.47,23a.79.79,0,0,0-.43.33,14.81,14.81,0,0,1-1.7,2.49c-.42.55-.87.51-1.23-.09a2.28,2.28,0,0,1-.34-1.23A12.86,12.86,0,0,1,77,22a6.5,6.5,0,0,0,.08-.79c0-.24,0-.45-.27-.53a.49.49,0,0,0-.61.25,1.1,1.1,0,0,0-.15.47c0,.43,0,.86,0,1.28s-.1,1-.15,1.57h.08c0,.26,0,.53,0,.8a2.08,2.08,0,0,0,.57,1.57,1.34,1.34,0,0,0,2.26,0,22.85,22.85,0,0,0,1.43-1.81,6.65,6.65,0,0,0,.66-1.35C81,23.07,80.82,22.91,80.47,23Z" transform="translate(-0.01)"/><path class="a" d="M13.35,73.64a.53.53,0,0,0-.4.2,1.21,1.21,0,0,0-.27.59c-.05.66-.54.95-1,1.18a5.71,5.71,0,0,1-3,.46,1,1,0,0,1-.54-.16A2.6,2.6,0,0,1,7,74.42c-.06-.35-.1-.71-.19-1.06,0-.11-.19-.28-.27-.27a.55.55,0,0,0-.38.23.84.84,0,0,0-.06.49,5.31,5.31,0,0,0,.45,1.73,2.23,2.23,0,0,0,1,1,4.13,4.13,0,0,0,1.77.36c.59-.08,1.18-.15,1.77-.25a3.15,3.15,0,0,0,2.51-2.19,1.88,1.88,0,0,0,.08-.35A.39.39,0,0,0,13.35,73.64Z" transform="translate(-0.01)"/><path class="a" d="M11.69,90.68c-.08,0-.2.14-.19.19a.33.33,0,0,0,.2.21c.24,0,.38.21.27.4-.27.5-.4,1.08-.92,1.41a9.83,9.83,0,0,0-.94.67,2.73,2.73,0,0,1-1.82.58,2.15,2.15,0,0,1-1.57-.61,4.08,4.08,0,0,1-.94-1.59A3,3,0,0,1,5.7,90.1c0-.11.09-.25-.11-.26a.72.72,0,0,0-.83.7,2.68,2.68,0,0,0,.07.92,11.37,11.37,0,0,0,.53,1.4,3.2,3.2,0,0,0,3.09,2.07,4.7,4.7,0,0,0,1.46-.32,6.73,6.73,0,0,0,2.42-2.1,8.08,8.08,0,0,0,.47-.72.81.81,0,0,0-.15-.94A1,1,0,0,0,11.69,90.68Z" transform="translate(-0.01)"/><path class="a" d="M94,45.05c-.23,0-.3.22-.28.43a1.22,1.22,0,0,1-.46.93,6.77,6.77,0,0,1-1.44,1.15,1.78,1.78,0,0,1-2.21-.16,3.24,3.24,0,0,1-.68-1.48,5,5,0,0,0-.32-1,.2.2,0,0,0-.35-.06.68.68,0,0,0-.18.44,2.73,2.73,0,0,0,.62,2.07.28.28,0,0,1,.1.18c0,.4.3.53.55.69a3,3,0,0,0,1.46.47A8.74,8.74,0,0,0,92,48.31a5.64,5.64,0,0,0,2.15-1.76,9,9,0,0,0,.62-1c0-.08,0-.3,0-.32A2.43,2.43,0,0,0,94,45.05Z" transform="translate(-0.01)"/><path class="a" d="M24.51,8.29a3.26,3.26,0,0,0-.47.28c-.06,0,0,.18-.07.27a2.47,2.47,0,0,1-.3.79,12.19,12.19,0,0,1-1.5,1.54A8,8,0,0,1,20,12.43a1.42,1.42,0,0,1-2.09-1.13c-.11-.74-.12-1.48-.21-2.22a3.14,3.14,0,0,0-.21-.64,3.52,3.52,0,0,0-.56.52.85.85,0,0,0-.12.54,11.71,11.71,0,0,0,.23,1.78c.12.49.07,1.08.59,1.41.29.74.91.81,1.55.7a7.54,7.54,0,0,0,1.73-.45,7,7,0,0,0,1.66-1,21.35,21.35,0,0,0,1.69-1.68,1.31,1.31,0,0,0,.43-1c0-.19-.08-.37-.12-.56Z" transform="translate(-0.01)"/><path class="a" d="M49.57,65.82c-.23-.07-.38,0-.38.26s.11.45,0,.62A5.64,5.64,0,0,1,48,68.56a2.82,2.82,0,0,1-1.2.6,1.63,1.63,0,0,1-1.63-.88c-.15-.3-.23-.64-.4-.92a2.77,2.77,0,0,1-.38-1.44,6.63,6.63,0,0,0,0-.86.55.55,0,0,0-.23-.31s-.2.1-.27.18a2,2,0,0,0-.25,1.79A7.37,7.37,0,0,0,44.71,69a2.42,2.42,0,0,0,1.71,1,3.31,3.31,0,0,0,1.77-.63,5.37,5.37,0,0,0,1.88-2.58C50.31,66.24,50.19,66,49.57,65.82Z" transform="translate(-0.01)"/><path class="a" d="M39.73,81.13a3.44,3.44,0,0,0-.47.28c-.06,0,0,.18-.07.27a2.48,2.48,0,0,1-.3.79A12.32,12.32,0,0,1,37.39,84a8,8,0,0,1-2.16,1.25,1.42,1.42,0,0,1-2.09-1.13c-.11-.73-.12-1.48-.21-2.22a3.13,3.13,0,0,0-.21-.64,3.52,3.52,0,0,0-.56.52.87.87,0,0,0-.12.54,11.75,11.75,0,0,0,.23,1.78c.12.49.07,1.08.59,1.41.29.74.91.81,1.55.7a7.54,7.54,0,0,0,1.73-.45,7,7,0,0,0,1.66-1A21.68,21.68,0,0,0,39.5,83.1a1.32,1.32,0,0,0,.43-1l-.12-.56Z" transform="translate(-0.01)"/><path class="a" d="M12.26,58.42a.54.54,0,0,0-.4.2,1.21,1.21,0,0,0-.27.59c-.05.67-.54.95-1,1.18a5.69,5.69,0,0,1-3,.46A1,1,0,0,1,7,60.7a2.6,2.6,0,0,1-1.06-1.5c-.06-.35-.1-.71-.19-1.06,0-.11-.19-.28-.27-.27a.55.55,0,0,0-.38.23A.84.84,0,0,0,5,58.6a5.29,5.29,0,0,0,.45,1.73,2.23,2.23,0,0,0,1,1,4.13,4.13,0,0,0,1.77.36c.59-.08,1.18-.15,1.77-.25a3.15,3.15,0,0,0,2.51-2.19,1.88,1.88,0,0,0,.08-.35A.39.39,0,0,0,12.26,58.42Z" transform="translate(-0.01)"/><path class="a" d="M33.27,23.42c-.23-.07-.38,0-.38.26s.11.46,0,.62a5.65,5.65,0,0,1-1.2,1.86,2.82,2.82,0,0,1-1.2.6,1.62,1.62,0,0,1-1.63-.88c-.15-.3-.23-.64-.4-.92a2.77,2.77,0,0,1-.38-1.44,6.65,6.65,0,0,0,0-.86.55.55,0,0,0-.23-.31s-.2.1-.27.18a2,2,0,0,0-.25,1.79,7.4,7.4,0,0,0,1.08,2.33,2.42,2.42,0,0,0,1.71,1A3.29,3.29,0,0,0,31.89,27a5.37,5.37,0,0,0,1.88-2.58C34,23.85,33.88,23.61,33.27,23.42Z" transform="translate(-0.01)"/><path class="a" d="M62.26,87.78a.53.53,0,0,0-.41.2,1.2,1.2,0,0,0-.26.59c-.05.66-.54.95-1,1.18a5.72,5.72,0,0,1-3,.46,1,1,0,0,1-.54-.16,2.6,2.6,0,0,1-1.06-1.5c-.06-.35-.1-.71-.19-1.06,0-.11-.19-.28-.27-.27a.56.56,0,0,0-.38.24A.86.86,0,0,0,55,88a5.26,5.26,0,0,0,.45,1.73,2.23,2.23,0,0,0,1,1,4.16,4.16,0,0,0,1.77.36c.59-.08,1.19-.15,1.77-.25a3.15,3.15,0,0,0,2.51-2.19,1.87,1.87,0,0,0,.08-.35A.39.39,0,0,0,62.26,87.78Z" transform="translate(-0.01)"/><path class="a" d="M34.64,4a.44.44,0,0,0-.59.11.5.5,0,0,0-.12.26,1.4,1.4,0,0,1-.51.92,5.84,5.84,0,0,0-.57.65,2.57,2.57,0,0,1-1.21.88A1.22,1.22,0,0,1,30,6.51a1.26,1.26,0,0,1-.19-.31,4.48,4.48,0,0,1-.55-2.13,4.61,4.61,0,0,0,0-.72A.47.47,0,0,0,29,3c-.06,0-.23.07-.29.15a1.62,1.62,0,0,0-.21.45,9.26,9.26,0,0,0,.17,2.54,2.71,2.71,0,0,0,1.21,1.26A2.13,2.13,0,0,0,32,7.6a5.46,5.46,0,0,0,2.18-2,6.34,6.34,0,0,0,.62-1.05A.34.34,0,0,0,34.64,4Z" transform="translate(-0.01)"/><path class="a" d="M70.51,82.3a.45.45,0,0,0-.59.11.53.53,0,0,0-.12.26,1.39,1.39,0,0,1-.51.92,5.85,5.85,0,0,0-.57.65,2.57,2.57,0,0,1-1.21.87,1.22,1.22,0,0,1-1.67-.34,1.2,1.2,0,0,1-.19-.3,4.48,4.48,0,0,1-.55-2.13,4.59,4.59,0,0,0,0-.72.47.47,0,0,0-.24-.3c-.06,0-.23.07-.29.15a1.66,1.66,0,0,0-.21.45,9.24,9.24,0,0,0,.17,2.54,2.71,2.71,0,0,0,1.21,1.27,2.13,2.13,0,0,0,2.12.15,5.46,5.46,0,0,0,2.18-2,6.58,6.58,0,0,0,.62-1.06A.34.34,0,0,0,70.51,82.3Z" transform="translate(-0.01)"/><path class="a" d="M34.52,102.64c-.08,0-.2.14-.19.19a.34.34,0,0,0,.2.21c.24,0,.38.21.27.4-.27.5-.4,1.08-.92,1.41a9.51,9.51,0,0,0-.94.67,2.74,2.74,0,0,1-1.82.58,2.15,2.15,0,0,1-1.57-.61,4.08,4.08,0,0,1-.94-1.59,3,3,0,0,1-.09-1.84c0-.11.09-.25-.11-.26a.72.72,0,0,0-.83.7,2.68,2.68,0,0,0,.07.92,11.37,11.37,0,0,0,.53,1.4,3.2,3.2,0,0,0,3.09,2.07,4.7,4.7,0,0,0,1.46-.32,6.73,6.73,0,0,0,2.42-2.1,8.05,8.05,0,0,0,.47-.72.8.8,0,0,0-.15-.94A1,1,0,0,0,34.52,102.64Z" transform="translate(-0.01)"/><path class="a" d="M15,26.54c-.08,0-.2.14-.19.18a.33.33,0,0,0,.2.21c.24.05.38.21.27.41-.27.49-.4,1.08-.92,1.41a9.51,9.51,0,0,0-.94.67,2.73,2.73,0,0,1-1.82.58A2.16,2.16,0,0,1,10,29.4a4.1,4.1,0,0,1-.94-1.59A3,3,0,0,1,9,26c0-.11.09-.25-.11-.26a.72.72,0,0,0-.83.7,2.69,2.69,0,0,0,.07.92,11.6,11.6,0,0,0,.53,1.4A3.2,3.2,0,0,0,11.7,30.8a4.75,4.75,0,0,0,1.46-.31,6.75,6.75,0,0,0,2.42-2.1c.15-.25.35-.46.47-.72a.8.8,0,0,0-.15-.94A1,1,0,0,0,15,26.54Z" transform="translate(-0.01)"/><path class="a" d="M100.26,81.15s0,.09,0,.14a6.06,6.06,0,0,1-2.1,2.78c-.56.44-1,.36-1.49-.17a4.08,4.08,0,0,1-.86-2.47c-.06-.43,0-.86-.06-1.3,0-.17-.08-.28-.27-.19-.38.19-.82.92-.67,1.24a9.6,9.6,0,0,1,.38,1.95.91.91,0,0,0,.09.35c.41.53.83,1,1.25,1.58a.66.66,0,0,0,.77.21,3.55,3.55,0,0,0,2.16-1.32c.48-.66,1-1.3,1.47-2a3.47,3.47,0,0,0,.29-.73,1.87,1.87,0,0,0-.37-.46C100.61,80.68,100.38,80.86,100.26,81.15Z" transform="translate(-0.01)"/><path class="a" d="M33.27,40.81c-.23-.07-.38,0-.38.26s.11.45,0,.62a5.64,5.64,0,0,1-1.2,1.86,2.82,2.82,0,0,1-1.2.6,1.62,1.62,0,0,1-1.63-.88c-.15-.3-.23-.64-.4-.92a2.77,2.77,0,0,1-.38-1.44,6.65,6.65,0,0,0,0-.86.55.55,0,0,0-.23-.31s-.2.1-.27.18a2,2,0,0,0-.25,1.79A7.37,7.37,0,0,0,28.4,44a2.41,2.41,0,0,0,1.71,1,3.31,3.31,0,0,0,1.77-.63,5.37,5.37,0,0,0,1.88-2.58C34,41.24,33.88,41,33.27,40.81Z" transform="translate(-0.01)"/></svg>