<?xml version="1.0" encoding="utf-8"?>
<!-- Generator: Adobe Illustrator 21.1.0, SVG Export Plug-In . SVG Version: 6.00 Build 0)  -->
<svg version="1.1" id="圖層_1" xmlns="http://www.w3.org/2000/svg" xmlns:xlink="http://www.w3.org/1999/xlink" x="0px" y="0px"
	 viewBox="0 0 36 36" style="enable-background:new 0 0 36 36;" xml:space="preserve">
<path d="M11,16.8c0,1.7,1.5,2.3,1.6,2.3c0,0-0.2,0.8-0.8,1.6c-0.5,0.7-1,1.4-1.8,1.4c-0.8,0-1-0.4-1.9-0.4c-0.9,0-1.2,0.4-1.9,0.5
	c-0.8,0-1.3-0.7-1.8-1.4c-1-1.4-1.8-3.9-0.7-5.7C4.1,14.1,5,13.5,6,13.5c0.7,0,1.5,0.5,1.9,0.5c0.5,0,1.3-0.6,2.2-0.5
	c0.4,0,1.4,0.1,2.1,1.1C12.2,14.7,11,15.3,11,16.8 M9.5,12.6c0.4-0.5,0.7-1.1,0.6-1.8c-0.6,0-1.3,0.4-1.7,0.9
	c-0.4,0.4-0.7,1.1-0.6,1.7C8.5,13.4,9.1,13.1,9.5,12.6 M15.4,11.8c0.3-0.1,0.7-0.1,1-0.1c0.4,0,0.8-0.1,1.2-0.1
	c0.6,0,1.2,0.1,1.6,0.2c0.5,0.1,0.8,0.4,1.1,0.6c0.3,0.2,0.4,0.5,0.6,0.9c0.1,0.3,0.2,0.7,0.2,1.2c0,0.5-0.1,1-0.3,1.4
	c-0.2,0.4-0.5,0.7-0.8,1c-0.3,0.3-0.7,0.5-1.2,0.6c-0.5,0.1-1,0.2-1.5,0.2c-0.5,0-0.9,0-1.2-0.1v4.4h-0.7L15.4,11.8L15.4,11.8z
	 M16.1,16.9c0.2,0.1,0.4,0.1,0.6,0.1c0.2,0,0.5,0,0.7,0c0.9,0,1.7-0.2,2.2-0.6c0.5-0.4,0.8-1,0.8-1.9c0-0.4-0.1-0.7-0.2-1
	c-0.1-0.3-0.3-0.5-0.6-0.7c-0.2-0.2-0.5-0.3-0.9-0.4c-0.3-0.1-0.7-0.1-1.1-0.1c-0.3,0-0.6,0-0.9,0c-0.2,0-0.4,0.1-0.6,0.1L16.1,16.9
	L16.1,16.9z M26.9,20.1c0,0.3,0,0.6,0,0.9c0,0.3,0,0.6,0.1,0.8h-0.7l-0.1-1h0c-0.1,0.1-0.2,0.3-0.4,0.4c-0.1,0.1-0.3,0.3-0.5,0.4
	c-0.2,0.1-0.4,0.2-0.7,0.3C24.4,22,24.2,22,23.9,22c-0.4,0-0.7-0.1-1-0.2c-0.3-0.1-0.5-0.3-0.7-0.5c-0.2-0.2-0.3-0.4-0.4-0.6
	c-0.1-0.2-0.1-0.5-0.1-0.7c0-0.9,0.4-1.5,1.1-2c0.7-0.5,1.9-0.7,3.3-0.7v-0.2c0-0.2,0-0.4-0.1-0.7c0-0.2-0.1-0.5-0.2-0.7
	c-0.1-0.2-0.3-0.4-0.6-0.6c-0.2-0.2-0.6-0.2-1-0.2c-0.3,0-0.6,0-1,0.1c-0.3,0.1-0.6,0.2-0.9,0.4L22.3,15c0.3-0.2,0.7-0.4,1-0.5
	c0.4-0.1,0.7-0.1,1.1-0.1c0.5,0,0.9,0.1,1.3,0.3c0.3,0.2,0.6,0.4,0.8,0.7c0.2,0.3,0.3,0.6,0.4,0.9c0.1,0.3,0.1,0.7,0.1,1L26.9,20.1
	L26.9,20.1z M26.2,18c-0.4,0-0.8,0-1.2,0c-0.4,0-0.8,0.1-1.2,0.3c-0.4,0.1-0.7,0.3-0.9,0.6c-0.2,0.3-0.4,0.6-0.4,1
	c0,0.5,0.2,0.9,0.5,1.1c0.3,0.2,0.6,0.4,1,0.4c0.3,0,0.6,0,0.8-0.1c0.2-0.1,0.4-0.2,0.6-0.3c0.2-0.1,0.3-0.3,0.4-0.5
	c0.1-0.2,0.2-0.3,0.3-0.5c0.1-0.2,0.1-0.3,0.1-0.4L26.2,18L26.2,18z M28.3,14.6l1.9,4.7c0.1,0.3,0.2,0.5,0.3,0.8
	c0.1,0.3,0.2,0.5,0.2,0.8h0c0.1-0.2,0.2-0.5,0.2-0.8c0.1-0.3,0.2-0.6,0.3-0.9l1.8-4.7h0.8l-2.2,5.3c-0.2,0.5-0.4,1-0.6,1.5
	c-0.2,0.4-0.4,0.8-0.6,1.2c-0.2,0.3-0.4,0.7-0.6,1c-0.2,0.3-0.4,0.5-0.7,0.7c-0.3,0.3-0.6,0.4-0.8,0.6c-0.2,0.1-0.4,0.2-0.5,0.2
	l-0.2-0.6c0.2-0.1,0.4-0.2,0.6-0.3c0.2-0.1,0.5-0.3,0.7-0.5c0.2-0.2,0.4-0.4,0.6-0.7c0.2-0.3,0.4-0.7,0.6-1.1
	c0.1-0.2,0.1-0.3,0.1-0.3c0-0.1,0-0.2-0.1-0.3l-2.7-6.8L28.3,14.6L28.3,14.6z"/>
</svg>
