<?xml version="1.0" encoding="utf-8"?>
<!-- Generator: Adobe Illustrator 21.1.0, SVG Export Plug-In . SVG Version: 6.00 Build 0)  -->
<svg version="1.1" id="圖層_1" xmlns="http://www.w3.org/2000/svg" xmlns:xlink="http://www.w3.org/1999/xlink" x="0px" y="0px"
	 viewBox="0 0 36 36" style="enable-background:new 0 0 36 36;" xml:space="preserve">
<style type="text/css">
	.st0{fill:#CDD5D7;}
	.st1{fill:#B7BEC0;}
	.st2{fill:#E5E8EC;}
	.st3{fill:#E8ECEF;}
	.st4{fill:#E67A61;}
	.st5{fill:#FFFFFF;}
	.st6{fill:#FF876C;}
	.st7{fill:#9EA4A6;}
	.st8{fill:#01C6DA;}
</style>
<g>
	<g>
		<rect x="30.9" y="7.8" class="st0" width="1.2" height="0.3"/>
		<rect x="30.9" y="13.9" class="st0" width="1.2" height="0.3"/>
	</g>
	<rect x="3.8" y="5.7" class="st0" width="27.2" height="24.4"/>
	<rect x="3.8" y="18.1" class="st1" width="27.2" height="5.2"/>
	<rect x="3.8" y="5.6" class="st1" width="27.2" height="0.6"/>
	<rect x="3.1" y="30.1" class="st2" width="28.7" height="1.1"/>
	<rect x="3.1" y="4.6" class="st2" width="28.7" height="1.1"/>
	<g>
		<g>
			<g>
				<path class="st3" d="M2.5,18.4v1.4c0,0.6,0.4,1,1,1c0.6,0,1-0.4,1-1v-1.4H2.5z"/>
				<path class="st4" d="M4.5,18.4v1.4c0,0.6,0.4,1,1,1c0.6,0,1-0.4,1-1v-1.4H4.5z"/>
				<path class="st3" d="M6.5,18.4v1.4c0,0.6,0.4,1,1,1c0.6,0,1-0.4,1-1v-1.4H6.5z"/>
				<path class="st4" d="M8.5,18.4v1.4c0,0.6,0.4,1,1,1c0.6,0,1-0.4,1-1v-1.4H8.5z"/>
				<path class="st3" d="M10.5,18.4v1.4c0,0.6,0.4,1,1,1c0.6,0,1-0.4,1-1v-1.4H10.5z"/>
				<path class="st4" d="M12.5,18.4v1.4c0,0.6,0.4,1,1,1c0.6,0,1-0.4,1-1v-1.4H12.5z"/>
				<path class="st3" d="M14.5,18.4v1.4c0,0.6,0.4,1,1,1c0.6,0,1-0.4,1-1v-1.4H14.5z"/>
			</g>
			<g>
				<path class="st4" d="M16.5,18.4v1.4c0,0.6,0.4,1,1,1c0.6,0,1-0.4,1-1v-1.4H16.5z"/>
				<path class="st3" d="M18.5,18.4v1.4c0,0.6,0.4,1,1,1c0.6,0,1-0.4,1-1v-1.4H18.5z"/>
				<path class="st4" d="M20.5,18.4v1.4c0,0.6,0.4,1,1,1c0.6,0,1-0.4,1-1v-1.4H20.5z"/>
				<path class="st3" d="M22.5,18.4v1.4c0,0.6,0.4,1,1,1c0.6,0,1-0.4,1-1v-1.4H22.5z"/>
				<path class="st4" d="M24.5,18.4v1.4c0,0.6,0.4,1,1,1s1-0.4,1-1v-1.4H24.5z"/>
				<path class="st3" d="M26.5,18.4v1.4c0,0.6,0.4,1,1,1c0.6,0,1-0.4,1-1v-1.4H26.5z"/>
				<path class="st4" d="M28.5,18.4v1.4c0,0.6,0.4,1,1,1c0.6,0,1-0.4,1-1v-1.4H28.5z"/>
				<path class="st3" d="M30.5,18.4v1.4c0,0.6,0.4,1,1,1c0.6,0,1-0.4,1-1v-1.4H30.5z"/>
			</g>
		</g>
		<g>
			<rect x="5.3" y="14" class="st3" width="1.6" height="0.8"/>
			<rect x="6.9" y="14" class="st4" width="1.6" height="0.8"/>
			<rect x="8.5" y="14" class="st3" width="1.6" height="0.8"/>
			<rect x="10.1" y="14" class="st4" width="1.6" height="0.8"/>
			<rect x="11.7" y="14" class="st3" width="1.6" height="0.8"/>
			<rect x="13.3" y="14" class="st4" width="1.6" height="0.8"/>
			<rect x="14.9" y="14" class="st3" width="1.6" height="0.8"/>
			<rect x="16.5" y="14" class="st4" width="1.6" height="0.8"/>
			<rect x="18.1" y="14" class="st3" width="1.6" height="0.8"/>
			<rect x="19.7" y="14" class="st4" width="1.6" height="0.8"/>
			<rect x="21.3" y="14" class="st3" width="1.6" height="0.8"/>
			<rect x="22.9" y="14" class="st4" width="1.6" height="0.8"/>
			<rect x="24.5" y="14" class="st3" width="1.6" height="0.8"/>
			<rect x="26.1" y="14" class="st4" width="1.6" height="0.8"/>
			<rect x="27.7" y="14" class="st3" width="1.6" height="0.8"/>
		</g>
		<g>
			<path class="st5" d="M5.2,14.7c-0.9,1.2-1.9,2.5-2.8,3.7c0.7,0,1.3,0,2,0c0.8-1.2,1.6-2.5,2.4-3.7C6.3,14.7,5.8,14.7,5.2,14.7z"
				/>
			<path class="st6" d="M6.8,14.7c-0.8,1.2-1.6,2.5-2.4,3.7c0.7,0,1.3,0,2,0c0.7-1.2,1.3-2.5,2-3.7C7.9,14.7,7.4,14.7,6.8,14.7z"/>
			<path class="st5" d="M8.5,14.7c-0.7,1.2-1.3,2.5-2,3.7c0.7,0,1.3,0,2,0c0.5-1.2,1.1-2.5,1.6-3.7C9.5,14.7,9,14.7,8.5,14.7z"/>
			<path class="st6" d="M10.1,14.7C9.5,16,9,17.2,8.5,18.4c0.7,0,1.3,0,2,0c0.4-1.2,0.8-2.5,1.2-3.7C11.1,14.7,10.6,14.7,10.1,14.7z
				"/>
			<path class="st5" d="M11.7,14.7c-0.4,1.2-0.8,2.5-1.2,3.7c0.7,0,1.3,0,2,0c0.3-1.2,0.5-2.5,0.8-3.7
				C12.7,14.7,12.2,14.7,11.7,14.7z"/>
			<path class="st6" d="M13.3,14.7c-0.3,1.2-0.5,2.5-0.8,3.7c0.7,0,1.3,0,2,0c0.1-1.2,0.3-2.5,0.4-3.7
				C14.3,14.7,13.8,14.7,13.3,14.7z"/>
			<path class="st5" d="M14.5,18.4c0.7,0,1.3,0,2,0c0-1.2,0-2.5,0-3.7c-0.5,0-1.1,0-1.6,0C14.7,16,14.6,17.2,14.5,18.4z"/>
			<path class="st6" d="M16.5,14.7c0,1.2,0,2.5,0,3.7c0.7,0,1.3,0,2,0c-0.1-1.2-0.3-2.5-0.4-3.7C17.6,14.7,17,14.7,16.5,14.7z"/>
			<path class="st5" d="M18.1,14.7c0.1,1.2,0.3,2.5,0.4,3.7c0.7,0,1.3,0,2,0c-0.3-1.2-0.5-2.5-0.8-3.7
				C19.2,14.7,18.6,14.7,18.1,14.7z"/>
			<path class="st6" d="M19.7,14.7c0.3,1.2,0.5,2.5,0.8,3.7c0.7,0,1.3,0,2,0c-0.4-1.2-0.8-2.5-1.2-3.7
				C20.8,14.7,20.2,14.7,19.7,14.7z"/>
			<path class="st5" d="M21.3,14.7c0.4,1.2,0.8,2.5,1.2,3.7c0.7,0,1.3,0,2,0c-0.5-1.2-1.1-2.5-1.6-3.7
				C22.4,14.7,21.8,14.7,21.3,14.7z"/>
			<path class="st6" d="M22.9,14.7c0.5,1.2,1.1,2.5,1.6,3.7c0.7,0,1.3,0,2,0c-0.7-1.2-1.3-2.5-2-3.7C24,14.7,23.4,14.7,22.9,14.7z"
				/>
			<path class="st5" d="M24.5,14.7c0.7,1.2,1.3,2.5,2,3.7c0.7,0,1.3,0,2,0c-0.8-1.2-1.6-2.5-2.4-3.7C25.6,14.7,25,14.7,24.5,14.7z"
				/>
			<path class="st6" d="M26.1,14.7c0.8,1.2,1.6,2.5,2.4,3.7c0.7,0,1.3,0,2,0c-0.9-1.2-1.9-2.5-2.8-3.7
				C27.2,14.7,26.6,14.7,26.1,14.7z"/>
			<path class="st5" d="M30.5,18.4c0.7,0,1.3,0,2,0c-1.1-1.2-2.1-2.5-3.2-3.7c-0.5,0-1.1,0-1.6,0C28.6,16,29.6,17.2,30.5,18.4z"/>
		</g>
	</g>
	<g>
		<rect x="5.6" y="7.9" class="st2" width="4" height="4"/>
		<rect x="10.5" y="7.9" class="st2" width="4" height="4"/>
		<rect x="15.4" y="7.9" class="st2" width="4" height="4"/>
		<rect x="20.3" y="7.9" class="st2" width="4" height="4"/>
		<rect x="25.2" y="7.9" class="st2" width="4" height="4"/>
	</g>
	<polygon class="st2" points="11.1,21.7 10.5,21.7 5.6,21.7 5.6,28.3 10.5,28.3 11.1,28.3 14.5,28.3 14.5,21.7 	"/>
	<polygon class="st0" points="10.5,21.7 5.6,21.7 5.6,23.2 14.5,23.2 14.5,21.7 11.1,21.7 	"/>
	<polygon class="st7" points="11.2,21.7 10.5,21.7 5.3,21.7 5.3,22.1 10.5,22.1 11.2,22.1 14.8,22.1 14.8,21.7 	"/>
	<polygon class="st1" points="11.2,27.9 10.5,27.9 5.3,27.9 5.3,28.3 10.5,28.3 11.2,28.3 14.8,28.3 14.8,27.9 	"/>
	<polygon class="st2" points="25.8,21.7 25.2,21.7 20.3,21.7 20.3,28.3 25.2,28.3 25.8,28.3 29.2,28.3 29.2,21.7 	"/>
	<polygon class="st0" points="25.2,21.7 20.3,21.7 20.3,23.2 29.2,23.2 29.2,21.7 25.8,21.7 	"/>
	<polygon class="st7" points="25.9,21.7 25.2,21.7 20,21.7 20,22.1 25.2,22.1 25.9,22.1 29.5,22.1 29.5,21.7 	"/>
	<polygon class="st1" points="25.9,27.9 25.2,27.9 20,27.9 20,28.3 25.2,28.3 25.9,28.3 29.5,28.3 29.5,27.9 	"/>
	<polygon class="st8" points="33.5,7.2 33.3,7.2 31.8,7.2 31.8,14.8 33.3,14.8 33.5,14.8 34.5,14.8 34.5,7.2 	"/>
	<rect x="15.4" y="21.7" class="st1" width="4" height="7.9"/>
	<rect x="15.8" y="25.6" class="st7" width="3.2" height="0.2"/>
	<rect x="15.8" y="26.2" class="st7" width="3.2" height="0.2"/>
	<rect x="14.5" y="29.5" class="st2" width="5.8" height="0.8"/>
	<rect x="15.4" y="21.7" class="st7" width="4" height="1.6"/>
</g>
</svg>
