<?xml version="1.0" encoding="utf-8"?>
<!-- Generator: Adobe Illustrator 21.1.0, SVG Export Plug-In . SVG Version: 6.00 Build 0)  -->
<svg version="1.1" id="圖層_1" xmlns="http://www.w3.org/2000/svg" xmlns:xlink="http://www.w3.org/1999/xlink" x="0px" y="0px"
	 viewBox="0 0 36 36" style="enable-background:new 0 0 36 36;" xml:space="preserve">
<style type="text/css">
	.st0{fill:#FFBB4D;}
	.st1{fill:#595259;}
	.st2{fill:#F06060;}
	.st3{fill:#2ECAD9;}
</style>
<g>
	<rect x="15.3" y="10.4" class="st0" width="15.9" height="11.4"/>
	<circle class="st1" cx="8.9" cy="24" r="1.6"/>
	<circle class="st1" cx="26.6" cy="24.1" r="1.6"/>
	<g>
		<path class="st1" d="M28.4,22.3c0.4,0.4,0.7,1,0.7,1.7h2.5v-1.7H28.4z"/>
		<path class="st1" d="M24.9,22.3H14.7v-7.7H7.4l-1.5,2.8l-1.2,1.9v3H4.4V24h2.1c0.1-1.3,1.2-2.4,2.5-2.4s2.4,1.1,2.5,2.4h12.6
			C24.2,23.3,24.4,22.7,24.9,22.3z"/>
	</g>
	<path class="st2" d="M7.4,14.6v-1.4c0,0,1-2.6,4.5-2.6s3.4,0,3.4,0v4.1H7.4z"/>
	<path class="st3" d="M8.3,15.6l-2,3.5c0,0-0.1,0.4,0,0.5s5.8,0,5.8,0v-4.1H8.3L8.3,15.6z"/>
</g>
</svg>
