<?xml version="1.0" encoding="UTF-8"?>
<svg width="31px" height="31px" viewBox="0 0 31 31" version="1.1" xmlns="http://www.w3.org/2000/svg" xmlns:xlink="http://www.w3.org/1999/xlink">
    <!-- Generator: Sketch 47 (45396) - http://www.bohemiancoding.com/sketch -->
    <title>iconswatch</title>
    <desc>Created with Sketch.</desc>
    <defs>
        <path d="M32.0593632,29.9419686 L25.2627797,23.1448571 C27.038644,20.8972932 28.0032954,18.1157096 28.0003133,15.251147 C28.0003133,8.21851442 22.2807431,2.5 15.2501567,2.5 C8.21957028,2.5 2.5,8.22001455 2.5,15.251147 C2.5,22.2837797 8.21957028,28.0022941 15.2501567,28.0022941 C18.1120461,28.0070213 20.8911244,27.0419886 23.1342535,25.2645478 L29.9308371,32.0616593 C30.5159075,32.6461136 31.4637927,32.6461136 32.0488631,32.0616593 C32.6488705,31.481107 32.6488705,30.5240209 32.0578632,29.9419686 L32.0593632,29.9419686 Z M5.50003686,15.2496469 C5.50003686,9.87766367 9.87859066,5.49876976 15.2501567,5.49876976 C20.6217227,5.49876976 25.0002765,9.87766367 25.0002765,15.2496469 C25.0038311,17.8361271 23.9746345,20.3169753 22.1412413,22.1412669 L22.0842406,22.198272 C20.2645343,23.9967949 17.8085756,25.0043768 15.2501567,25.0020242 C9.87859066,25.0020242 5.50003686,20.6231303 5.50003686,15.251147 L5.50003686,15.2496469 Z" id="path-1"></path>
    </defs>
    <g id="01-style_icons" stroke="none" stroke-width="1" fill="none" fill-rule="evenodd">
        <g id="icon/search" transform="translate(-2.000000, -2.000000)">
            <mask id="mask-2" fill="white">
                <use xlink:href="#path-1"></use>
            </mask>
            <use id="Mask" fill="#000000" fill-rule="nonzero" xlink:href="#path-1"></use>
            <g id="iconswatch/black" mask="url(#mask-2)" fill="#000000">
                <rect id="Rectangle" x="0" y="0" width="36" height="36"></rect>
            </g>
        </g>
    </g>
</svg>