<?xml version="1.0" encoding="UTF-8"?>
<svg width="36px" height="36px" viewBox="0 0 36 36" version="1.1" xmlns="http://www.w3.org/2000/svg" xmlns:xlink="http://www.w3.org/1999/xlink">
    <!-- Generator: Sketch 47 (45396) - http://www.bohemiancoding.com/sketch -->
    <title>icon/line</title>
    <desc>Created with Sketch.</desc>
    <defs>
        <path d="M28.2254544,16.7298727 L28.2251192,16.7302486 L25.5329633,16.7302486 L25.5329633,17.8984109 L28.2251192,17.8984109 C28.3766389,17.8984109 28.4996648,18.0363946 28.4996648,18.2063365 C28.4996648,18.2067125 28.4996648,18.2070884 28.4996648,18.2074644 L28.4996648,19.31923 C28.4996648,19.319606 28.4996648,19.319982 28.4996648,19.3203579 C28.4996648,19.4902998 28.3766389,19.6282835 28.2251192,19.6282835 L25.5329633,19.6282835 L25.5329633,20.7712553 L28.2251192,20.7712553 C28.3766389,20.7712553 28.4996648,20.909239 28.4996648,21.0791809 C28.4996648,21.0795568 28.4996648,21.0799328 28.4996648,21.0803088 L28.4996648,22.1909465 C28.4996648,22.1913224 28.4996648,22.1916984 28.4996648,22.1920744 C28.4996648,22.3620162 28.3766389,22.5 28.2251192,22.5 L24.2671707,22.5 C24.1934222,22.5 24.1263781,22.466914 24.0771007,22.4135252 C24.0294994,22.3582565 24,22.283061 24,22.1999699 L24,15.2985262 C24,15.2161871 24.0291642,15.1413676 24.0760951,15.0864748 C24.1253725,15.033086 24.1924166,15 24.2661651,15 C24.2665003,15 24.2671707,15 24.267506,15 L28.2254544,15 C28.3769741,15 28.5,15.1379838 28.5,15.3079256 C28.5,15.3083016 28.5,15.3086776 28.5,15.3090535 L28.5,16.4208191 C28.5,16.4211951 28.5,16.4215711 28.5,16.4219471 C28.5,16.5918889 28.3769741,16.7298727 28.2254544,16.7298727 Z M22.215415,15 L22.2174772,15.0044774 C22.2178209,15.0044774 22.2181646,15.0044774 22.2185083,15.0044774 C22.3738615,15.0044774 22.5,15.1414109 22.5,15.3100592 L22.5,22.1462863 C22.5,22.3149346 22.3738615,22.4518681 22.2185083,22.4518681 C22.2181646,22.4518681 22.2178209,22.4518681 22.2174772,22.4518681 L21.2011514,22.4518681 C21.1757175,22.451495 21.1513147,22.4477638 21.1296615,22.4414208 L21.1107579,22.4347047 L21.1021653,22.4347047 L21.0884173,22.429108 L21.0746692,22.4223919 L21.0660766,22.4223919 L21.0482042,22.4108253 L21.0471731,22.4100791 C21.0200206,22.3899308 20.9963052,22.3649321 20.9763705,22.3350828 L18.0813714,18.0901448 L18.0813714,22.1944182 C18.0813714,22.3630665 17.9552329,22.5 17.7998797,22.5 C17.799536,22.5 17.7991923,22.5 17.7988486,22.5 L16.7825228,22.5 C16.7821791,22.5 16.7818354,22.5 16.7814917,22.5 C16.6261385,22.5 16.5,22.3630665 16.5,22.1944182 L16.5,15.3443859 C16.5,15.1757375 16.6261385,15.038804 16.7814917,15.038804 C16.7818354,15.038804 16.7821791,15.038804 16.7825228,15.038804 L17.8748067,15.038804 L17.891648,15.0444008 L17.9012717,15.0444008 L17.917082,15.0522362 L17.9256745,15.0522362 L17.9404537,15.0615641 L17.9490462,15.0615641 L17.9638254,15.0720113 L17.9710431,15.0776081 L17.9858223,15.0914134 L18.0026637,15.109696 L18.00232,15.1093229 C18.0102251,15.1190239 18.0174429,15.1290981 18.0246606,15.1406646 L20.9165664,19.3755286 L20.9165664,15.3055818 C20.9165664,15.1369335 21.0427049,15 21.1980581,15 C21.1984018,15 21.1987455,15 21.1990892,15 L22.215415,15 Z M14.7318399,15 L14.7318399,15.0045007 C14.7321662,15.0045007 14.7324924,15.0045007 14.7328186,15.0045007 C14.880274,15.0045007 15,15.1421463 15,15.3116718 L15,22.1928289 C15,22.3623544 14.880274,22.5 14.7328186,22.5 C14.7324924,22.5 14.7321662,22.5 14.7318399,22.5 L13.7681601,22.5 C13.7678338,22.5 13.7675076,22.5 13.7671814,22.5 C13.619726,22.5 13.5,22.3623544 13.5,22.1928289 L13.5,15.3071711 C13.5,15.1376456 13.619726,15 13.7671814,15 C13.7675076,15 13.7678338,15 13.7681601,15 L14.7318399,15 Z M11.7307979,20.7871946 L11.725434,20.7725521 C11.8769649,20.7725521 12,20.9103424 12,21.0800461 C12,21.0804215 12,21.080797 12,21.0811724 L12,22.1913797 C12,22.1917551 12,22.1921306 12,22.192506 C12,22.3622097 11.8769649,22.5 11.725434,22.5 L7.76719064,22.5 C7.69343664,22.5 7.62638754,22.4669604 7.57710646,22.4136464 C7.5295016,22.3584551 7.5,22.283365 7.5,22.2007659 C7.5,22.2007659 7.5,22.2003905 7.5,22.2003905 L7.5,15.307494 C7.5,15.1377903 7.62303509,15 7.77456604,15 C7.77490129,15 7.77523653,15 7.77557178,15 L8.76588691,15 C8.91674737,15.0011264 9.03844148,15.1385412 9.03844148,15.307494 C9.03844148,15.3089958 9.03844148,15.3104976 9.03844148,15.3119994 L9.03844148,20.7871946 L11.7307979,20.7871946 Z" id="path-1"></path>
    </defs>
    <g id="01-style_icons" stroke="none" stroke-width="1" fill="none" fill-rule="evenodd">
        <g id="icon/line">
            <mask id="mask-2" fill="white">
                <use xlink:href="#path-1"></use>
            </mask>
            <use id="Mask" fill="#000000" fill-rule="nonzero" xlink:href="#path-1"></use>
            <g id="iconswatch/white" mask="url(#mask-2)" fill="#FFFFFF">
                <rect id="Rectangle" x="0" y="0" width="36" height="36"></rect>
            </g>
        </g>
    </g>
</svg>