<?xml version="1.0" encoding="UTF-8"?>
<svg width="30px" height="29px" viewBox="0 0 30 29" version="1.1" xmlns="http://www.w3.org/2000/svg" xmlns:xlink="http://www.w3.org/1999/xlink">
    <!-- Generator: Sketch 47 (45396) - http://www.bohemiancoding.com/sketch -->
    <title>icon/swatch/black</title>
    <desc>Created with Sketch.</desc>
    <defs>
        <path d="M18.0000001,4 C9.8284774,4 3,9.43806929 3,16.4112215 C3,20.173501 5.15618198,23.2576374 8.23084105,25.4559897 L5.81250015,31.2088305 C5.64266746,31.6087881 5.74407394,32.072395 6.06537697,32.3649247 C6.38667999,32.6574543 6.85774006,32.7150482 7.24005696,32.5085464 L14.4524319,28.5667851 C15.5681592,28.7407851 16.961591,28.8331033 18.0000001,28.8331033 C26.1715228,28.8331033 33,23.3843874 33,16.4112215 C33,9.43806929 26.1715224,4 18.0000001,4 L18.0000001,4 Z M18.0000001,6.04545453 C25.2707046,6.04545453 30.9545455,10.7931625 30.9545455,16.4112215 C30.9545455,22.0293079 25.2707042,26.7876487 18.0000001,26.7876487 C16.9703861,26.7876487 15.3275793,26.6782851 14.4417615,26.5106601 C14.2090098,26.4661151 13.9680124,26.503771 13.7599433,26.6171942 L8.82743161,29.3125237 L10.4147725,25.5305465 C10.6086906,25.073952 10.4470201,24.544032 10.0312498,24.2734442 C6.95805663,22.3136942 5.04545436,19.6526601 5.04545436,16.4112215 C5.04545436,10.7931625 10.7292952,6.04545453 18.0000001,6.04545453 L18.0000001,6.04545453 Z M10.5000001,13.2045454 C8.81761377,13.2045454 7.43181833,14.5903306 7.43181833,16.2727272 C7.43181833,17.9551374 8.81761377,19.3408988 10.5000001,19.3408988 C12.1823865,19.3408988 13.5681819,17.9551374 13.5681819,16.2727272 C13.5681819,14.5903306 12.1823865,13.2045454 10.5000001,13.2045454 Z M18.0000001,13.2045454 C16.3176134,13.2045454 14.9318183,14.5903306 14.9318183,16.2727272 C14.9318183,17.9551374 16.3176134,19.3408988 18.0000001,19.3408988 C19.6823864,19.3408988 21.0681819,17.9551374 21.0681819,16.2727272 C21.0681819,14.5903306 19.6823864,13.2045454 18.0000001,13.2045454 Z M25.5,13.2045454 C23.8176133,13.2045454 22.4318182,14.5903306 22.4318182,16.2727272 C22.4318182,17.9551374 23.8176133,19.3408988 25.5,19.3408988 C27.1823864,19.3408988 28.5681818,17.9551374 28.5681818,16.2727272 C28.5681818,14.5903306 27.1823864,13.2045454 25.5,13.2045454 Z M10.4999998,15.2499999 C11.0769543,15.2499999 11.5227271,15.6957829 11.5227271,16.2727272 C11.5227271,16.8496715 11.0769543,17.2954545 10.4999998,17.2954545 C9.92304524,17.2954545 9.47727252,16.8496715 9.47727252,16.2727272 C9.47727252,15.6957829 9.92304524,15.2499999 10.4999998,15.2499999 Z M18.0000001,15.2499999 C18.5769543,15.2499999 19.0227274,15.6957829 19.0227274,16.2727272 C19.0227274,16.8496715 18.5769543,17.2954545 18.0000001,17.2954545 C17.4230452,17.2954545 16.9772728,16.8496715 16.9772728,16.2727272 C16.9772728,15.6957829 17.4230452,15.2499999 18.0000001,15.2499999 Z M25.5,15.2499999 C26.0769546,15.2499999 26.5227273,15.6957829 26.5227273,16.2727272 C26.5227273,16.8496715 26.0769546,17.2954545 25.5,17.2954545 C24.9230452,17.2954545 24.4772728,16.8496715 24.4772728,16.2727272 C24.4772728,15.6957829 24.9230452,15.2499999 25.5,15.2499999 Z" id="path-1"></path>
    </defs>
    <g id="01-style_icons" stroke="none" stroke-width="1" fill="none" fill-rule="evenodd">
        <g id="icon/chat" transform="translate(-3.000000, -4.000000)">
            <mask id="mask-2" fill="white">
                <use xlink:href="#path-1"></use>
            </mask>
            <use id="Mask" fill="#000000" fill-rule="nonzero" xlink:href="#path-1"></use>
            <g id="iconswatch/black" mask="url(#mask-2)" fill="#000000">
                <rect id="Rectangle" x="0" y="0" width="36" height="36"></rect>
            </g>
        </g>
    </g>
</svg>