<?xml version="1.0" encoding="utf-8"?>
<!-- Generated by IcoMoon.io -->
<!DOCTYPE svg PUBLIC "-//W3C//DTD SVG 1.1//EN" "http://www.w3.org/Graphics/SVG/1.1/DTD/svg11.dtd">
<svg version="1.1" xmlns="http://www.w3.org/2000/svg" xmlns:xlink="http://www.w3.org/1999/xlink" width="20" height="32" viewBox="0 0 20 32">
<path fill="#000" d="M3.774 32v0c-1.038-0.004-1.978-0.424-2.662-1.1-0.684-0.658-1.108-1.58-1.108-2.602s0.424-1.944 1.106-2.6l9.978-9.714-9.988-9.702c-0.674-0.656-1.090-1.572-1.090-2.586s0.418-1.928 1.090-2.584c0.694-0.67 1.638-1.080 2.68-1.080s1.986 0.412 2.68 1.082l12.65 12.276c0.684 0.66 1.108 1.584 1.108 2.608s-0.424 1.948-1.108 2.606l-12.652 12.322c-0.684 0.676-1.624 1.096-2.662 1.1v0z"></path>
</svg>
