<?xml version="1.0" encoding="utf-8"?>
<!-- Generated by IcoMoon.io -->
<!DOCTYPE svg PUBLIC "-//W3C//DTD SVG 1.1//EN" "http://www.w3.org/Graphics/SVG/1.1/DTD/svg11.dtd">
<svg version="1.1" xmlns="http://www.w3.org/2000/svg" xmlns:xlink="http://www.w3.org/1999/xlink" width="32" height="32" viewBox="0 0 32 32">
<path fill="#000" d="M26.927 4.268h-1.637v-1.538c-0.035-0.856-0.737-1.537-1.599-1.537s-1.564 0.681-1.599 1.534v1.538h-12.148v-1.535c-0.035-0.856-0.737-1.537-1.599-1.537s-1.564 0.681-1.599 1.534v1.538h-1.638c-2.797 0-5.072 2-5.072 4.805v16.235c0 2.797 2.275 5.168 5.072 5.168h21.815c2.797 0 5.073-2.37 5.073-5.168v-16.233c0.002-2.797-2.273-4.805-5.070-4.805zM5.11 7.143h1.64v1.168c0.035 0.856 0.737 1.537 1.599 1.537s1.564-0.681 1.599-1.534v-1.171h12.145v1.168c0.035 0.856 0.737 1.537 1.599 1.537s1.564-0.681 1.599-1.534v-1.171h1.637c1.12 0 1.878 0.81 1.878 1.93v2.545h-25.573v-2.545c0-1.12 0.768-1.93 1.877-1.93zM26.925 27.598h-21.815c-1.12 0-1.877-1.172-1.877-2.293v-10.5h25.57v10.5c0 1.122-0.758 2.295-1.875 2.295z"></path>
</svg>
