<?xml version="1.0" encoding="utf-8"?>
<!-- Generated by IcoMoon.io -->
<!DOCTYPE svg PUBLIC "-//W3C//DTD SVG 1.1//EN" "http://www.w3.org/Graphics/SVG/1.1/DTD/svg11.dtd">
<svg version="1.1" xmlns="http://www.w3.org/2000/svg" xmlns:xlink="http://www.w3.org/1999/xlink" width="32" height="32" viewBox="0 0 32 32">
<path fill="#000" d="M28.952 0h-25.905c-1.683 0-3.048 1.364-3.048 3.048v25.905c0 1.683 1.364 3.048 3.048 3.048h25.905c1.683 0 3.048-1.364 3.048-3.048v-25.905c0-1.683-1.364-3.048-3.048-3.048zM3.048 3.048h25.905v11.429h-3.947c-0.778-4.326-4.514-7.565-9.006-7.565s-8.227 3.239-8.997 7.51l-3.955 0.056v-11.429zM22.095 16c0 3.366-2.729 6.095-6.095 6.095s-6.095-2.729-6.095-6.095c0-3.366 2.729-6.095 6.095-6.095s6.095 2.729 6.095 6.095zM3.048 28.952v-11.429h3.947c0.778 4.326 4.514 7.565 9.006 7.565s8.227-3.239 8.997-7.51l3.955-0.056v11.429h-25.905zM27.429 4.571h-3.048v3.048h3.048v-3.048z"></path>
</svg>
