<?xml version="1.0" encoding="utf-8"?>
<!-- Generated by IcoMoon.io -->
<!DOCTYPE svg PUBLIC "-//W3C//DTD SVG 1.1//EN" "http://www.w3.org/Graphics/SVG/1.1/DTD/svg11.dtd">
<svg version="1.1" xmlns="http://www.w3.org/2000/svg" xmlns:xlink="http://www.w3.org/1999/xlink" width="32" height="32" viewBox="0 0 32 32">
<path fill="#000" d="M28.747 31.992c-1.664-0.064-3.24-0.26-4.771-0.578l-0.15-0.036-1.924-1.901v-2.496c-0.022-0.002-0.048-0.003-0.073-0.003s-0.051 0.001-0.077 0.003l-2.35-0-2.225-2.225v-2.447c0-0.006 0.001-0.013 0.001-0.021s-0-0.015-0.001-0.022c-0.050-0.015-0.108-0.026-0.168-0.029l-2.339-0-1.641-1.649c-0.72 0.177-1.547 0.279-2.398 0.279-5.77 0-10.447-4.677-10.447-10.447 0-0.894 0.112-1.763 0.324-2.591l2.194 0.626c-0.152 0.59-0.239 1.267-0.239 1.965 0 4.52 3.664 8.184 8.184 8.184 0.858 0 1.685-0.132 2.462-0.377l0.593-0.184 1.905 1.935h1.4c0.043-0.003 0.094-0.005 0.145-0.005 1.262 0 2.285 1.023 2.285 2.285 0 0.031-0.001 0.061-0.002 0.092l0 1.456 0.9 0.9h1.423c0.033-0.002 0.073-0.003 0.112-0.003 0.684 0 1.3 0.29 1.731 0.754 0.351 0.408 0.563 0.94 0.563 1.522 0 0.053-0.002 0.106-0.005 0.158l0 1.408 0.753 0.753c1.024 0.188 3.083 0.508 4.232 0.425 0.167-0.009 0.323-0.032 0.474-0.068-0.018-0.117-0.018-0.294-0.018-0.433s0-0.305 0-0.471c-0.074-1.372-0.232-2.649-0.473-3.897l-11.066-10.94 0.248-0.678c0.313-0.833 0.494-1.796 0.494-2.801 0-4.518-3.663-8.181-8.181-8.181-1.865 0-3.584 0.624-4.96 1.675l2.802 2.768c0.537-0.27 1.171-0.428 1.841-0.428 2.304 0 4.171 1.868 4.171 4.171s-1.868 4.171-4.171 4.171c-1.715 0-3.189-1.035-3.83-2.515l2.068-0.908c0.297 0.7 0.978 1.182 1.772 1.182 1.060 0 1.92-0.86 1.92-1.92s-0.86-1.92-1.92-1.92c-0.487 0-0.932 0.181-1.27 0.48l-0.792 0.695-5.82-5.843 0.794-0.798c1.89-1.895 4.504-3.068 7.392-3.068 5.766 0 10.44 4.674 10.44 10.44 0 1.026-0.148 2.017-0.424 2.954l10.635 10.543 0.064 0.35c0.056 0.324 0.568 3.208 0.538 4.518 0 0.143 0 0.279 0 0.407 0 0.964 0 2.575-2.552 2.763-0.184 0.011-0.376 0.019-0.576 0.019z"></path>
</svg>
