<?xml version="1.0" encoding="utf-8"?>
<!-- Generated by IcoMoon.io -->
<!DOCTYPE svg PUBLIC "-//W3C//DTD SVG 1.1//EN" "http://www.w3.org/Graphics/SVG/1.1/DTD/svg11.dtd">
<svg version="1.1" xmlns="http://www.w3.org/2000/svg" xmlns:xlink="http://www.w3.org/1999/xlink" width="21" height="32" viewBox="0 0 21 32">
<path fill="#000" d="M4.324 8.216c0-3.344 2.71-6.054 6.054-6.054s6.054 2.711 6.054 6.054v5.874h2.162v-5.874c0-4.528-3.67-8.198-8.198-8.198s-8.198 3.67-8.198 8.198v6.054h2.162v-6.054h-0.036z"></path>
<path fill="#000" d="M19.64 15.423h-18.559c-0.597 0-1.081 0.484-1.081 1.081v14.414c0 0.597 0.484 1.081 1.081 1.081h18.559c0.597 0 1.081-0.484 1.081-1.081v-14.414c0-0.597-0.484-1.081-1.081-1.081zM18.559 29.838h-16.396v-12.252h16.396v12.252z"></path>
<path fill="#000" d="M10.847 27.957c0 0.466-0.378 0.843-0.843 0.843s-0.843-0.378-0.843-0.843c0-0.466 0.378-0.843 0.843-0.843s0.843 0.378 0.843 0.843z"></path>
<path fill="#000" d="M9.845 26.18v0c-0.402-0.002-0.732-0.305-0.774-0.696l-0-1.106c0.059-0.402 0.395-0.709 0.806-0.721l0.873-0c0.924-0.053 1.654-0.815 1.654-1.748 0-0.032 0-0.061 0-0.090-0.055-1.001-0.863-1.795-1.863-1.831l-0.104-0c-0 0-0 0-0.001 0-0.915 0-1.679 0.645-1.864 1.505-0.109 0.273-0.361 0.453-0.654 0.453-0.318 0-0.586-0.211-0.673-0.5 0.191-1.601 1.537-2.827 3.17-2.827 0 0 0 0 0 0h0.141c1.717 0.036 3.104 1.402 3.175 3.107 0 0.039 0 0.071 0 0.104-0.002 1.658-1.336 3.003-2.989 3.023l-0.121 0v0.591c-0.036 0.401-0.368 0.715-0.774 0.721h-0.001z"></path>
</svg>
