<?xml version="1.0" encoding="utf-8"?>
<!-- Generated by IcoMoon.io -->
<!DOCTYPE svg PUBLIC "-//W3C//DTD SVG 1.1//EN" "http://www.w3.org/Graphics/SVG/1.1/DTD/svg11.dtd">
<svg version="1.1" xmlns="http://www.w3.org/2000/svg" xmlns:xlink="http://www.w3.org/1999/xlink" width="32" height="32" viewBox="0 0 32 32">
<path fill="#000" d="M30.27 1.73c-0.933-0.938-2.181-1.562-3.572-1.699-0.211-0.031-0.409-0.031-0.607-0.031-0.004 0-0.009-0-0.014-0-1.626 0-3.098 0.661-4.161 1.73l-21.916 21.916v8.361h8.354l21.916-21.938c1.068-1.070 1.728-2.546 1.728-4.177s-0.66-3.108-1.728-4.177l0 0zM7.275 29.745h-4.963v-5.035l1.385-1.385 4.963 4.963-1.385 1.439zM28.494 8.469l-18.136 18.143-1.658-1.658 16.716-16.723c0.181-0.209 0.292-0.483 0.292-0.783 0-0.661-0.536-1.198-1.198-1.198-0.296 0-0.566 0.107-0.775 0.285l-16.728 16.714-1.611-1.611 18.215-18.215c0.634-0.63 1.509-1.020 2.474-1.020 1.009 0 1.919 0.426 2.559 1.108 0.564 0.634 0.908 1.471 0.908 2.389 0 1.004-0.412 1.912-1.075 2.564l-0 0.001z"></path>
</svg>
