<?xml version="1.0" encoding="utf-8"?>
<!-- Generated by IcoMoon.io -->
<!DOCTYPE svg PUBLIC "-//W3C//DTD SVG 1.1//EN" "http://www.w3.org/Graphics/SVG/1.1/DTD/svg11.dtd">
<svg version="1.1" xmlns="http://www.w3.org/2000/svg" xmlns:xlink="http://www.w3.org/1999/xlink" width="32" height="32" viewBox="0 0 32 32">
<path fill="#000" d="M7.875 24.125c0.239 0.241 0.576 0.396 0.949 0.4 0.004 0 0.007 0 0.011 0 0.369 0 0.702-0.153 0.94-0.4l6.25-6.25 6.25 6.25c0.239 0.241 0.576 0.396 0.949 0.4 0.738-0.002 1.334-0.6 1.334-1.337 0-0.365-0.146-0.696-0.384-0.938l-6.25-6.25 6.25-6.25c0.24-0.24 0.388-0.571 0.388-0.938 0-0.732-0.594-1.326-1.326-1.326-0.366 0-0.698 0.148-0.938 0.388l-6.25 6.25-6.25-6.25c-0.24-0.24-0.571-0.388-0.938-0.388-0.732 0-1.326 0.594-1.326 1.326 0 0.366 0.148 0.698 0.388 0.938l6.25 6.25-6.25 6.25c-0.269 0.235-0.438 0.578-0.438 0.96 0 0.359 0.149 0.683 0.387 0.914z"></path>
</svg>
