<?xml version="1.0" encoding="utf-8"?>
<!-- Generated by IcoMoon.io -->
<!DOCTYPE svg PUBLIC "-//W3C//DTD SVG 1.1//EN" "http://www.w3.org/Graphics/SVG/1.1/DTD/svg11.dtd">
<svg version="1.1" xmlns="http://www.w3.org/2000/svg" xmlns:xlink="http://www.w3.org/1999/xlink" width="32" height="32" viewBox="0 0 32 32">
<path fill="#000" d="M28.010 31.834l-7.55-7.571c-2.048 1.368-4.566 2.183-7.275 2.183-7.299 0-13.216-5.917-13.216-13.216s5.917-13.216 13.216-13.216c7.299 0 13.216 5.917 13.216 13.216 0 2.543-0.718 4.918-1.963 6.934l7.652 7.562c0.402 0.395 0.062 1.385-0.748 2.182l-1.136 1.136c-0.824 0.845-1.801 1.184-2.196 0.79zM22.019 13.202c0-4.873-3.951-8.824-8.824-8.824s-8.824 3.951-8.824 8.824c0 4.873 3.951 8.824 8.824 8.824 0.002 0 0.005 0 0.007 0s0.004 0 0.007 0c4.866 0 8.81-3.945 8.81-8.81 0-0.005 0-0.010 0-0.015z"></path>
</svg>
