<?xml version="1.0" encoding="utf-8"?>
<!-- Generated by IcoMoon.io -->
<!DOCTYPE svg PUBLIC "-//W3C//DTD SVG 1.1//EN" "http://www.w3.org/Graphics/SVG/1.1/DTD/svg11.dtd">
<svg version="1.1" xmlns="http://www.w3.org/2000/svg" xmlns:xlink="http://www.w3.org/1999/xlink" width="32" height="32" viewBox="0 0 32 32">
<path fill="#000" d="M30.109 26.639c-1.002-5.342-5.622-9.333-11.177-9.351h-5.737c-5.659 0.008-10.353 4.129-11.253 9.533l-0.009 0.067c-0.038 0.22-0.059 0.473-0.059 0.731 0 2.511 2.036 4.547 4.546 4.547 0 0 0.001 0 0.001 0h19.2c2.519-0.008 4.557-2.052 4.557-4.571 0-0.279-0.025-0.552-0.073-0.817l0.004-0.138zM27.532 29.216c-0.441 0.535-1.103 0.874-1.845 0.874-0.023 0-0.047-0-0.070-0.001l-19.155 0c-0.019 0.001-0.041 0.001-0.063 0.001-0.73 0-1.381-0.339-1.804-0.869-0.382-0.439-0.612-1.011-0.612-1.637 0-0.128 0.010-0.254 0.028-0.377 0.704-4.46 4.532-7.841 9.15-7.841 0.011 0 0.023 0 0.034 0h5.692c0.004 0 0.009 0 0.015 0 4.546 0 8.328 3.272 9.12 7.59l0.050 0.223c0.027 0.135 0.042 0.291 0.042 0.45 0 0.606-0.22 1.161-0.585 1.589z"></path>
<path fill="#000" d="M10.036 13.257c1.528 1.54 3.646 2.493 5.986 2.493 2.257 0 4.306-0.887 5.82-2.33l0.080-0.080c1.45-1.375 2.352-3.315 2.352-5.466 0-1.83-0.653-3.507-1.739-4.812l0.010 0.012c-1.565-1.881-3.906-3.071-6.524-3.075l-0.001 2.078c0.014-0 0.030-0 0.046-0 1.958 0 3.706 0.903 4.849 2.316 0.785 0.948 1.256 2.162 1.256 3.486 0 1.56-0.653 2.967-1.701 3.962l-0.085 0.085c-1.136 1.076-2.672 1.74-4.363 1.745-0.012 0-0.025 0-0.038 0-1.743 0-3.32-0.716-4.451-1.869l-0.043-0.043c-0.987-0.995-1.596-2.365-1.596-3.877 0-1.268 0.429-2.436 1.149-3.367 1.141-1.484 2.932-2.44 4.946-2.44 0.026 0 0.051 0 0.077 0l-0.004-2.078c-0.015-0-0.033-0-0.051-0-2.677 0-5.059 1.262-6.585 3.223l-0.014 0.019c-0.99 1.266-1.588 2.88-1.588 4.633 0 2.085 0.845 3.973 2.211 5.341l-0 0.042z"></path>
</svg>
